<svg width="12" height="11" viewBox="0 0 12 11" fill="none" xmlns="http://www.w3.org/2000/svg">
<path d="M11.0368 5.58666C10.9648 8.7539 8.48082 11.0827 5.28219 10.9977C2.37904 10.9128 -0.0347111 8.37531 0.000377811 5.44446C0.0373136 2.46559 2.6616 -0.081127 5.60907 0.00197842C8.69505 0.092471 11.107 2.57271 11.0368 5.58666ZM8.42357 5.53126C8.43068 5.14785 8.36142 4.76685 8.21982 4.41048C8.07822 4.0541 7.86712 3.72947 7.59881 3.45549C7.3305 3.1815 7.01035 2.96366 6.65701 2.81463C6.30368 2.66561 5.92422 2.58839 5.54074 2.58748C4.76353 2.59576 4.02114 2.91109 3.47553 3.46465C2.92993 4.01821 2.62539 4.76509 2.62836 5.54234C2.63747 6.30146 2.94321 7.0269 3.4802 7.56355C4.01719 8.10019 4.74283 8.40547 5.50196 8.41409C5.88568 8.42643 6.26791 8.3606 6.62539 8.22059C6.98288 8.08058 7.30815 7.86932 7.58144 7.59967C7.85472 7.33001 8.0703 7.00759 8.21507 6.65201C8.35985 6.29643 8.43078 5.91512 8.42357 5.53126Z" fill="#E8742F"/>
<path d="M5.54075 2.58789C4.76258 2.59472 4.01877 2.9094 3.47197 3.46312C2.92517 4.01684 2.61986 4.76455 2.62282 5.54275C2.63194 6.30187 2.93768 7.02731 3.47467 7.56396C4.01166 8.10061 4.73729 8.40588 5.49642 8.4145C5.88015 8.42684 6.26238 8.36101 6.61986 8.221C6.97735 8.08099 7.30262 7.86974 7.5759 7.60008C7.84919 7.33042 8.06477 7.008 8.20954 6.65242C8.35431 6.29684 8.42525 5.91553 8.41804 5.53167C8.42514 5.14872 8.35606 4.76818 8.2148 4.41217C8.07355 4.05616 7.86294 3.73177 7.59522 3.45786C7.3275 3.18396 7.00801 2.966 6.65531 2.81665C6.30262 2.6673 5.92376 2.58954 5.54075 2.58789Z" fill="#FDFDFD"/>
<path d="M6.53254 5.88639C6.26841 5.88987 6.01357 5.789 5.82338 5.60567C5.7154 5.50169 5.63101 5.37573 5.57591 5.23632C5.55278 5.18225 5.51895 5.13342 5.47646 5.09277C5.43396 5.05212 5.38368 5.02049 5.32864 4.99979C5.2736 4.97908 5.21494 4.96973 5.15618 4.97229C5.09743 4.97486 5.03981 4.98928 4.98678 5.0147C4.93688 5.04369 4.89349 5.08267 4.85935 5.1292C4.8129 5.19127 4.75015 5.23925 4.67807 5.26779C4.60599 5.29634 4.52741 5.30434 4.45106 5.2909C4.37471 5.27746 4.30357 5.24312 4.24557 5.19168C4.18757 5.14025 4.14496 5.07373 4.12249 4.99954C4.10002 4.92534 4.09856 4.84636 4.11828 4.77139C4.138 4.69641 4.17812 4.62837 4.23419 4.57483C4.29026 4.52129 4.36008 4.48435 4.43588 4.46811C4.51169 4.45186 4.59051 4.45696 4.66359 4.48283C4.74502 4.51262 4.81618 4.56519 4.86859 4.63426C4.90315 4.67965 4.94712 4.71701 4.99749 4.74379C5.04786 4.77057 5.10343 4.78613 5.16038 4.78939C5.24865 4.79791 5.33731 4.77771 5.41317 4.73179C5.48904 4.68587 5.54806 4.61669 5.58145 4.53454C5.63058 4.40549 5.70392 4.28702 5.79752 4.18549C5.96936 4.00531 6.20279 3.89651 6.45128 3.88077C6.7007 3.85853 6.949 3.93401 7.14383 4.09131C7.25128 4.17305 7.3407 4.27609 7.40648 4.39399C7.47226 4.51189 7.51299 4.6421 7.52611 4.77647C7.55419 5.04042 7.47706 5.30479 7.31145 5.51224C7.14584 5.71968 6.90512 5.85346 6.6415 5.88454C6.60527 5.88761 6.56886 5.88823 6.53254 5.88639ZM6.53254 4.22428C6.40389 4.22391 6.27803 4.26173 6.17088 4.33293C6.06374 4.40414 5.98013 4.50554 5.93064 4.62429C5.88116 4.74305 5.86802 4.87381 5.89289 5.00003C5.91777 5.12626 5.97953 5.24226 6.07037 5.33336C6.16121 5.42446 6.27704 5.48655 6.40319 5.51179C6.52934 5.53702 6.66015 5.52425 6.77904 5.47511C6.89793 5.42596 6.99957 5.34264 7.07108 5.2357C7.14259 5.12875 7.18076 5.003 7.18076 4.87435C7.18028 4.78891 7.16292 4.70441 7.12966 4.6257C7.09641 4.547 7.04792 4.47564 6.98699 4.41575C6.92606 4.35585 6.85389 4.30858 6.77463 4.27668C6.69538 4.24477 6.61059 4.22884 6.52516 4.22982L6.53254 4.22428Z" fill="#E8742F"/>
<path d="M4.52143 5.88603C4.25839 5.88955 4.00468 5.78859 3.81596 5.60532C3.64489 5.44865 3.53604 5.23555 3.5094 5.00511C3.49331 4.86884 3.5052 4.73071 3.54436 4.59919C3.58351 4.46768 3.64909 4.34553 3.73709 4.24025C3.82509 4.13496 3.93366 4.04874 4.05614 3.98687C4.17862 3.92499 4.31244 3.88877 4.44941 3.88042C4.69892 3.86279 4.94598 3.93922 5.14196 4.09465C5.23238 4.16652 5.30983 4.25334 5.37096 4.35135C5.38758 4.37905 5.38388 4.39198 5.35803 4.40675C5.27677 4.45292 5.19551 4.49909 5.1161 4.54711C5.0847 4.56558 5.07362 4.54711 5.057 4.53049C4.97968 4.41429 4.86702 4.32607 4.73568 4.27886C4.60434 4.23165 4.46129 4.22797 4.32769 4.26836C4.19409 4.30874 4.07704 4.39105 3.99384 4.50312C3.91065 4.61518 3.86573 4.75104 3.86573 4.89061C3.86573 5.03018 3.91065 5.16605 3.99384 5.27811C4.07704 5.39017 4.19409 5.47248 4.32769 5.51287C4.46129 5.55326 4.60434 5.54957 4.73568 5.50237C4.86702 5.45516 4.97968 5.36693 5.057 5.25074C5.07732 5.21749 5.09394 5.21011 5.12903 5.23227C5.20475 5.27844 5.28231 5.32276 5.35988 5.36524C5.38758 5.38186 5.39312 5.39479 5.37465 5.42433C5.28919 5.56214 5.1713 5.67694 5.03127 5.75871C4.89123 5.84047 4.73332 5.88672 4.5713 5.89342L4.52143 5.88603Z" fill="#E8742F"/>
<path d="M6.94244 4.87906C6.9422 4.93427 6.93106 4.98889 6.90965 5.03978C6.88824 5.09067 6.85699 5.13683 6.8177 5.17561C6.7784 5.21439 6.73183 5.24503 6.68066 5.26576C6.62949 5.2865 6.57473 5.29692 6.51953 5.29643C6.4367 5.2957 6.35594 5.27045 6.28745 5.22386C6.21895 5.17727 6.1658 5.11144 6.13469 5.03467C6.10358 4.9579 6.09591 4.87363 6.11265 4.7925C6.1294 4.71138 6.16979 4.63703 6.22875 4.57885C6.28771 4.52066 6.36258 4.48125 6.44392 4.46558C6.52526 4.44991 6.60942 4.45869 6.68577 4.4908C6.76213 4.52292 6.82726 4.57694 6.87294 4.64604C6.91862 4.71514 6.9428 4.79623 6.94244 4.87906Z" fill="#E8742F"/>
<path d="M7.1584 6.51671C7.1584 6.51671 7.1584 6.51671 7.1584 6.50562C7.15015 6.43106 7.11469 6.36216 7.05881 6.31212C7.00292 6.26207 6.93054 6.2344 6.85553 6.2344C6.78051 6.2344 6.70813 6.26207 6.65224 6.31212C6.59636 6.36216 6.5609 6.43106 6.55265 6.50562C6.50208 6.74464 6.37091 6.95901 6.18112 7.11284C5.99133 7.26667 5.75444 7.35062 5.51014 7.35062C5.26584 7.35062 5.02895 7.26667 4.83916 7.11284C4.64937 6.95901 4.51821 6.74464 4.46763 6.50562C4.46166 6.42914 4.42707 6.35773 4.37075 6.30564C4.31444 6.25354 4.24055 6.22461 4.16383 6.22461C4.08712 6.22461 4.01323 6.25354 3.95691 6.30564C3.9006 6.35773 3.866 6.42914 3.86004 6.50562C3.8609 6.50927 3.8609 6.51306 3.86004 6.51671C3.86004 6.51671 3.86004 6.52779 3.86004 6.53517C3.85871 6.57418 3.86498 6.61306 3.8785 6.64967C3.95823 7.02152 4.16306 7.35478 4.45882 7.59385C4.75458 7.83292 5.12338 7.96333 5.50368 7.96333C5.88398 7.96333 6.25277 7.83292 6.54853 7.59385C6.84429 7.35478 7.04912 7.02152 7.12885 6.64967C7.14651 6.61143 7.15595 6.56991 7.15655 6.52779C7.15655 6.52779 7.1584 6.52225 7.1584 6.51671Z" fill="#E8742F"/>
</svg>
