<svg width="133" height="29" viewBox="0 0 133 29" fill="none" xmlns="http://www.w3.org/2000/svg">
<path fill-rule="evenodd" clip-rule="evenodd" d="M27.3499 28.4202L21.8799 18.9502H32.8199L27.3499 28.4202Z" fill="#0E3480"/>
<path fill-rule="evenodd" clip-rule="evenodd" d="M5.47 9.47L0 0H10.94L16.41 9.47H5.47Z" fill="#E61E66"/>
<path fill-rule="evenodd" clip-rule="evenodd" d="M10.9399 18.95L16.4099 9.47L21.8799 0H32.8199L16.4099 28.42L10.9399 18.95Z" fill="#2FB4A3"/>
<path fill-rule="evenodd" clip-rule="evenodd" d="M27.3501 28.42L32.8201 18.95L43.7601 0L49.2301 9.47L38.2901 28.42H27.3501Z" fill="#2B54A4"/>
<path d="M69.4201 1.3291L66.9401 10.8591H64.1301L62.6101 4.5891L61.0401 10.8591H58.2301L55.8101 1.3291H58.2901L59.6601 8.2591L61.3601 1.3291H63.9101L65.5401 8.2591L66.9201 1.3291H69.4201Z" fill="white"/>
<path d="M72.3599 10.3195C71.6099 9.89945 71.0199 9.31945 70.5799 8.57945C70.1399 7.82945 69.9199 6.98945 69.9199 6.05945C69.9199 5.12945 70.1399 4.28945 70.5799 3.54945C71.0199 2.80945 71.6099 2.22945 72.3599 1.80945C73.1099 1.38945 73.9299 1.18945 74.8199 1.18945C75.7099 1.18945 76.5399 1.39945 77.2799 1.80945C78.0299 2.22945 78.6099 2.80945 79.0399 3.54945C79.4699 4.28945 79.6799 5.12945 79.6799 6.05945C79.6799 6.98945 79.4599 7.82945 79.0299 8.57945C78.5999 9.32945 78.0099 9.90945 77.2699 10.3195C76.5299 10.7295 75.7099 10.9395 74.8099 10.9395C73.9099 10.9395 73.0899 10.7295 72.3499 10.3195H72.3599ZM76.6499 8.06945C77.1099 7.55945 77.3399 6.88945 77.3399 6.05945C77.3399 5.22945 77.1099 4.54945 76.6499 4.03945C76.1899 3.53945 75.5799 3.28945 74.8199 3.28945C74.0599 3.28945 73.4399 3.53945 72.9799 4.03945C72.5199 4.53945 72.2899 5.20945 72.2899 6.05945C72.2899 6.90945 72.5199 7.56945 72.9799 8.07945C73.4399 8.57945 74.0499 8.82945 74.8199 8.82945C75.5899 8.82945 76.1899 8.57945 76.6499 8.06945Z" fill="white"/>
<path d="M86.11 10.8491L84.13 7.2491H83.57V10.8491H81.25V1.3291H85.14C85.89 1.3291 86.53 1.4591 87.06 1.7191C87.59 1.9791 87.98 2.3391 88.25 2.7991C88.51 3.2591 88.64 3.7691 88.64 4.3291C88.64 4.9591 88.46 5.5291 88.1 6.0291C87.74 6.5291 87.21 6.8791 86.52 7.0891L88.72 10.8591H86.1L86.11 10.8491ZM83.57 5.6091H85.01C85.43 5.6091 85.75 5.5091 85.97 5.2991C86.18 5.0891 86.29 4.7991 86.29 4.4191C86.29 4.0391 86.18 3.7691 85.97 3.5691C85.76 3.3591 85.44 3.2591 85.01 3.2591H83.57V5.6191V5.6091Z" fill="white"/>
<path d="M92.6999 9.0591H95.7399V10.8491H90.3799V1.3291H92.6999V9.0691V9.0591Z" fill="white"/>
<path d="M103.32 1.9291C104.07 2.3291 104.65 2.8891 105.06 3.6091C105.47 4.3291 105.68 5.1591 105.68 6.0991C105.68 7.0391 105.47 7.8591 105.06 8.5791C104.65 9.2991 104.06 9.8591 103.31 10.2591C102.55 10.6591 101.68 10.8591 100.68 10.8591H97.1099V1.3291H100.68C101.68 1.3291 102.56 1.5291 103.31 1.9291H103.32ZM102.59 8.1291C103.08 7.6491 103.32 6.9691 103.32 6.0891C103.32 5.2091 103.08 4.5291 102.59 4.0391C102.1 3.5491 101.42 3.3091 100.54 3.3091H99.4399V8.8491H100.54C101.42 8.8491 102.1 8.6091 102.59 8.1291Z" fill="white"/>
<path d="M62.2499 25.4496H58.6899L58.1199 27.1296H55.6899L59.1399 17.5996H61.8299L65.2799 27.1296H62.8199L62.2499 25.4496ZM61.6499 23.6596L60.4699 20.1696L59.2999 23.6596H61.6499Z" fill="white"/>
<path d="M71.4498 27.1394L69.4698 23.5394H68.9099V27.1394H66.5898V17.6094H70.4799C71.2299 17.6094 71.8698 17.7394 72.3998 17.9994C72.9298 18.2594 73.3198 18.6194 73.5898 19.0794C73.8498 19.5394 73.9799 20.0494 73.9799 20.6094C73.9799 21.2394 73.7998 21.8094 73.4398 22.3094C73.0798 22.8094 72.5498 23.1594 71.8598 23.3694L74.0598 27.1394H71.4398H71.4498ZM68.9099 21.8994H70.3498C70.7698 21.8994 71.0898 21.7994 71.3098 21.5894C71.5198 21.3794 71.6298 21.0894 71.6298 20.7094C71.6298 20.3294 71.5198 20.0594 71.3098 19.8594C71.0998 19.6494 70.7798 19.5494 70.3498 19.5494H68.9099V21.9094V21.8994Z" fill="white"/>
<path d="M82.56 17.6094V19.4694H80.04V27.1394H77.72V19.4694H75.2V17.6094H82.57H82.56Z" fill="white"/>
<path d="M92.7999 18.2094C93.5499 18.6094 94.1298 19.1694 94.5398 19.8894C94.9498 20.6094 95.1599 21.4394 95.1599 22.3794C95.1599 23.3194 94.9498 24.1394 94.5398 24.8594C94.1298 25.5794 93.5398 26.1394 92.7898 26.5394C92.0298 26.9394 91.1599 27.1394 90.1599 27.1394H86.5898V17.6094H90.1599C91.1599 17.6094 92.0398 17.8094 92.7898 18.2094H92.7999ZM92.0698 24.4094C92.5598 23.9294 92.7999 23.2494 92.7999 22.3694C92.7999 21.4894 92.5598 20.8094 92.0698 20.3194C91.5798 19.8294 90.8998 19.5894 90.0198 19.5894H88.9198V25.1294H90.0198C90.8998 25.1294 91.5798 24.8894 92.0698 24.4094Z" fill="white"/>
<path d="M99.06 19.4694V21.3994H102.17V23.1894H99.06V25.2794H102.57V27.1394H96.74V17.6094H102.57V19.4694H99.06Z" fill="white"/>
<path d="M110.19 27.1391L108.25 24.2191L106.54 27.1391H103.91L106.96 22.2991L103.84 17.6191H106.54L108.45 20.4991L110.13 17.6191H112.76L109.73 22.4191L112.88 27.1391H110.18H110.19Z" fill="white"/>
<path d="M121.2 22.1894C120.95 22.6494 120.56 23.0194 120.03 23.2994C119.5 23.5794 118.85 23.7194 118.08 23.7194H116.64V27.1394H114.32V17.6094H118.08C118.84 17.6094 119.48 17.7394 120.01 17.9994C120.53 18.2594 120.93 18.6194 121.19 19.0894C121.45 19.5494 121.58 20.0794 121.58 20.6794C121.58 21.2294 121.45 21.7394 121.2 22.1894ZM118.89 21.5594C119.11 21.3494 119.22 21.0594 119.22 20.6794C119.22 20.2994 119.11 20.0094 118.89 19.7994C118.67 19.5894 118.34 19.4894 117.9 19.4894H116.64V21.8794H117.9C118.34 21.8794 118.67 21.7794 118.89 21.5694V21.5594Z" fill="white"/>
<path d="M125.11 26.6095C124.36 26.1895 123.77 25.6095 123.33 24.8695C122.89 24.1195 122.67 23.2795 122.67 22.3495C122.67 21.4195 122.89 20.5795 123.33 19.8395C123.77 19.0995 124.36 18.5195 125.11 18.0995C125.86 17.6795 126.68 17.4795 127.57 17.4795C128.46 17.4795 129.29 17.6895 130.03 18.0995C130.78 18.5195 131.36 19.0995 131.79 19.8395C132.22 20.5795 132.43 21.4195 132.43 22.3495C132.43 23.2795 132.21 24.1195 131.78 24.8695C131.35 25.6195 130.76 26.1995 130.02 26.6095C129.28 27.0195 128.46 27.2295 127.56 27.2295C126.66 27.2295 125.84 27.0195 125.1 26.6095H125.11ZM129.4 24.3595C129.86 23.8495 130.09 23.1795 130.09 22.3495C130.09 21.5195 129.86 20.8395 129.4 20.3295C128.94 19.8295 128.33 19.5795 127.57 19.5795C126.81 19.5795 126.19 19.8295 125.73 20.3295C125.27 20.8295 125.04 21.4995 125.04 22.3495C125.04 23.1995 125.27 23.8595 125.73 24.3695C126.19 24.8695 126.8 25.1195 127.57 25.1195C128.34 25.1195 128.94 24.8695 129.4 24.3595Z" fill="white"/>
</svg>
