<svg width="28" height="28" viewBox="0 0 28 28" fill="none" xmlns="http://www.w3.org/2000/svg">
<path d="M14 28C21.732 28 28 21.732 28 14C28 6.26801 21.732 0 14 0C6.26801 0 0 6.26801 0 14C0 21.732 6.26801 28 14 28Z" fill="#F0F0F0"/>
<path d="M10.3235 19.2768C9.23473 19.6555 8.0039 19.0875 7.62519 17.975L5.3529 11.4658C4.97418 10.377 5.54226 9.14618 6.65473 8.76746C7.74354 8.38875 8.97434 8.95682 9.35306 10.0693L11.6254 16.5785C12.0041 17.691 11.4123 18.8981 10.3235 19.2768Z" fill="url(#paint0_linear_3731_11298)"/>
<path d="M17.5664 19.2768C18.6552 19.6555 19.886 19.0875 20.2647 17.975L22.537 11.4658C22.9157 10.377 22.3477 9.14618 21.2352 8.76746C20.1464 8.38875 18.9155 8.95682 18.5368 10.0693L16.2645 16.5785C15.8858 17.691 16.4776 18.8981 17.5664 19.2768Z" fill="url(#paint1_linear_3731_11298)"/>
<path d="M20.2648 17.975C19.8861 19.0638 18.6553 19.6555 17.5665 19.2768C17.2351 19.1585 16.9274 18.9691 16.7144 18.7088C15.8149 17.9276 15.2232 16.8625 13.945 16.5075C12.6668 16.8388 12.0988 17.904 11.1757 18.7088C10.939 18.9691 10.6549 19.1585 10.3236 19.2768C9.23475 19.6555 8.00392 19.0875 7.6252 17.975L6.08667 13.5961C6.34704 14.1168 6.72575 14.6376 7.17547 15.0163C8.35896 16.0577 9.85014 15.0399 10.7733 14.1405C10.7969 14.1168 10.8443 14.0695 10.8679 14.0458C11.7674 13.1464 12.5485 12.1522 13.945 12.0576C15.3415 12.1522 16.1226 13.1464 17.0221 14.0458C17.0457 14.0695 17.0931 14.1168 17.1168 14.1405C18.0399 15.0399 19.5311 16.0577 20.7145 15.0163C21.1643 14.6376 21.5193 14.1168 21.8034 13.5961L20.2648 17.975Z" fill="url(#paint2_linear_3731_11298)"/>
<defs>
<linearGradient id="paint0_linear_3731_11298" x1="8.47782" y1="18.068" x2="8.47782" y2="8.22211" gradientUnits="userSpaceOnUse">
<stop stop-color="#2E3192"/>
<stop offset="1" stop-color="#0983C9"/>
</linearGradient>
<linearGradient id="paint1_linear_3731_11298" x1="19.4032" y1="18.068" x2="19.4032" y2="8.22211" gradientUnits="userSpaceOnUse">
<stop stop-color="#2E3192"/>
<stop offset="1" stop-color="#0983C9"/>
</linearGradient>
<linearGradient id="paint2_linear_3731_11298" x1="18.4015" y1="17.7073" x2="5.89109" y2="12.4814" gradientUnits="userSpaceOnUse">
<stop stop-color="#09C9C9"/>
<stop offset="1" stop-color="#2E3192"/>
</linearGradient>
</defs>
</svg>
