<svg width="28" height="28" viewBox="0 0 28 28" fill="none" xmlns="http://www.w3.org/2000/svg">
<rect width="28" height="28" rx="5" fill="white"/>
<path d="M15.6416 6.914L15.2816 15.536H12.6716L12.3116 6.914H15.6416ZM14.0216 20.144C13.4816 20.144 13.0376 19.988 12.6896 19.676C12.3536 19.352 12.1856 18.956 12.1856 18.488C12.1856 18.008 12.3536 17.606 12.6896 17.282C13.0376 16.958 13.4816 16.796 14.0216 16.796C14.5496 16.796 14.9816 16.958 15.3176 17.282C15.6656 17.606 15.8396 18.008 15.8396 18.488C15.8396 18.956 15.6656 19.352 15.3176 19.676C14.9816 19.988 14.5496 20.144 14.0216 20.144Z" fill="#E61E66"/>
</svg>
