<svg width="114" height="97" viewBox="0 0 114 97" fill="none" xmlns="http://www.w3.org/2000/svg">
<path d="M80.9193 0H13.1255C6.05394 0 0.321289 5.70509 0.321289 12.7427V83.8438C0.321289 90.8813 6.05394 96.5864 13.1255 96.5864H80.9193C87.9909 96.5864 93.7235 90.8813 93.7235 83.8438V12.7427C93.7235 5.70509 87.9909 0 80.9193 0Z" fill="url(#paint0_linear_311_9643)"/>
<path d="M57.5925 23.3506H17.3427C15.5602 23.3506 14.1191 21.9229 14.1191 20.1664C14.1191 18.4057 15.5645 16.9822 17.3427 16.9822H57.5967C59.3792 16.9822 60.8203 18.4099 60.8203 20.1664C60.8203 21.9271 59.3749 23.3506 57.5967 23.3506H57.5925Z" fill="white"/>
<path d="M40.6773 37.1486H17.2798C15.5322 37.1486 14.1191 35.9589 14.1191 34.4951C14.1191 33.0279 15.5363 31.8417 17.2798 31.8417H40.6773C42.425 31.8417 43.838 33.0314 43.838 34.4951C43.838 35.9624 42.4209 37.1486 40.6773 37.1486Z" fill="white"/>
<circle cx="88" cy="67" r="26" fill="#FF006B"/>
<path fill-rule="evenodd" clip-rule="evenodd" d="M97.1771 78.8557C97.5467 79.2253 98.032 79.412 98.5173 79.412C99.0026 79.412 99.488 79.2253 99.8576 78.8557C100.597 78.1166 100.597 76.9146 99.8576 76.1754L90.8865 67.205L99.8576 58.2346C100.597 57.4955 100.597 56.2935 99.8576 55.5544C99.1184 54.8152 97.9163 54.8152 97.1771 55.5544L88.206 64.5248L79.2349 55.5544C78.4957 54.8152 77.2936 54.8152 76.5544 55.5544C75.8152 56.2935 75.8152 57.4955 76.5544 58.2346L85.5255 67.205L76.5544 76.1754C75.8152 76.9146 75.8152 78.1166 76.5544 78.8557C76.924 79.2253 77.4093 79.412 77.8946 79.412C78.38 79.412 78.8653 79.2253 79.2349 78.8557L88.206 69.8853L97.1771 78.8557Z" fill="white"/>
<defs>
<linearGradient id="paint0_linear_311_9643" x1="47.0224" y1="0" x2="47.0224" y2="96.5864" gradientUnits="userSpaceOnUse">
<stop stop-color="#CECECE"/>
<stop offset="1" stop-opacity="0.09"/>
</linearGradient>
</defs>
</svg>
