<svg width="114" height="97" viewBox="0 0 114 97" fill="none" xmlns="http://www.w3.org/2000/svg">
<path d="M80.9193 0H13.1255C6.05394 0 0.321289 5.70509 0.321289 12.7427V83.8438C0.321289 90.8813 6.05394 96.5864 13.1255 96.5864H80.9193C87.9909 96.5864 93.7235 90.8813 93.7235 83.8438V12.7427C93.7235 5.70509 87.9909 0 80.9193 0Z" fill="url(#paint0_linear_311_9620)"/>
<path d="M57.5925 23.3506H17.3427C15.5602 23.3506 14.1191 21.9229 14.1191 20.1664C14.1191 18.4057 15.5645 16.9822 17.3427 16.9822H57.5967C59.3792 16.9822 60.8203 18.4099 60.8203 20.1664C60.8203 21.9271 59.3749 23.3506 57.5967 23.3506H57.5925Z" fill="white"/>
<path d="M40.6773 37.1486H17.2798C15.5322 37.1486 14.1191 35.9589 14.1191 34.4951C14.1191 33.0279 15.5363 31.8417 17.2798 31.8417H40.6773C42.425 31.8417 43.838 33.0314 43.838 34.4951C43.838 35.9624 42.4209 37.1486 40.6773 37.1486Z" fill="white"/>
<circle cx="88" cy="67" r="26" fill="#1AD7B5"/>
<path d="M87.6118 76C87.112 76 86.6318 75.7908 86.2996 75.4239L76.4465 64.6132C75.7986 63.902 75.8644 62.8142 76.5879 62.1801C77.3147 61.5461 78.4263 61.6105 79.0742 62.3185L87.4606 71.5232L96.8105 58.7203C97.3762 57.9479 98.4746 57.7677 99.2639 58.3213C100.053 58.8748 100.237 59.9498 99.6717 60.7222L89.0425 75.2759C88.73 75.7007 88.24 75.9646 87.7039 75.9936C87.671 75.9936 87.6414 75.9936 87.6086 75.9936L87.6118 76Z" fill="white"/>
<defs>
<linearGradient id="paint0_linear_311_9620" x1="47.0224" y1="0" x2="47.0224" y2="96.5864" gradientUnits="userSpaceOnUse">
<stop stop-color="#CECECE"/>
<stop offset="1" stop-opacity="0.09"/>
</linearGradient>
</defs>
</svg>
