<svg width="212" height="212" viewBox="0 0 212 212" fill="none" xmlns="http://www.w3.org/2000/svg">
<g filter="url(#filter0_d_2125_9067)">
<circle cx="106" cy="106" r="50" fill="black"/>
</g>
<path d="M110.097 90.5528C101.707 85.7181 88.1047 85.7181 79.7145 90.5528C71.3243 95.3875 71.3243 103.222 79.7145 108.057C88.1047 112.892 101.712 112.892 110.097 108.057C118.493 103.222 118.493 95.3875 110.097 90.5528ZM107.594 106.617C100.59 110.652 89.2272 110.652 82.223 106.617C75.2187 102.582 75.2187 96.039 82.223 91.9986C89.2272 87.964 100.59 87.964 107.594 91.9986C114.598 96.0333 114.598 102.577 107.594 106.617Z" fill="#A59BA5"/>
<path d="M82.2172 87.0719C89.2215 83.0372 100.584 83.0372 107.588 87.0719C112.187 89.7235 113.768 93.4496 112.33 96.8442C111.58 95.0669 109.999 93.3867 107.588 91.998C100.584 87.9634 89.2215 87.9634 82.2172 91.998C79.8119 93.3867 78.2312 95.0669 77.4752 96.8442C76.0434 93.4496 77.6241 89.7235 82.2172 87.0719Z" fill="url(#paint0_linear_2125_9067)"/>
<path d="M107.63 88.609C100.626 84.5743 89.2691 84.5743 82.2649 88.609C75.2607 92.6436 75.2607 99.1871 82.2649 103.222C89.2691 107.256 100.626 107.256 107.63 103.222C114.64 99.1871 114.64 92.6436 107.63 88.609Z" fill="#686A6D"/>
<path d="M84.0695 89.33C85.5986 88.3585 88.1357 88.2499 89.7393 89.0843C91.3429 89.9186 91.4059 91.3816 89.8825 92.3531C88.3533 93.3247 85.8162 93.4332 84.2127 92.5989C82.6034 91.7645 82.5404 90.3015 84.0695 89.33Z" fill="#A59BA5"/>
<path d="M91.7602 87.5516C92.3902 87.1515 93.444 87.1058 94.1083 87.4487C94.7726 87.7916 94.7956 88.3973 94.1656 88.8031C93.5356 89.2031 92.4818 89.2489 91.8175 88.906C91.1531 88.5574 91.1245 87.9573 91.7602 87.5516Z" fill="#A59BA5"/>
<path d="M107.63 89.3412C100.626 85.3066 89.269 85.3066 82.2648 89.3412C78.9202 91.2671 77.1791 93.7587 77.0245 96.279C76.8584 93.513 78.5995 90.7185 82.2648 88.604C89.269 84.5751 100.626 84.5751 107.63 88.6097C111.295 90.7185 113.036 93.5187 112.87 96.2847C112.716 93.7587 110.975 91.2671 107.63 89.3412Z" fill="#CED3F8"/>
<path d="M110.097 85.626C101.706 80.7913 88.0988 80.7913 79.7087 85.626C71.3185 90.4607 71.3185 98.2957 79.7087 103.13C88.0988 107.965 101.706 107.965 110.091 103.13C118.492 98.3014 118.492 90.4607 110.097 85.626ZM107.594 101.69C100.59 105.725 89.2271 105.725 82.2228 101.69C75.2186 97.6557 75.2186 91.1065 82.2228 87.0719C89.2271 83.0372 100.59 83.0372 107.594 87.0719C114.598 91.1065 114.598 97.6557 107.594 101.69Z" fill="white"/>
<path d="M79.7133 103.136C88.1035 107.971 101.711 107.971 110.096 103.136C114.236 100.753 116.332 97.6328 116.384 94.5068V99.1872C116.441 102.393 114.345 105.616 110.096 108.062C101.705 112.897 88.1035 112.897 79.7133 108.062C75.4638 105.611 73.3677 102.393 73.425 99.1815V94.524C73.488 97.6443 75.5784 100.753 79.7133 103.136Z" fill="url(#paint1_linear_2125_9067)"/>
<path d="M110.097 103.793C110.624 103.49 111.122 103.17 111.58 102.845L115.194 104.925L112.061 106.731L108.447 104.651C109.02 104.382 109.57 104.096 110.097 103.793Z" fill="#F7F7FC"/>
<path d="M112.067 110.337L108.453 108.256V104.65L112.067 106.731V110.337Z" fill="#D0D4F6"/>
<path d="M110.709 109.319C110.709 107.456 112.02 105.193 113.636 104.262C114.477 103.776 115.233 103.753 115.766 104.102V104.096L136.595 116.097L132.615 123.315L111.786 111.314C111.127 111.068 110.709 110.371 110.709 109.319Z" fill="url(#paint2_linear_2125_9067)"/>
<path d="M113.395 112.234L114.415 112.823C113.974 112.485 113.705 111.88 113.705 111.034C113.705 109.171 115.016 106.908 116.631 105.976C117.473 105.49 118.229 105.468 118.762 105.811L117.381 105.016V105.022C116.849 104.673 116.093 104.702 115.251 105.182C113.636 106.113 112.324 108.376 112.324 110.239C112.319 111.297 112.737 111.994 113.395 112.234Z" fill="url(#paint3_linear_2125_9067)"/>
<path d="M132.131 123.035C132.795 123.492 133.597 123.755 134.468 123.755C136.747 123.755 138.597 121.909 138.597 119.635C138.597 118.075 137.732 116.72 136.449 116.017C135.928 115.76 135.229 115.817 134.468 116.263C132.853 117.195 131.541 119.458 131.541 121.321C131.541 122.132 131.787 122.732 132.205 123.075L132.131 123.035Z" fill="#7D8890"/>
<defs>
<filter id="filter0_d_2125_9067" x="0" y="0" width="212" height="212" filterUnits="userSpaceOnUse" color-interpolation-filters="sRGB">
<feFlood flood-opacity="0" result="BackgroundImageFix"/>
<feColorMatrix in="SourceAlpha" type="matrix" values="0 0 0 0 0 0 0 0 0 0 0 0 0 0 0 0 0 0 127 0" result="hardAlpha"/>
<feMorphology radius="27" operator="dilate" in="SourceAlpha" result="effect1_dropShadow_2125_9067"/>
<feOffset/>
<feGaussianBlur stdDeviation="14.5"/>
<feComposite in2="hardAlpha" operator="out"/>
<feColorMatrix type="matrix" values="0 0 0 0 1 0 0 0 0 1 0 0 0 0 1 0 0 0 0.15 0"/>
<feBlend mode="normal" in2="BackgroundImageFix" result="effect1_dropShadow_2125_9067"/>
<feBlend mode="normal" in="SourceGraphic" in2="effect1_dropShadow_2125_9067" result="shape"/>
</filter>
<linearGradient id="paint0_linear_2125_9067" x1="94.9043" y1="84.0459" x2="94.9043" y2="96.8442" gradientUnits="userSpaceOnUse">
<stop stop-color="#CECECE"/>
<stop offset="1" stop-opacity="0.09"/>
</linearGradient>
<linearGradient id="paint1_linear_2125_9067" x1="90.5832" y1="105.82" x2="92.9437" y2="98.1228" gradientUnits="userSpaceOnUse">
<stop stop-color="#A5A5A5"/>
<stop offset="1" stop-color="#858585"/>
</linearGradient>
<linearGradient id="paint2_linear_2125_9067" x1="123.652" y1="103.865" x2="123.652" y2="123.315" gradientUnits="userSpaceOnUse">
<stop stop-color="#CECECE"/>
<stop offset="1" stop-opacity="0.09"/>
</linearGradient>
<linearGradient id="paint3_linear_2125_9067" x1="112.863" y1="111.953" x2="116.987" y2="104.794" gradientUnits="userSpaceOnUse">
<stop stop-color="#C6CBE7"/>
<stop offset="0.258" stop-color="#CFD3EB"/>
<stop offset="0.6821" stop-color="#E8EAF5"/>
<stop offset="1" stop-color="white"/>
</linearGradient>
</defs>
</svg>
