<svg width="121" height="83" viewBox="0 0 121 83" fill="none" xmlns="http://www.w3.org/2000/svg">
<path d="M115.96 25.9096V72.7177C115.96 78.3971 111.353 82.9999 105.674 82.9999H27.2687C21.5894 82.9999 16.9824 78.3971 16.9824 72.7177V66.362H86.512C92.5419 66.362 97.4293 61.4704 97.4293 55.4405V15.6274H105.674C111.353 15.6274 115.96 20.2344 115.96 25.9138V25.9096Z" fill="url(#paint0_linear_984_7761)"/>
<path d="M86.5098 66.4857H11.0411C4.95343 66.4857 0 61.5323 0 55.4447V11.0411C0 4.95344 4.95343 0 11.0411 0H86.5098C92.5975 0 97.5509 4.95344 97.5509 11.0411V55.4405C97.5509 61.5282 92.5975 66.4816 86.5098 66.4816V66.4857ZM11.0411 0.247465C5.08954 0.247465 0.247466 5.08954 0.247466 11.0411V55.4405C0.247466 61.3921 5.08954 66.2342 11.0411 66.2342H86.5098C92.4614 66.2342 97.3034 61.3921 97.3034 55.4405V11.0411C97.3034 5.08954 92.4614 0.247465 86.5098 0.247465H11.0411Z" fill="url(#paint1_linear_984_7761)"/>
<path d="M86.5098 66.4857H11.0411C4.95343 66.4857 0 61.5323 0 55.4447V11.0411C0 4.95344 4.95343 0 11.0411 0H86.5098C92.5975 0 97.5509 4.95344 97.5509 11.0411V55.4405C97.5509 61.5282 92.5975 66.4816 86.5098 66.4816V66.4857ZM11.0411 0.247465C5.08954 0.247465 0.247466 5.08954 0.247466 11.0411V55.4405C0.247466 61.3921 5.08954 66.2342 11.0411 66.2342H86.5098C92.4614 66.2342 97.3034 61.3921 97.3034 55.4405V11.0411C97.3034 5.08954 92.4614 0.247465 86.5098 0.247465H11.0411Z" fill="url(#paint2_linear_984_7761)"/>
<path d="M86.5484 0.0205078H11.0756C5.04607 0.0205078 0.158203 4.90837 0.158203 10.9379V55.3414C0.158203 61.3709 5.04607 66.2588 11.0756 66.2588H86.5484C92.5779 66.2588 97.4658 61.3709 97.4658 55.3414V10.9379C97.4658 4.90837 92.5779 0.0205078 86.5484 0.0205078Z" fill="url(#paint3_linear_984_7761)"/>
<path d="M68.8843 51.7164H15.0771C13.3324 51.7164 11.9219 50.3017 11.9219 48.5612C11.9219 46.8166 13.3366 45.406 15.0771 45.406H68.8843C70.6289 45.406 72.0395 46.8207 72.0395 48.5612C72.0395 50.3058 70.6248 51.7164 68.8843 51.7164Z" fill="white"/>
<path d="M24.7963 21.7151H15.8917C13.8006 21.7151 12.1055 23.4102 12.1055 25.5013V29.1184C12.1055 31.2095 13.8006 32.9046 15.8917 32.9046H24.7963C26.8874 32.9046 28.5825 31.2095 28.5825 29.1184V25.5013C28.5825 23.4102 26.8874 21.7151 24.7963 21.7151Z" fill="white"/>
<circle cx="99.6057" cy="54.2361" r="20.8283" fill="#FF006B"/>
<path fill-rule="evenodd" clip-rule="evenodd" d="M106.959 63.7337C107.255 64.0297 107.644 64.1792 108.033 64.1792C108.421 64.1792 108.81 64.0297 109.106 63.7337C109.698 63.1415 109.698 62.1786 109.106 61.5865L101.92 54.4004L109.106 47.2143C109.698 46.6222 109.698 45.6592 109.106 45.0671C108.514 44.475 107.551 44.475 106.959 45.0671L99.7722 52.2532L92.5856 45.0671C91.9934 44.475 91.0304 44.475 90.4383 45.0671C89.8461 45.6592 89.8461 46.6222 90.4383 47.2143L97.6249 54.4004L90.4383 61.5865C89.8461 62.1786 89.8461 63.1415 90.4383 63.7337C90.7343 64.0297 91.1231 64.1792 91.5119 64.1792C91.9007 64.1792 92.2895 64.0297 92.5856 63.7337L99.7722 56.5475L106.959 63.7337Z" fill="white"/>
<defs>
<linearGradient id="paint0_linear_984_7761" x1="21.389" y1="29.1019" x2="113.827" y2="33.3331" gradientUnits="userSpaceOnUse">
<stop stop-color="#E2007F"/>
<stop offset="1" stop-color="#1E4CED"/>
</linearGradient>
<linearGradient id="paint1_linear_984_7761" x1="0" y1="33.2429" x2="97.5509" y2="33.2429" gradientUnits="userSpaceOnUse">
<stop stop-color="#C5FFFF"/>
<stop offset="1" stop-color="#B3D6D6"/>
</linearGradient>
<linearGradient id="paint2_linear_984_7761" x1="0" y1="33.2429" x2="97.5509" y2="33.2429" gradientUnits="userSpaceOnUse">
<stop stop-color="#C5FFFF"/>
<stop offset="1" stop-color="#B3D6D6"/>
</linearGradient>
<linearGradient id="paint3_linear_984_7761" x1="48.812" y1="0.0205078" x2="48.812" y2="66.2588" gradientUnits="userSpaceOnUse">
<stop stop-color="#CECECE"/>
<stop offset="1" stop-opacity="0.09"/>
</linearGradient>
</defs>
</svg>
