<svg width="21" height="21" viewBox="0 0 21 21" fill="none" xmlns="http://www.w3.org/2000/svg">
<circle cx="10.0464" cy="10.0464" r="10.0464" fill="#7D8890"/>
<path d="M5.67271 5.67284C5.73369 5.6117 5.80613 5.5632 5.88588 5.53011C5.96563 5.49701 6.05113 5.47998 6.13748 5.47998C6.22382 5.47998 6.30932 5.49701 6.38907 5.53011C6.46882 5.5632 6.54126 5.6117 6.60224 5.67284L10.0761 9.14805L13.55 5.67284C13.6111 5.6118 13.6835 5.56339 13.7633 5.53036C13.843 5.49733 13.9285 5.48032 14.0148 5.48032C14.1011 5.48032 14.1866 5.49733 14.2663 5.53036C14.3461 5.56339 14.4185 5.6118 14.4796 5.67284C14.5406 5.73387 14.589 5.80633 14.622 5.88607C14.6551 5.96581 14.6721 6.05128 14.6721 6.1376C14.6721 6.22391 14.6551 6.30938 14.622 6.38913C14.589 6.46887 14.5406 6.54133 14.4796 6.60236L11.0044 10.0763L14.4796 13.5502C14.5406 13.6112 14.589 13.6837 14.622 13.7634C14.6551 13.8431 14.6721 13.9286 14.6721 14.0149C14.6721 14.1012 14.6551 14.1867 14.622 14.2665C14.589 14.3462 14.5406 14.4187 14.4796 14.4797C14.4185 14.5407 14.3461 14.5891 14.2663 14.6222C14.1866 14.6552 14.1011 14.6722 14.0148 14.6722C13.9285 14.6722 13.843 14.6552 13.7633 14.6222C13.6835 14.5891 13.6111 14.5407 13.55 14.4797L10.0761 11.0045L6.60224 14.4797C6.5412 14.5407 6.46875 14.5891 6.389 14.6222C6.30926 14.6552 6.22379 14.6722 6.13748 14.6722C6.05116 14.6722 5.96569 14.6552 5.88595 14.6222C5.8062 14.5891 5.73375 14.5407 5.67271 14.4797C5.61168 14.4187 5.56327 14.3462 5.53023 14.2665C5.4972 14.1867 5.4802 14.1012 5.4802 14.0149C5.4802 13.9286 5.4972 13.8431 5.53023 13.7634C5.56327 13.6837 5.61168 13.6112 5.67271 13.5502L9.14793 10.0763L5.67271 6.60236C5.61158 6.54138 5.56308 6.46894 5.52999 6.38919C5.49689 6.30944 5.47986 6.22394 5.47986 6.1376C5.47986 6.05125 5.49689 5.96576 5.52999 5.886C5.56308 5.80625 5.61158 5.73381 5.67271 5.67284Z" fill="white"/>
</svg>
