<svg width="22" height="19" viewBox="0 0 22 19" fill="none" xmlns="http://www.w3.org/2000/svg">
<path fill-rule="evenodd" clip-rule="evenodd" d="M8.20688 14.2222H18.8142C19.1772 14.2222 19.4726 14.5268 19.4726 14.8891C19.4726 15.2515 19.1772 15.5559 18.8142 15.5559H7.70408C7.36707 15.5559 7.13387 15.325 7.05087 15.0099L3.43203 1.33329H0.658406C0.295403 1.33329 0 1.03414 0 0.666745C0 0.299347 0.295403 0 0.658406 0H3.95044C4.29784 0 4.58305 0.278283 4.60885 0.62482L5.10645 2.49908C10.5241 2.49908 15.9418 2.49381 21.3596 2.49908C21.7692 2.50434 22.0802 2.9086 21.9816 3.3234L19.965 11.6867C19.8924 11.986 19.6228 12.196 19.317 12.196H7.66788L8.20708 14.2224L8.20688 14.2222ZM17.3056 16.2644C18.047 16.2644 18.6536 16.8736 18.6536 17.6297C18.6536 18.3857 18.047 19 17.3056 19C16.5642 19 15.9524 18.3855 15.9524 17.6297C15.9524 16.8738 16.559 16.2644 17.3056 16.2644ZM8.97429 16.2644C9.7209 16.2644 10.3275 16.8736 10.3275 17.6297C10.3275 18.3857 9.7209 19 8.97429 19C8.22768 19 7.62628 18.3855 7.62628 17.6297C7.62628 16.8738 8.23288 16.2644 8.97429 16.2644Z" fill="#7D8890"/>
</svg>
