<svg width="20" height="20" viewBox="0 0 20 20" fill="none" xmlns="http://www.w3.org/2000/svg">
<path d="M10 20C8.02219 20 6.08879 19.4135 4.4443 18.3147C2.79981 17.2159 1.51809 15.6541 0.761209 13.8268C0.00433284 11.9996 -0.193701 9.98891 0.192152 8.0491C0.578004 6.10929 1.53041 4.32746 2.92894 2.92894C4.32746 1.53041 6.10929 0.578004 8.0491 0.192152C9.98891 -0.193701 11.9996 0.00433284 13.8268 0.761209C15.6541 1.51809 17.2159 2.79981 18.3147 4.4443C19.4135 6.08879 20 8.02219 20 10C20 12.6522 18.9464 15.1957 17.0711 17.0711C15.1957 18.9464 12.6522 20 10 20V20ZM10 2C8.41775 2 6.87104 2.4692 5.55544 3.34825C4.23985 4.2273 3.21447 5.47673 2.60897 6.93854C2.00347 8.40035 1.84504 10.0089 2.15372 11.5607C2.4624 13.1126 3.22433 14.538 4.34315 15.6569C5.46197 16.7757 6.88743 17.5376 8.43928 17.8463C9.99113 18.155 11.5997 17.9965 13.0615 17.391C14.5233 16.7855 15.7727 15.7602 16.6518 14.4446C17.5308 13.129 18 11.5823 18 10C18 7.87827 17.1572 5.84344 15.6569 4.34315C14.1566 2.84286 12.1217 2 10 2V2Z" fill="#219653"/>
<path d="M8.91006 13.5499C8.77775 13.5494 8.64687 13.5226 8.52499 13.4711C8.40312 13.4196 8.29267 13.3444 8.20006 13.2499L5.29006 10.3399C5.10381 10.1525 4.99927 9.89909 4.99927 9.6349C4.99927 9.37071 5.10381 9.11726 5.29006 8.9299C5.38302 8.83617 5.49362 8.76178 5.61548 8.71101C5.73734 8.66024 5.86805 8.6341 6.00006 8.6341C6.13207 8.6341 6.26278 8.66024 6.38464 8.71101C6.5065 8.76178 6.6171 8.83617 6.71006 8.9299L8.91006 11.1299L13.2901 6.7499C13.383 6.65617 13.4936 6.58178 13.6155 6.53101C13.7373 6.48024 13.868 6.4541 14.0001 6.4541C14.1321 6.4541 14.2628 6.48024 14.3846 6.53101C14.5065 6.58178 14.6171 6.65617 14.7101 6.7499C14.8963 6.93726 15.0009 7.19071 15.0009 7.4549C15.0009 7.71909 14.8963 7.97254 14.7101 8.1599L9.62006 13.2499C9.52745 13.3444 9.417 13.4196 9.29513 13.4711C9.17325 13.5226 9.04237 13.5494 8.91006 13.5499Z" fill="#219653"/>
</svg>
