<svg id="Layer_1" data-name="Layer 1" xmlns="http://www.w3.org/2000/svg" viewBox="0 0 20 15.80574">
  <g>
    <polygon class="cls-1" points="10.08 3.854 10.08 3.854 10.083 3.854 10.08 3.854"/>
    <path class="cls-1" d="M19.88869,7.62155a14.23142,14.23142,0,0,0-3.2158-4.73036c-.284-.274-.58745-.53921-.90767-.79177l.83858-1.04823L15.60844.25493,14.71777,1.3683A8.92559,8.92559,0,0,0,10,0,9.57018,9.57018,0,0,0,3.32708,2.89119,14.23127,14.23127,0,0,0,.11128,7.62155L0,7.90287l.11128.28135.71115-.28135h0l-.71118.28135a14.23156,14.23156,0,0,0,3.2158,4.73036A11.857,11.857,0,0,0,4.61646,13.995l-.839,1.00464.99533.79626.92758-1.11537A8.841,8.841,0,0,0,10,15.80574a9.57031,9.57031,0,0,0,6.67294-2.89116,14.23172,14.23172,0,0,0,3.2158-4.73036l-.71118-.28135h0l.71118.28135L20,7.90287ZM4.3891,11.81379A12.81877,12.81877,0,0,1,1.65428,7.90287,12.81833,12.81833,0,0,1,4.3891,3.992,8.04641,8.04641,0,0,1,10,1.52959a7.373,7.373,0,0,1,3.75361,1.044L12.2259,4.48314A4.08209,4.08209,0,0,0,10.07984,3.854L10.049,3.85381A4.09935,4.09935,0,0,0,5.94928,7.92425V7.92294l-.00013.02981a4.089,4.089,0,0,0,1.19058,2.88812L5.573,12.79928A10.28139,10.28139,0,0,1,4.3891,11.81379ZM12.62349,7.955l-.00007.01908V7.973a2.56932,2.56932,0,0,1-2.57022,2.55134l-.0206-.00006h.0013a2.54983,2.54983,0,0,1-.87358-.1687l3.043-3.80375A2.55277,2.55277,0,0,1,12.62349,7.955ZM7.47874,7.95275,7.4788,7.936l0-.00131A2.56924,2.56924,0,0,1,10.049,5.3834l.01634.00006H10.068l.00034,0a2.54365,2.54365,0,0,1,1.18731.31248L8.11209,9.6254A2.548,2.548,0,0,1,7.47874,7.95275Zm8.1321,3.861A8.04654,8.04654,0,0,1,10,14.27615a7.27489,7.27489,0,0,1-3.32347-.81577l1.49358-1.867a4.08458,4.08458,0,0,0,1.85264.46044H10.024l.02919.0001A4.09943,4.09943,0,0,0,14.153,7.9835V7.98244l.00009-.02748a4.08312,4.08312,0,0,0-.96327-2.63629l1.61647-2.02059a10.60024,10.60024,0,0,1,.80457.6939,12.81814,12.81814,0,0,1,2.73485,3.91089A12.81858,12.81858,0,0,1,15.61084,11.81379Z"/>
  </g>
</svg>
