<svg width="139" height="112" viewBox="0 0 139 112" fill="none" xmlns="http://www.w3.org/2000/svg">
<path d="M107.785 21.2057L121.163 20.7791C122.074 20.7501 122.739 21.6306 122.463 22.4987L118.063 36.2924C117.786 37.1605 118.451 38.041 119.362 38.012L121.449 37.9454C122.61 37.9084 123.249 39.2816 122.472 40.1461L107.442 56.8705C106.538 57.8756 104.887 57.034 105.17 55.7124L108.43 40.4853C108.609 39.6473 107.955 38.8633 107.098 38.8907L104.16 38.9843C103.287 39.0122 102.628 38.1998 102.837 37.3518L106.546 22.2105C106.687 21.6357 107.193 21.2246 107.785 21.2057Z" fill="url(#paint0_linear_3047_11040)"/>
<path d="M73.6791 12.3792L70.0658 13.3474C67.2139 14.1116 65.3777 16.7759 65.5489 19.618L32.594 42.3669L14.2664 47.2778C9.23697 48.6254 6.25466 53.8033 7.6051 58.8432L10.7124 70.4399C12.0628 75.4798 17.2346 78.4729 22.264 77.1252L40.5919 72.2143L79.9273 73.7601L80.0658 74.2767C80.9411 77.5434 84.2932 79.4832 87.5528 78.6098L91.1661 77.6416C94.426 76.7681 96.3588 73.4119 95.4836 70.1455L81.1662 16.7123C80.2909 13.4459 76.9388 11.5058 73.6791 12.3792Z" fill="url(#paint1_linear_3047_11040)"/>
<path d="M52.0083 103.324L41.4544 106.152C38.2228 107.018 34.3282 105.189 32.7555 102.067L17.3311 74.1703C15.7584 71.0485 17.1031 67.8157 20.3347 66.9498L30.8886 64.1219C34.1202 63.256 38.0148 65.0849 39.5874 68.2067L55.0118 96.1032C56.5845 99.2253 55.2396 102.458 52.0083 103.324Z" fill="url(#paint2_linear_3047_11040)"/>
<path d="M52.1766 103.433L41.6227 106.261C38.3476 107.138 34.3871 105.28 32.7941 102.117L17.3717 74.2248C16.5708 72.6354 16.48 70.9804 17.1136 69.5609C17.7115 68.2224 18.8944 67.2561 20.4444 66.8408L30.9985 64.0128C34.2734 63.1353 38.2338 64.994 39.8268 68.1562L55.2496 96.0489C56.0504 97.6384 56.1412 99.2934 55.5077 100.713C54.9094 102.051 53.7265 103.017 52.1766 103.433ZM20.5027 67.0586C19.0192 67.4561 17.8886 68.3776 17.3192 69.6531C16.7136 71.0095 16.803 72.5958 17.5705 74.1198L32.9933 102.012C34.5428 105.088 38.3868 106.895 41.5644 106.043L52.1183 103.215C53.6017 102.818 54.7324 101.896 55.3017 100.621C55.9074 99.2644 55.818 97.678 55.0505 96.1541L39.6277 68.2613C38.0782 65.1857 34.2341 63.3792 31.0566 64.2307L20.5027 67.0586Z" fill="#DEDEDE"/>
<defs>
<linearGradient id="paint0_linear_3047_11040" x1="121.706" y1="64.3698" x2="97.197" y2="63.9988" gradientUnits="userSpaceOnUse">
<stop stop-color="#FF006B"/>
<stop offset="1" stop-color="#1E4CED"/>
</linearGradient>
<linearGradient id="paint1_linear_3047_11040" x1="39.9983" y1="21.404" x2="57.4853" y2="86.6663" gradientUnits="userSpaceOnUse">
<stop stop-color="#CECECE"/>
<stop offset="1" stop-opacity="0.09"/>
</linearGradient>
<linearGradient id="paint2_linear_3047_11040" x1="30.5638" y1="64.2089" x2="41.7791" y2="106.065" gradientUnits="userSpaceOnUse">
<stop stop-color="#CECECE"/>
<stop offset="1" stop-opacity="0.09"/>
</linearGradient>
</defs>
</svg>
