<svg width="13" height="13" viewBox="0 0 13 13" fill="none" xmlns="http://www.w3.org/2000/svg">
<path d="M13 4.30943V9.83888C13 11.5847 11.581 13 9.83073 13H4.32097C3.58574 13 2.97736 12.4581 2.87573 11.753C2.94429 11.7629 3.01448 11.768 3.08555 11.768H9.15304C10.5954 11.768 11.7647 10.6019 11.7647 9.1631V3.07742C11.7647 3.00643 11.7596 2.93654 11.7496 2.86816C12.4567 2.96952 13 3.57617 13 4.30954V4.30943Z" fill="#D1D1D1"/>
<path d="M8.67904 0H1.4603C0.653798 0 0 0.652051 0 1.4564V8.69058C0 9.49493 0.653798 10.147 1.4603 10.147H8.67904C9.48554 10.147 10.1393 9.49493 10.1393 8.69058V1.4564C10.1393 0.652051 9.48554 0 8.67904 0Z" fill="#D1D1D1"/>
</svg>
