<svg width="21" height="18" viewBox="0 0 21 18" fill="none" xmlns="http://www.w3.org/2000/svg">
<path d="M19.7446 13.3207L12.7 1.45161C12.1664 0.53368 11.2271 0 10.1811 0C9.13506 0 8.17443 0.53368 7.6621 1.45161L0.617525 13.3207C0.0198035 14.2386 0.0198035 15.3486 0.553484 16.2666C1.08716 17.1845 2.02644 17.7395 3.11515 17.7395H17.183C18.2717 17.7395 19.2109 17.1845 19.7446 16.2666C20.2996 15.3486 20.2996 14.2386 19.7446 13.3207ZM18.0582 15.3273C17.9515 15.4981 17.738 15.8183 17.2043 15.8183H3.11515C2.58147 15.8183 2.368 15.4554 2.26126 15.3273C2.15452 15.1565 2.00509 14.7723 2.26126 14.3453L9.30584 2.47628C9.562 2.04933 9.98895 1.98529 10.1597 1.98529C10.3305 1.98529 10.7574 2.02798 11.0136 2.47628L18.0582 14.3453C18.3357 14.7723 18.1222 15.1565 18.0582 15.3273Z" fill="#EB5757"/>
<path d="M10.1597 4.69629C9.60468 4.69629 9.17773 5.12323 9.17773 5.67826V10.9297C9.17773 11.4847 9.60468 11.9116 10.1597 11.9116C10.7147 11.9116 11.1417 11.4847 11.1417 10.9297V5.67826C11.1417 5.16593 10.7147 4.69629 10.1597 4.69629Z" fill="#EB5757"/>
<path d="M10.1597 12.4453C9.60468 12.4453 9.17773 12.8723 9.17773 13.4273V13.7475C9.17773 14.3025 9.60468 14.7295 10.1597 14.7295C10.7147 14.7295 11.1417 14.3025 11.1417 13.7475V13.4273C11.1417 12.8723 10.7147 12.4453 10.1597 12.4453Z" fill="#EB5757"/>
</svg>
