<svg width="60" height="56" viewBox="0 0 60 56" fill="none" xmlns="http://www.w3.org/2000/svg">
<path d="M52.4142 28.8348L22.1851 48.9165C20.1094 50.2736 17.3267 49.6908 15.9698 47.6147L3.28452 28.1987C1.9277 26.1226 2.51032 23.3393 4.58603 21.9822L34.7361 1.94789C35.8559 1.21502 37.2444 1.02144 38.5222 1.41849L53.455 6.04878C55.5683 6.7046 56.8895 8.80245 56.5676 10.9931L54.3991 25.7275C54.2114 26.9996 53.4886 28.1296 52.4122 28.8328L52.4142 28.8348Z" fill="url(#paint0_linear_813_5953)"/>
<path d="M56.7769 28.9612L36.5669 51.8875C35.058 53.5981 32.4491 53.7621 30.7387 52.2549L14.7433 38.1487C13.033 36.6395 12.8691 34.03 14.376 32.3194L34.5287 9.45633C35.3424 8.53383 36.5254 8.02023 37.7558 8.05974L52.1258 8.51013C54.16 8.57334 55.8447 10.1102 56.0955 12.131L57.7782 25.7236C57.9224 26.8969 57.559 28.0762 56.7769 28.9632V28.9612Z" fill="white" fill-opacity="0.7"/>
<path d="M33.4642 53.3769C32.4372 53.3769 31.4576 53.0075 30.6794 52.322L14.684 38.2159C12.9381 36.677 12.7703 34.0044 14.3088 32.2601L34.4615 9.39707C35.295 8.45087 36.4977 7.93134 37.7578 7.97085L52.1278 8.42124C54.2212 8.48642 55.9256 10.043 56.1824 12.1211L57.8651 25.7137C58.0132 26.9108 57.6399 28.1177 56.842 29.0225L36.632 51.9487C35.8875 52.7942 34.8565 53.2979 33.7327 53.369C33.6419 53.3749 33.551 53.3769 33.4622 53.3769H33.4642ZM37.6254 8.14666C36.4661 8.14666 35.368 8.6405 34.5958 9.5156L14.4431 32.3786C12.9697 34.0498 13.1317 36.6079 14.8025 38.0815L30.7979 52.1877C32.4688 53.6614 35.0264 53.5013 36.4997 51.8282L56.7097 28.902C57.474 28.0348 57.8315 26.8811 57.6893 25.7335L56.0066 12.1409C55.7597 10.1517 54.1264 8.66223 52.1238 8.59902L37.7538 8.14863C37.7104 8.14863 37.6689 8.14863 37.6254 8.14863V8.14666Z" fill="white" fill-opacity="0.7"/>
<path d="M53.031 16.8678C54.0252 15.2751 53.5403 13.178 51.948 12.1836C50.3557 11.1892 48.259 11.6741 47.2648 13.2667C46.2706 14.8593 46.7554 16.9565 48.3477 17.9509C49.94 18.9453 52.0368 18.4604 53.031 16.8678Z" fill="white"/>
<defs>
<linearGradient id="paint0_linear_813_5953" x1="4.95918" y1="10.9028" x2="55.4952" y2="12.6604" gradientUnits="userSpaceOnUse">
<stop stop-color="#E2007F"/>
<stop offset="1" stop-color="#1E4CED"/>
</linearGradient>
</defs>
</svg>
