<svg width="20" height="15" viewBox="0 0 20 15" fill="none" xmlns="http://www.w3.org/2000/svg">
<path d="M19.8263 8.37924C19.4497 5.83071 18.4793 3.51234 17.0362 1.37754C16.9799 1.28955 16.8986 1.21988 16.8025 1.1772C15.587 0.639767 14.3101 0.249657 12.9997 0.0153936C12.8218 -0.0164022 12.8102 -0.00976996 12.7197 0.15194C12.5861 0.391091 12.4709 0.639605 12.3563 0.888119C12.2828 1.04749 12.2806 1.04749 12.1018 1.02467C11.5918 0.961659 11.081 0.911135 10.567 0.895725C9.67792 0.865933 8.78785 0.908931 7.90595 1.02428C7.72278 1.04885 7.72377 1.04612 7.6384 0.875242C7.51886 0.636286 7.40128 0.396747 7.27522 0.160717C7.18234 -0.0148426 7.17049 -0.0179624 6.98198 0.0157841C5.67801 0.249877 4.40764 0.639346 3.19874 1.17565C3.09595 1.21944 3.00896 1.29287 2.94918 1.38632C2.72727 1.72476 2.5109 2.06671 2.30658 2.41587C0.513766 5.48134 -0.244026 8.77503 0.0697617 12.3057C0.0826056 12.4491 0.133981 12.5427 0.25175 12.6262C1.69145 13.6519 3.28742 14.4447 4.97971 14.9748C5.08009 15.0064 5.1615 15.0205 5.23658 14.9149C5.57829 14.4445 5.88605 13.9509 6.15759 13.4379C6.22537 13.3088 6.21431 13.2885 6.08626 13.2292C6.04457 13.2097 6.0009 13.195 5.95822 13.1779C5.53685 13.0089 5.12691 12.8135 4.73093 12.5927C4.54281 12.4875 4.54143 12.4784 4.71334 12.3469C4.97971 12.1432 4.90363 12.154 5.19687 12.2823C6.71835 12.9525 8.36686 13.2954 10.0329 13.2883C11.6943 13.2842 13.2903 12.9504 14.8071 12.2757C14.9956 12.192 15.1274 12.1957 15.2813 12.3342C15.4578 12.4938 15.4671 12.4889 15.2572 12.6061C14.832 12.8415 14.3913 13.0485 13.9381 13.2259C13.7833 13.2873 13.7746 13.3039 13.8442 13.4377C14.1154 13.9509 14.4238 14.4442 14.767 14.9136C14.8334 15.0051 14.9053 15.017 15.0041 14.982C15.2017 14.9126 15.4046 14.8525 15.6032 14.7829C17.0696 14.2663 18.4552 13.5492 19.7196 12.6524C19.8611 12.5527 19.9307 12.4413 19.9409 12.27C19.9704 11.7824 20.0051 11.2968 20.0002 10.833C20.0064 10.0119 19.9483 9.19151 19.8263 8.37924ZM8.02016 9.56622C7.35366 10.4079 6.19514 10.4616 5.44861 9.68931C4.676 8.88954 4.70623 7.50574 5.51303 6.73854C6.18625 6.09814 7.19064 6.10165 7.8611 6.74654C8.25471 7.12536 8.4699 7.6456 8.47227 8.43347C8.47346 8.72061 8.33119 9.17238 8.02016 9.56622ZM14.4619 9.77826C13.8742 10.3336 12.9969 10.3898 12.343 9.9111C11.9034 9.58924 11.6451 9.15034 11.5623 8.6223C11.4491 7.89841 11.625 7.25176 12.1664 6.73015C12.7691 6.14847 13.6879 6.10087 14.3489 6.61701C14.8695 7.02392 15.098 7.57284 15.1126 8.20115C15.1053 8.82341 14.9116 9.3536 14.4619 9.77826Z" fill="#FEFEFE"/>
</svg>
