<svg width="65" height="48" viewBox="0 0 65 48" fill="none" xmlns="http://www.w3.org/2000/svg">
<path d="M60.5555 0H4.4445C1.99403 0 0 2.02517 0 4.51221V43.4844C0 45.9731 1.99403 47.9983 4.4445 47.9983H60.5555C63.006 47.9983 65 45.9731 65 43.4844V4.51221C65 2.02347 63.006 0 60.5555 0ZM4.4445 2.84065H60.5555C61.4634 2.84065 62.203 3.59014 62.203 4.5139V28.0664L49.4659 15.2793C48.8845 14.6956 47.95 14.6956 47.3686 15.2793L30.9499 31.7631L21.6644 22.4393C21.0831 21.8556 20.1485 21.8556 19.5671 22.4393L2.79697 39.275V4.51221C2.79697 3.59014 3.53661 2.83896 4.4445 2.83896V2.84065Z" fill="#D9D9D9"/>
<path d="M12.6774 16.4494C14.8976 16.2259 16.5191 14.2168 16.299 11.962C16.079 9.70713 14.1008 8.06036 11.8806 8.28384C9.66041 8.50731 8.03897 10.5164 8.25901 12.7713C8.47905 15.0261 10.4572 16.6729 12.6774 16.4494Z" fill="#7D8890"/>
</svg>
