<svg width="57" height="52" viewBox="0 0 57 52" fill="none" xmlns="http://www.w3.org/2000/svg">
<path d="M39.6425 1.49512H6.29782C2.81963 1.49512 0 4.39012 0 7.96128V44.0409C0 47.6121 2.81963 50.5071 6.29782 50.5071H39.6425C43.1207 50.5071 45.9404 47.6121 45.9404 44.0409V7.96128C45.9404 4.39012 43.1207 1.49512 39.6425 1.49512Z" fill="url(#paint0_linear_263_7755)"/>
<path d="M32.6197 39.8795L24.9017 41.7909C23.9469 42.0267 23.086 41.1449 23.3157 40.1646L25.1713 32.2321C25.2692 31.8117 25.4789 31.4262 25.7765 31.1206L48.2354 8.06553C49.1702 7.10576 50.6842 7.10576 51.617 8.06553L56.1591 12.729C57.0939 13.6888 57.0939 15.2433 56.1591 16.201L33.7003 39.2602C33.4026 39.5658 33.0291 39.7811 32.6197 39.8816V39.8795Z" fill="white" fill-opacity="0.8"/>
<path d="M24.5901 41.9755C24.2106 41.9755 23.843 41.8217 23.5654 41.5366C23.2039 41.1654 23.06 40.6404 23.1779 40.1298L25.0335 32.1973C25.1374 31.7502 25.3611 31.3421 25.6767 31.0181L48.1355 7.96099C49.1242 6.9479 50.7301 6.9479 51.7168 7.96099L56.2589 12.6245C57.2457 13.6376 57.2457 15.2885 56.2589 16.3016L33.8001 39.3607C33.4845 39.6848 33.087 39.9124 32.6536 40.0211L24.9356 41.9324C24.8198 41.9611 24.7039 41.9755 24.5901 41.9755ZM49.9252 7.49136C49.3499 7.49136 48.7727 7.71695 48.3332 8.16607L25.8764 31.2232C25.5968 31.5103 25.401 31.8712 25.3071 32.265L23.4515 40.1975C23.3557 40.6076 23.4715 41.0321 23.7631 41.3295C24.0548 41.6289 24.4662 41.7479 24.8677 41.6474L32.5857 39.736C32.9692 39.6417 33.3187 39.4387 33.5984 39.1536L56.0572 16.0945C56.9341 15.1942 56.9341 13.7278 56.0572 12.8275L51.5151 8.16402C51.0757 7.71285 50.5004 7.48931 49.9232 7.48931L49.9252 7.49136Z" fill="white"/>
<path d="M26.6035 12.5322H7.52423C6.67933 12.5322 5.99622 11.8288 5.99622 10.9634C5.99622 10.0959 6.68133 9.39453 7.52423 9.39453H26.6055C27.4504 9.39453 28.1335 10.098 28.1335 10.9634C28.1335 11.8309 27.4484 12.5322 26.6055 12.5322H26.6035Z" fill="#D1D1D1"/>
<path d="M18.8355 19.3985H7.52423C6.67933 19.3985 5.99622 18.695 5.99622 17.8296C5.99622 16.9621 6.68133 16.2607 7.52423 16.2607H18.8355C19.6804 16.2607 20.3636 16.9642 20.3636 17.8296C20.3636 18.6971 19.6785 19.3985 18.8355 19.3985Z" fill="#D1D1D1"/>
<defs>
<linearGradient id="paint0_linear_263_7755" x1="2.04529" y1="11.2975" x2="45.0035" y2="12.5521" gradientUnits="userSpaceOnUse">
<stop stop-color="#E2007F"/>
<stop offset="1" stop-color="#1E4CED"/>
</linearGradient>
</defs>
</svg>
