<svg width="12" height="24" viewBox="0 0 12 24" fill="none" xmlns="http://www.w3.org/2000/svg">
<path d="M3.50162 22.9876C3.57948 22.9876 3.53641 22.9332 3.54138 22.9008C3.54634 22.8685 3.54138 22.8055 3.54138 22.7578C3.54138 19.5985 3.54138 16.4387 3.54138 13.2783C3.54138 13.2324 3.54138 13.1847 3.54138 13.137V12.977C3.4834 12.9038 3.40554 12.9447 3.33928 12.9447C2.294 12.9447 1.24872 12.9447 0.203437 12.9447C0.0510347 12.9447 0.00465958 12.9089 0.00465958 12.7455C0.00465958 11.4808 0.00465958 10.2161 0.00465958 8.95135C0.00465958 8.88837 -0.0235016 8.81347 0.0460732 8.76411H3.50494C3.58776 8.71134 3.53309 8.63135 3.54138 8.56326V5.62017L3.54967 5.13164C3.58777 4.83716 3.61592 4.54097 3.66562 4.24819C4.10626 1.66427 5.81913 0.242937 8.20621 0.0335678C9.42045 -0.0736702 10.6231 0.0880462 11.8241 0.254861C11.9732 0.275287 11.9997 0.336573 11.998 0.47445C11.998 1.52981 11.998 2.58516 11.998 3.64052C11.998 3.81074 11.945 3.83969 11.7943 3.84139C11.1184 3.84139 10.4425 3.80563 9.76832 3.8669C9.26458 3.89382 8.79131 4.12303 8.45046 4.5051C8.10962 4.88718 7.92849 5.39154 7.94612 5.90953V5.95038C7.9279 6.82191 7.92955 7.69174 7.94612 8.56326C7.96103 8.64667 7.86329 8.79986 8.06704 8.76581H11.6038C11.7694 8.7522 11.8357 8.82028 11.7893 9.00072C11.7604 9.13964 11.7383 9.27995 11.723 9.42115C11.5574 10.5463 11.3801 11.6715 11.2261 12.7983C11.2079 12.9294 11.1565 12.9464 11.0488 12.9447C10.7854 12.9447 10.5204 12.9447 10.2553 12.9447L8.07368 12.9566H7.99416C7.96932 12.943 7.9627 12.9566 7.9627 12.9787C7.94615 13.0458 7.94615 13.116 7.9627 13.183C7.9627 13.2375 7.9627 13.2902 7.9627 13.3447V22.7816C7.9627 22.8361 7.9627 22.8906 7.9627 22.9519C7.97264 23.0693 8.04221 22.9791 8.08197 22.9893" fill="#FEFEFE"/>
</svg>
