<svg width="21" height="21" viewBox="0 0 21 21" fill="none" xmlns="http://www.w3.org/2000/svg">
<path d="M6.01978 10.069H10.0684V6.67255C8.8146 6.64907 7.61862 6.5226 6.5455 6.30762C6.23295 7.46204 6.05229 8.7375 6.01978 10.069Z" fill="#FF006B"/>
<path d="M15.8421 10.0686H19.5258C19.4391 8.20961 18.7887 6.49695 17.7445 5.09863C17.1031 5.50693 16.2649 5.84657 15.2893 6.10491C15.6199 7.32618 15.8096 8.6721 15.8421 10.0686Z" fill="#FF006B"/>
<path d="M6.52382 14.6025C7.60598 14.3803 8.8146 14.2466 10.0684 14.2213V10.9297H6.01978C6.05229 12.2286 6.22573 13.4734 6.52382 14.6025Z" fill="#FF006B"/>
<path d="M7.40565 4.07007C7.17802 4.50366 6.97749 4.97518 6.80225 5.47561C7.8013 5.67072 8.91417 5.78815 10.0686 5.80983V1.59863C9.08218 1.79375 8.14997 2.65369 7.40565 4.07007Z" fill="#FF006B"/>
<path d="M15.8421 10.9297C15.8114 12.2901 15.6308 13.5999 15.3164 14.7958C16.3137 15.0596 17.1682 15.4065 17.8059 15.8184C18.8158 14.4345 19.4409 12.7526 19.5258 10.9297H15.8421Z" fill="#FF006B"/>
<path d="M13.5947 4.07007C12.8522 2.65369 11.9181 1.79194 10.9299 1.59863V5.80983C12.0862 5.78454 13.199 5.66711 14.1945 5.47019C14.0228 4.97157 13.8223 4.50366 13.5947 4.07007Z" fill="#FF006B"/>
<path d="M7.40526 16.9259C8.14778 18.3423 9.08179 19.204 10.07 19.3973V15.085C8.89752 15.1084 7.77562 15.2295 6.77295 15.4282C6.95361 15.963 7.16498 16.467 7.40526 16.9259Z" fill="#FF006B"/>
<path d="M15.0401 5.27816C15.8947 5.05414 16.6318 4.76689 17.1936 4.42725C16.0844 3.20598 14.6463 2.29003 13.0186 1.82031C13.5118 2.29726 13.9634 2.91692 14.3591 3.67208C14.6174 4.16709 14.845 4.70546 15.0401 5.27816Z" fill="#FF006B"/>
<path d="M14.2307 15.4245C13.2263 15.2257 12.1026 15.1065 10.9319 15.083V19.3972C11.9201 19.2021 12.8523 18.3421 13.5966 16.9257C13.8369 16.4651 14.0483 15.961 14.2307 15.4245Z" fill="#FF006B"/>
<path d="M5.92906 15.6221C5.05647 15.8533 4.30853 16.1496 3.74487 16.5019C4.86316 17.7593 6.32651 18.7023 7.98679 19.1829C7.49178 18.7059 7.03832 18.0845 6.64086 17.3275C6.36807 16.8054 6.12959 16.2327 5.92906 15.6221Z" fill="#FF006B"/>
<path d="M5.15813 10.9297H1.47266C1.55757 12.7562 2.18627 14.4417 3.19977 15.8274C3.8357 15.4137 4.68842 15.065 5.68386 14.8012C5.37131 13.6035 5.19065 12.2919 5.15813 10.9297Z" fill="#FF006B"/>
<path d="M14.3589 17.3272C13.9614 18.0842 13.5079 18.7057 13.0129 19.1826C14.6768 18.702 16.1438 17.7554 17.2621 16.4944C16.6966 16.1439 15.9469 15.8476 15.0725 15.6182C14.8719 16.2288 14.6335 16.8033 14.3589 17.3272Z" fill="#FF006B"/>
<path d="M5.70895 6.11316C4.73339 5.85663 3.89151 5.51879 3.24655 5.1123C2.20775 6.50881 1.56279 8.21606 1.47607 10.0678H5.15975C5.19046 8.67313 5.38015 7.33082 5.70895 6.11316Z" fill="#FF006B"/>
<path d="M14.9805 10.9297H10.9319V14.2213C12.1857 14.2448 13.3943 14.3767 14.4783 14.5989C14.7763 13.4698 14.9498 12.2268 14.9805 10.9297Z" fill="#FF006B"/>
<path d="M6.64301 3.67208C7.03866 2.91692 7.49031 2.29726 7.98352 1.82031C6.35034 2.29364 4.90686 3.21321 3.79761 4.4417C4.36308 4.77773 5.10198 5.06317 5.96012 5.28719C6.15342 4.71088 6.38106 4.1689 6.64301 3.67208Z" fill="#FF006B"/>
<path d="M14.453 6.30176C13.3816 6.52036 12.1875 6.64863 10.9319 6.67211V10.0685H14.9805C14.948 8.73526 14.7673 7.45618 14.453 6.30176Z" fill="#FF006B"/>
<path d="M10.5 0C4.70982 0 0 4.70982 0 10.5C0 16.2902 4.70982 21 10.5 21C16.2902 21 21 16.2902 21 10.5C21 4.70982 16.2902 0 10.5 0ZM10.5 20.4436C5.01695 20.4436 0.556435 15.9831 0.556435 10.5C0.556435 5.01695 5.01695 0.556435 10.5 0.556435C15.9831 0.556435 20.4436 5.01695 20.4436 10.5C20.4436 15.9831 15.9831 20.4436 10.5 20.4436Z" fill="#FF006B"/>
</svg>
