<svg width="55" height="61" viewBox="0 0 55 61" fill="none" xmlns="http://www.w3.org/2000/svg">
<g clip-path="url(#clip0_841_7191)">
<path d="M14.6221 57.8144C15.1494 55.592 13.7657 53.3651 11.5315 52.8406C9.29725 52.316 7.05856 53.6924 6.53123 55.9149C6.0039 58.1373 7.38762 60.3642 9.62186 60.8887C11.8561 61.4133 14.0948 60.0369 14.6221 57.8144Z" fill="white"/>
<path d="M36.0498 59.7894C37.673 58.1747 37.673 55.5568 36.0498 53.9421C34.4265 52.3274 31.7947 52.3274 30.1715 53.9421C28.5482 55.5568 28.5482 58.1747 30.1715 59.7894C31.7947 61.404 34.4265 61.404 36.0498 59.7894Z" fill="white"/>
<path opacity="0.9" d="M52.7829 0H45.5196C43.519 0 41.7955 1.40511 41.4013 3.35702L37.9814 20.3707H35.4761V20.3774H7.65285V20.3707H3.26421C1.1983 20.3707 -0.344936 22.2509 0.0650914 24.2633L4.79392 47.4487C5.10257 48.9613 6.44079 50.0482 7.99304 50.0482H36.1633C37.7133 50.0482 39.0537 48.9613 39.3601 47.4487L43.1946 28.6579L48.347 6.61319L52.659 6.7342C53.8846 6.7342 54.9975 5.48597 54.9975 4.26686V2.20514C54.9975 0.98604 54.004 0 52.7807 0H52.7829ZM7.61005 39.9525C5.18818 39.9525 3.22365 37.9984 3.22365 35.5893C3.22365 33.1802 5.18818 31.2261 7.61005 31.2261C10.0319 31.2261 11.9964 33.1802 11.9964 35.5893C11.9964 37.9984 10.0319 39.9525 7.61005 39.9525ZM31.3939 39.9525C28.972 39.9525 27.0075 37.9984 27.0075 35.5893C27.0075 33.1802 28.972 31.2261 31.3939 31.2261C33.8158 31.2261 35.7803 33.1802 35.7803 35.5893C35.7803 37.9984 33.8158 39.9525 31.3939 39.9525Z" fill="url(#paint0_linear_841_7191)"/>
<path opacity="0.8" d="M31.4045 29.8161C36.8391 24.4102 36.8391 15.6455 31.4045 10.2396C25.9699 4.83371 17.1587 4.83371 11.7241 10.2396C6.28952 15.6455 6.28952 24.4102 11.7241 29.8161C17.1587 35.222 25.9699 35.222 31.4045 29.8161Z" fill="white"/>
<path d="M21.5647 33.9377C13.853 33.9377 7.58093 27.6965 7.58093 20.0278C7.58093 12.3591 13.853 6.11572 21.5647 6.11572C29.2763 6.11572 35.5484 12.3569 35.5484 20.0256C35.5484 27.6943 29.2741 33.9355 21.5647 33.9355V33.9377ZM21.5647 6.25018C13.9273 6.25018 7.71611 12.4309 7.71611 20.0256C7.71611 27.6203 13.9296 33.801 21.5647 33.801C29.1997 33.801 35.4132 27.6203 35.4132 20.0256C35.4132 12.4309 29.1997 6.25018 21.5647 6.25018Z" fill="url(#paint1_linear_841_7191)"/>
<path d="M21.0489 25.6527C20.7605 25.6527 20.4856 25.5295 20.2919 25.3143L14.6101 18.9768C14.2361 18.56 14.2744 17.9213 14.6912 17.5515C15.1102 17.1795 15.7523 17.2176 16.124 17.6322L20.961 23.0285L26.3544 15.5234C26.6811 15.0707 27.3142 14.9654 27.7693 15.2881C28.2244 15.6131 28.3302 16.2428 28.0058 16.6955L21.8757 25.2269C21.6955 25.4757 21.4116 25.6303 21.1052 25.6483C21.0872 25.6483 21.0691 25.6483 21.0511 25.6483L21.0489 25.6527Z" fill="white"/>
</g>
<defs>
<linearGradient id="paint0_linear_841_7191" x1="2.44735" y1="10.0097" x2="53.8595" y2="11.7699" gradientUnits="userSpaceOnUse">
<stop stop-color="#E2007F"/>
<stop offset="1" stop-color="#1E4CED"/>
</linearGradient>
<linearGradient id="paint1_linear_841_7191" x1="7.58093" y1="20.0278" x2="35.5484" y2="20.0278" gradientUnits="userSpaceOnUse">
<stop stop-color="#C5FFFF"/>
<stop offset="1" stop-color="#B3D6D6"/>
</linearGradient>
<clipPath id="clip0_841_7191">
<rect width="55" height="61" fill="white"/>
</clipPath>
</defs>
</svg>
