<svg width="13" height="13" viewBox="0 0 13 13" fill="none" xmlns="http://www.w3.org/2000/svg">
<path d="M6.5 0C2.91126 0 0 2.91126 0 6.5C0 10.0887 2.91126 13 6.5 13C10.0887 13 13 10.0887 13 6.5C13 2.91126 10.0906 0 6.5 0ZM5.21656 3.29705C5.21656 2.6892 5.70961 2.19615 6.31746 2.19615C6.9253 2.19615 7.41836 2.6892 7.41836 3.29705C7.41836 3.90489 6.9253 4.39794 6.31746 4.39794C5.70961 4.39794 5.21656 3.90489 5.21656 3.29705ZM7.63665 10.8057H5.36523C5.06977 10.8057 4.82889 10.5667 4.82889 10.2694C4.82889 9.97206 5.06789 9.73306 5.36523 9.73306H5.61364V6.04459H5.36523C5.06977 6.04459 4.82889 5.80559 4.82889 5.50825C4.82889 5.2128 5.06789 4.97192 5.36523 4.97192H7.36943L7.3826 5.77171L7.38825 9.73306H7.63665C7.93211 9.73306 8.17299 9.97206 8.17299 10.2694C8.17299 10.5667 7.93211 10.8057 7.63665 10.8057Z" fill="#1E4CED"/>
</svg>
