<svg width="79" height="78" viewBox="0 0 79 78" fill="none" xmlns="http://www.w3.org/2000/svg">
<path fill-rule="evenodd" clip-rule="evenodd" d="M39.7526 0C18.3365 0 0.974609 17.4161 0.974609 38.8991C0.974609 48.3355 4.32448 56.9871 9.89609 63.7228L7.71555 76.6614L20.2002 72.4984C25.941 75.8671 32.6219 77.7987 39.7531 77.7987C61.1698 77.7987 78.5311 60.3826 78.5311 38.8996C78.5311 17.4166 61.1692 0 39.7526 0ZM44.3603 57.7763C44.107 58.3528 43.7272 58.8678 43.2238 59.3196C42.7121 59.7743 42.1391 60.1139 41.5032 60.3407C40.8646 60.568 40.1602 60.6814 39.3884 60.6814C38.6166 60.6814 37.9061 60.5675 37.2647 60.339C36.6299 60.1128 36.0591 59.7738 35.5547 59.3213L35.5535 59.3202C35.0468 58.87 34.6682 58.3578 34.4159 57.7842C34.1626 57.2083 34.0368 56.5676 34.0368 55.8632C34.0368 55.1589 34.162 54.5149 34.4143 53.9418C34.6665 53.3681 35.0457 52.8576 35.553 52.4063L35.5541 52.4052C36.0586 51.9527 36.6293 51.6137 37.2641 51.3875C37.9056 51.159 38.6139 51.0451 39.3879 51.0451C40.1618 51.0451 40.864 51.1585 41.5027 51.3858C42.1386 51.612 42.7116 51.9522 43.2233 52.4068C43.7261 52.8582 44.1053 53.3693 44.3581 53.9423C44.6114 54.516 44.7395 55.1561 44.7395 55.8638C44.7395 56.5715 44.612 57.2038 44.3598 57.7775L44.3603 57.7763ZM53.4589 30.1519C53.2974 30.8903 53.0557 31.593 52.7316 32.2583V32.2594C52.4109 32.928 51.9894 33.6055 51.4693 34.2903C50.9437 34.983 50.3184 35.6823 49.5956 36.3866L46.1121 39.6425L46.1082 39.6464C45.597 40.138 45.1649 40.6351 44.8119 41.1395C44.4539 41.65 44.1754 42.1683 43.9755 42.6951C43.7718 43.2173 43.6164 43.8055 43.5073 44.4613C43.4137 45.0232 43.3536 45.6387 43.3257 46.3084H35.2796C35.2907 44.9656 35.372 43.7575 35.5251 42.6867C35.6883 41.5455 35.9327 40.5586 36.259 39.7274V39.7263C36.5792 38.8979 37.0013 38.1254 37.5225 37.4088C38.0487 36.6855 38.6768 36.0174 39.404 35.4041C40.9214 34.1233 42.0751 32.9548 42.8641 31.8997L42.8652 31.8986C43.2728 31.3484 43.5796 30.7697 43.7851 30.1637C43.9917 29.5543 44.0958 28.9192 44.0958 28.2584C44.0958 26.6514 43.7422 25.4348 43.0345 24.6098C42.3151 23.7703 41.251 23.3503 39.8433 23.3503C39.1941 23.3503 38.6027 23.4715 38.0715 23.7133C37.5386 23.9563 37.0703 24.3188 36.6678 24.8009C36.2657 25.2768 35.96 25.8353 35.7501 26.4743C35.5697 27.0245 35.4594 27.6356 35.4199 28.3064H25.803C25.8525 26.4486 26.1716 24.7908 26.7596 23.3313C27.3771 21.7997 28.2931 20.4854 29.5086 19.3872C30.727 18.2863 32.1931 17.4602 33.907 16.9095C35.6315 16.3548 37.6099 16.0777 39.8433 16.0777C42.0768 16.0777 44.029 16.3352 45.7429 16.848C47.4479 17.3585 48.9024 18.121 50.1034 19.1342C51.2995 20.143 52.1977 21.3685 52.7974 22.8079C53.3998 24.254 53.7016 25.9197 53.7016 27.802C53.7016 28.6226 53.6209 29.4062 53.4583 30.1519H53.4589Z" fill="#D1D1D1"/>
</svg>
