<svg width="20" height="19" viewBox="0 0 20 19" fill="none" xmlns="http://www.w3.org/2000/svg">
<path d="M10.001 16.2406C9.44491 16.2393 8.88954 16.2004 8.33844 16.1242C8.30203 16.1171 8.26459 16.1178 8.22844 16.1261C8.1923 16.1345 8.1582 16.1504 8.12825 16.1729C7.11474 16.9083 6.09744 17.6379 5.06073 18.3387C4.78096 18.5273 4.50072 18.7154 4.20864 18.8835C4.14935 18.9196 4.08709 18.9502 4.0226 18.9751C3.99787 18.9844 3.97235 18.9912 3.94638 18.9956C3.75135 19.0287 3.63111 18.9035 3.67324 18.7032C3.73762 18.3966 3.82425 18.0955 3.90993 17.7938C4.15798 16.8948 4.4073 15.9963 4.65788 15.0983C4.6605 15.085 4.66414 15.072 4.66877 15.0593C4.69101 15.0106 4.67539 14.9872 4.63137 14.9648C4.52817 14.9136 4.42639 14.8581 4.32556 14.8015C3.3343 14.245 2.45191 13.5466 1.7139 12.6626C1.02229 11.8341 0.510557 10.9043 0.227473 9.84721C0.0377974 9.14293 -0.034078 8.41056 0.0149245 7.68146C0.094453 6.47724 0.480736 5.38218 1.12264 4.37923C1.70538 3.46742 2.44812 2.71545 3.31015 2.0858C4.35159 1.32555 5.49576 0.793851 6.7242 0.447351C7.34754 0.272595 7.98341 0.149241 8.62578 0.0784414C9.34043 -0.00322938 10.0606 -0.0211701 10.7783 0.024829C12.4512 0.134481 14.0446 0.554574 15.5344 1.35771C16.5076 1.88258 17.3805 2.54584 18.1219 3.38359C18.8845 4.24472 19.4473 5.22282 19.7607 6.34955C19.9631 7.07871 20.0383 7.83905 19.9827 8.59523C19.9023 9.70734 19.5567 10.7317 18.9886 11.6777C18.431 12.6036 17.7105 13.3717 16.865 14.0193C15.7999 14.8351 14.6174 15.4019 13.3426 15.7704C12.6855 15.9594 12.0141 16.0906 11.3354 16.1627C10.8881 16.2133 10.4426 16.2343 10.001 16.2406ZM14.9336 8.86034C14.9636 8.87923 14.9881 8.90596 15.0046 8.93782C15.2978 9.33647 15.5904 9.73528 15.8823 10.1342C16.0243 10.3258 16.1587 10.5202 16.3045 10.7074C16.3683 10.7964 16.4564 10.8639 16.5576 10.9012C16.6587 10.9386 16.7684 10.944 16.8726 10.9169C16.98 10.8972 17.0792 10.845 17.1574 10.7668C17.2357 10.6887 17.2895 10.5882 17.3119 10.4783C17.3592 10.2834 17.3119 10.1133 17.194 9.95588C16.7462 9.34736 16.2995 8.73818 15.8539 8.12835C15.7829 8.03088 15.7871 8.05378 15.8624 7.97581C16.1101 7.72012 16.3582 7.46459 16.6066 7.20922C16.7694 7.04206 16.9313 6.87443 17.0941 6.70775C17.1716 6.6332 17.2202 6.53226 17.231 6.42363C17.2419 6.30174 17.2156 6.17938 17.1556 6.07365C17.0957 5.96792 17.0052 5.88411 16.8967 5.83394C16.7206 5.74963 16.4934 5.75402 16.2974 5.96066C15.8136 6.4709 15.3204 6.97092 14.83 7.47434C14.8058 7.4992 14.7798 7.52308 14.7518 7.54842C14.7395 7.51049 14.7358 7.47013 14.741 7.43047C14.741 7.05571 14.741 6.68095 14.741 6.3057C14.7434 6.18327 14.7089 6.06308 14.6424 5.96156C14.5759 5.86004 14.4806 5.78216 14.3694 5.73858C14.2583 5.695 14.1367 5.68784 14.0215 5.71808C13.9062 5.74832 13.8029 5.81449 13.7255 5.90753C13.6291 6.02486 13.5784 6.17496 13.5835 6.3286C13.5835 7.64248 13.5835 8.95651 13.5835 10.2707C13.5835 10.3043 13.5835 10.3384 13.5835 10.3721C13.5873 10.5137 13.6402 10.6493 13.7327 10.7542C13.8251 10.8592 13.951 10.9266 14.0876 10.9443C14.2241 10.962 14.3623 10.9287 14.4771 10.8506C14.592 10.7724 14.6758 10.6546 14.7135 10.5183C14.7323 10.4465 14.7411 10.3723 14.7395 10.298C14.7395 9.913 14.7395 9.528 14.7395 9.143C14.7395 9.10353 14.7305 9.0621 14.7651 9.02896C14.8252 8.9734 14.8797 8.9159 14.9336 8.86034ZM10.1051 10.4466C10.1008 10.281 10.0678 10.1174 10.0076 9.96368C9.79489 9.38601 9.58217 8.80884 9.36947 8.23215C9.1293 7.58236 8.8893 6.93257 8.64945 6.28278C8.60931 6.16977 8.54763 6.06616 8.46805 5.97804C8.38846 5.88991 8.29257 5.81906 8.18601 5.76962C8.04998 5.69852 7.89417 5.67835 7.74529 5.71259C7.59982 5.74394 7.46475 5.81365 7.3533 5.91488C7.24186 6.01612 7.15786 6.14541 7.10953 6.2901C6.65508 7.5156 6.20221 8.74224 5.75092 9.97002C5.72648 10.0363 5.70655 10.1042 5.69127 10.1732C5.65218 10.3099 5.64425 10.454 5.66808 10.5943C5.67686 10.6496 5.69814 10.7019 5.73022 10.7471C5.76229 10.7923 5.80425 10.8291 5.8527 10.8545C6.03858 10.9532 6.25431 10.9742 6.45484 10.913C6.51858 10.896 6.57717 10.8628 6.62529 10.8165C6.6734 10.7702 6.70952 10.7122 6.73035 10.6479C6.80846 10.4257 6.89414 10.2069 6.9732 9.98513C6.97778 9.96259 6.99049 9.94267 7.00875 9.92938C7.02702 9.91609 7.0495 9.9104 7.07166 9.91348C7.61006 9.91608 8.1483 9.91608 8.68638 9.91348C8.71016 9.91057 8.73412 9.91705 8.75344 9.93161C8.77277 9.94617 8.78602 9.96773 8.79052 9.99195C8.86957 10.2137 8.95573 10.4306 9.03384 10.6547C9.0539 10.7158 9.08808 10.7709 9.13344 10.8153C9.1788 10.8597 9.23397 10.8921 9.2942 10.9096C9.39621 10.9427 9.50357 10.9547 9.61009 10.9448C9.71661 10.9349 9.82018 10.9034 9.91481 10.8521C9.99149 10.8116 10.0495 10.7415 10.0762 10.6572C10.0987 10.5895 10.1089 10.5181 10.1061 10.4466H10.1051ZM5.04274 8.69221V6.95971C5.04274 6.85395 5.03564 6.85931 5.13742 6.85931C5.41293 6.85931 5.68843 6.86224 5.96394 6.85931C6.09303 6.85645 6.21712 6.80742 6.3149 6.72063C6.41269 6.63383 6.47807 6.51469 6.49981 6.38367C6.52311 6.25311 6.50216 6.11827 6.44047 6.0017C6.37877 5.88514 6.28007 5.79393 6.16087 5.7433C6.07469 5.71027 5.9829 5.69551 5.89104 5.69992H3.04648C3.0105 5.69992 2.97452 5.69993 2.93854 5.70236C2.79325 5.71586 2.65872 5.78685 2.56324 5.9004C2.46777 6.01395 2.4188 6.16119 2.42665 6.31116C2.4345 6.46112 2.49856 6.60211 2.60533 6.70444C2.71211 6.80676 2.85328 6.86246 2.99914 6.8598C3.26802 6.8598 3.53738 6.8598 3.80389 6.8598C3.8891 6.8598 3.8891 6.8598 3.89005 6.9485C3.89005 6.96848 3.89005 6.98895 3.89005 7.00893V9.82577C3.89005 10.0149 3.89005 10.2039 3.89005 10.393C3.88923 10.5333 3.94232 10.6682 4.03774 10.7683C4.11888 10.8551 4.22316 10.9154 4.33746 10.9414C4.45176 10.9674 4.57098 10.958 4.68013 10.9145C4.78774 10.8717 4.88008 10.7961 4.94473 10.6977C5.00938 10.5994 5.04325 10.483 5.04179 10.3643C5.0399 9.80529 5.04321 9.24827 5.04605 8.69075L5.04274 8.69221ZM10.4048 8.30234V10.2575C10.4016 10.3318 10.4094 10.406 10.428 10.4778C10.4646 10.5942 10.5371 10.6952 10.6343 10.7655C10.7315 10.8358 10.8484 10.8717 10.9671 10.8677C11.5769 10.8677 12.187 10.8677 12.7972 10.8677C12.8497 10.8685 12.902 10.8616 12.9525 10.8472C13.1651 10.7829 13.3085 10.646 13.3502 10.4179C13.3918 10.1898 13.3028 10.008 13.122 9.87595C13.0231 9.80824 12.906 9.77415 12.7873 9.77848H11.6853C11.5664 9.77848 11.5811 9.78532 11.5811 9.66836V6.78133C11.5811 6.61271 11.5811 6.44361 11.5811 6.27499C11.5773 6.1353 11.5258 6.00146 11.4357 5.89694C11.3456 5.79242 11.2226 5.72388 11.0883 5.70334C10.9509 5.68109 10.8103 5.7092 10.691 5.78277C10.5717 5.85634 10.4813 5.97069 10.4355 6.10588C10.4126 6.18701 10.4026 6.27146 10.4062 6.35588L10.4048 8.30234Z" fill="#3C1E1E"/>
</svg>
