<svg width="21" height="20" viewBox="0 0 21 20" fill="none" xmlns="http://www.w3.org/2000/svg">
<path d="M10.0034 17.2377C9.44735 17.2364 8.89198 17.1975 8.34088 17.1212C8.30447 17.1142 8.26703 17.1148 8.23089 17.1232C8.19474 17.1316 8.16064 17.1475 8.1307 17.17C7.11718 17.9054 6.09988 18.6349 5.06317 19.3357C4.7834 19.5243 4.50316 19.7124 4.21108 19.8806C4.15179 19.9167 4.08953 19.9473 4.02504 19.9722C4.00031 19.9815 3.97479 19.9883 3.94882 19.9927C3.75379 20.0258 3.63355 19.9006 3.67568 19.7003C3.74006 19.3937 3.82669 19.0925 3.91237 18.7909C4.16042 17.8919 4.40974 16.9934 4.66032 16.0954C4.66294 16.0821 4.66658 16.0691 4.67121 16.0564C4.69346 16.0077 4.67783 15.9843 4.63381 15.9619C4.53061 15.9107 4.42883 15.8551 4.328 15.7986C3.33674 15.242 2.45435 14.5437 1.71634 13.6597C1.02473 12.8312 0.512999 11.9013 0.229915 10.8443C0.0402388 10.14 -0.0316365 9.40763 0.0173659 8.67853C0.0968944 7.47431 0.483177 6.37925 1.12509 5.3763C1.70782 4.46449 2.45056 3.71252 3.31259 3.08287C4.35404 2.32262 5.49821 1.79092 6.72664 1.44442C7.34998 1.26967 7.98585 1.14631 8.62822 1.07551C9.34288 0.993841 10.063 0.9759 10.7807 1.0219C12.4536 1.13155 14.0471 1.55164 15.5368 2.35478C16.5101 2.87965 17.383 3.54292 18.1243 4.38066C18.8869 5.24179 19.4498 6.21989 19.7632 7.34662C19.9655 8.07578 20.0407 8.83612 19.9852 9.5923C19.9047 10.7044 19.5591 11.7288 18.9911 12.6747C18.4334 13.6007 17.7129 14.3687 16.8675 15.0164C15.8024 15.8322 14.6198 16.399 13.345 16.7674C12.688 16.9565 12.0165 17.0877 11.3379 17.1597C10.8905 17.2104 10.4451 17.2314 10.0034 17.2377ZM14.9361 9.85741C14.966 9.8763 14.9905 9.90303 15.0071 9.93489C15.3003 10.3335 15.5928 10.7323 15.8847 11.1313C16.0267 11.3228 16.1612 11.5173 16.307 11.7044C16.3708 11.7935 16.4588 11.861 16.56 11.8983C16.6612 11.9356 16.7708 11.9411 16.875 11.914C16.9824 11.8943 17.0816 11.842 17.1599 11.7639C17.2382 11.6857 17.292 11.5853 17.3143 11.4754C17.3617 11.2804 17.3143 11.1104 17.1965 10.953C16.7487 10.3444 16.3019 9.73525 15.8563 9.12542C15.7853 9.02795 15.7896 9.05085 15.8648 8.97288C16.1126 8.71719 16.3606 8.46166 16.609 8.20629C16.7718 8.03913 16.9337 7.8715 17.0966 7.70482C17.1741 7.63027 17.2227 7.52933 17.2334 7.4207C17.2443 7.29881 17.218 7.17645 17.1581 7.07072C17.0982 6.96499 17.0076 6.88118 16.8992 6.83101C16.7231 6.7467 16.4959 6.75109 16.2999 6.95773C15.8161 7.46797 15.3228 7.96799 14.8324 8.47141C14.8083 8.49627 14.7822 8.52015 14.7543 8.54549C14.7419 8.50756 14.7382 8.4672 14.7434 8.42755C14.7434 8.05278 14.7434 7.67802 14.7434 7.30277C14.7458 7.18035 14.7114 7.06015 14.6449 6.95863C14.5784 6.85711 14.483 6.77923 14.3719 6.73565C14.2607 6.69207 14.1392 6.68491 14.0239 6.71515C13.9087 6.74539 13.8053 6.81156 13.728 6.9046C13.6315 7.02193 13.5809 7.17203 13.586 7.32567C13.586 8.63955 13.586 9.95358 13.586 11.2678C13.586 11.3014 13.586 11.3355 13.586 11.3691C13.5897 11.5108 13.6426 11.6463 13.7351 11.7513C13.8276 11.8563 13.9535 11.9237 14.09 11.9414C14.2266 11.959 14.3648 11.9258 14.4796 11.8476C14.5944 11.7695 14.6782 11.6516 14.7159 11.5153C14.7348 11.4436 14.7435 11.3694 14.742 11.2951C14.742 10.9101 14.742 10.5251 14.742 10.1401C14.742 10.1006 14.733 10.0592 14.7675 10.026C14.8277 9.97047 14.8821 9.91297 14.9361 9.85741ZM10.1075 11.4437C10.1033 11.278 10.0702 11.1145 10.01 10.9607C9.79733 10.3831 9.58461 9.80591 9.37191 9.22922C9.13174 8.57943 8.89174 7.92964 8.65189 7.27985C8.61175 7.16684 8.55008 7.06323 8.47049 6.97511C8.3909 6.88698 8.29501 6.81613 8.18845 6.76669C8.05242 6.69559 7.89661 6.67542 7.74773 6.70966C7.60226 6.74101 7.46719 6.81072 7.35574 6.91195C7.2443 7.01319 7.1603 7.14248 7.11197 7.28717C6.65752 8.51267 6.20466 9.73931 5.75336 10.9671C5.72892 11.0333 5.70899 11.1012 5.69372 11.1703C5.65462 11.307 5.64669 11.4511 5.67052 11.5914C5.6793 11.6466 5.70058 11.699 5.73266 11.7442C5.76473 11.7894 5.80669 11.8262 5.85514 11.8516C6.04102 11.9503 6.25675 11.9713 6.45728 11.9101C6.52103 11.893 6.57962 11.8598 6.62773 11.8135C6.67585 11.7672 6.71196 11.7093 6.73279 11.645C6.8109 11.4227 6.89658 11.2039 6.97564 10.9822C6.98022 10.9597 6.99293 10.9397 7.01119 10.9264C7.02946 10.9132 7.05194 10.9075 7.07411 10.9106C7.6125 10.9131 8.15074 10.9131 8.68882 10.9106C8.7126 10.9076 8.73656 10.9141 8.75588 10.9287C8.77521 10.9432 8.78846 10.9648 8.79296 10.989C8.87201 11.2108 8.95817 11.4276 9.03628 11.6518C9.05634 11.7128 9.09052 11.7679 9.13588 11.8123C9.18124 11.8568 9.23641 11.8891 9.29664 11.9067C9.39865 11.9398 9.50601 11.9517 9.61253 11.9419C9.71906 11.932 9.82262 11.9005 9.91725 11.8492C9.99393 11.8087 10.052 11.7386 10.0787 11.6542C10.1012 11.5866 10.1113 11.5152 10.1085 11.4437H10.1075ZM5.04518 9.68928V7.95678C5.04518 7.85102 5.03808 7.85638 5.13986 7.85638C5.41537 7.85638 5.69088 7.85931 5.96638 7.85638C6.09547 7.85353 6.21956 7.80449 6.31734 7.7177C6.41513 7.6309 6.48051 7.51176 6.50225 7.38074C6.52555 7.25018 6.5046 7.11534 6.44291 6.99877C6.38121 6.88221 6.28251 6.791 6.16331 6.74037C6.07713 6.70734 5.98535 6.69258 5.89348 6.69699H3.04892C3.01294 6.69699 2.97696 6.697 2.94099 6.69943C2.7957 6.71293 2.66116 6.78393 2.56568 6.89747C2.47021 7.01102 2.42124 7.15827 2.42909 7.30823C2.43694 7.45819 2.501 7.59918 2.60777 7.70151C2.71455 7.80383 2.85572 7.85953 3.00158 7.85687C3.27046 7.85687 3.53982 7.85687 3.80633 7.85687C3.89154 7.85687 3.89154 7.85687 3.89249 7.94557C3.89249 7.96555 3.89249 7.98602 3.89249 8.006V10.8228C3.89249 11.0119 3.89249 11.201 3.89249 11.3901C3.89167 11.5304 3.94476 11.6652 4.04018 11.7653C4.12133 11.8522 4.2256 11.9124 4.3399 11.9384C4.4542 11.9645 4.57342 11.9551 4.68257 11.9116C4.79019 11.8688 4.88252 11.7932 4.94717 11.6948C5.01182 11.5965 5.04569 11.4801 5.04423 11.3613C5.04234 10.8024 5.04565 10.2453 5.04849 9.68782L5.04518 9.68928ZM10.4072 9.29941V11.2546C10.404 11.3288 10.4118 11.4031 10.4304 11.4749C10.4671 11.5913 10.5395 11.6922 10.6367 11.7625C10.734 11.8329 10.8508 11.8687 10.9696 11.8648C11.5793 11.8648 12.1895 11.8648 12.7997 11.8648C12.8521 11.8656 12.9044 11.8587 12.955 11.8443C13.1675 11.78 13.3109 11.643 13.3526 11.415C13.3943 11.1869 13.3053 11.0051 13.1244 10.873C13.0255 10.8053 12.9085 10.7712 12.7897 10.7756H11.6877C11.5689 10.7756 11.5836 10.7824 11.5836 10.6654V7.7784C11.5836 7.60978 11.5836 7.44068 11.5836 7.27206C11.5797 7.13237 11.5282 6.99853 11.4381 6.89401C11.348 6.78949 11.225 6.72095 11.0908 6.70041C10.9534 6.67816 10.8128 6.70627 10.6935 6.77984C10.5742 6.85341 10.4837 6.96776 10.438 7.10295C10.415 7.18408 10.4051 7.26853 10.4086 7.35295L10.4072 9.29941Z" fill="#FEFEFE"/>
</svg>
