<svg width="20" height="20" viewBox="0 0 20 20" fill="none" xmlns="http://www.w3.org/2000/svg">
<path d="M20 11.8284C20 11.3708 19.8372 10.9703 19.5117 10.6271L10.0726 1.20131C9.73826 0.866494 9.28946 0.582942 8.7261 0.349751C8.16296 0.116491 7.64803 0 7.18158 0H1.68964C1.23222 0 0.836066 0.167339 0.501667 0.501669C0.167338 0.836069 0 1.23201 0 1.68992V7.1816C0 7.64805 0.116491 8.16285 0.34975 8.72614C0.583218 9.28942 0.866977 9.73371 1.20131 10.0595L10.6404 19.5115C10.9659 19.8372 11.3619 20 11.8284 20C12.2948 20 12.6865 19.8372 13.0297 19.5115L19.5116 13.0164C19.8372 12.6907 19.9999 12.2949 19.9999 11.8284H20ZM5.41921 5.41923C5.08912 5.74933 4.69082 5.9143 4.22444 5.9143C3.75806 5.9143 3.35996 5.74926 3.02987 5.41923C2.69978 5.08914 2.53473 4.69083 2.53473 4.22445C2.53473 3.75807 2.69978 3.35976 3.02987 3.02988C3.35996 2.69979 3.7582 2.53453 4.22444 2.53453C4.69068 2.53453 5.08912 2.69979 5.41921 3.02988C5.74931 3.35976 5.91428 3.758 5.91428 4.22445C5.91428 4.6909 5.74924 5.08914 5.41921 5.41923Z" fill="#7D8890"/>
</svg>
