<svg width="132" height="29" viewBox="0 0 132 29" fill="none" xmlns="http://www.w3.org/2000/svg">
<path fill-rule="evenodd" clip-rule="evenodd" d="M27.286 28.3624L21.8408 18.9082H32.7311L27.286 28.3624Z" fill="#0E3480"/>
<path fill-rule="evenodd" clip-rule="evenodd" d="M5.44515 9.45422L0 0H10.8903L16.3355 9.45422H5.44515Z" fill="#E61E66"/>
<path fill-rule="evenodd" clip-rule="evenodd" d="M10.8906 18.9084L16.3358 9.45422L21.8408 0H32.7311L16.3358 28.3627L10.8906 18.9084Z" fill="#2FB4A3"/>
<path fill-rule="evenodd" clip-rule="evenodd" d="M27.2861 28.3627L32.7313 18.9084L43.6216 0L49.0668 9.45422L38.1764 28.3627H27.2861Z" fill="#2B54A4"/>
<path d="M69.2314 1.31641L66.7781 10.8305H63.9658L62.4698 4.60743L60.9141 10.8305H58.0419L55.6484 1.31641H58.1017L59.478 8.25748L61.1534 1.31641H63.6666L65.2822 8.25748L66.6584 1.31641H69.2314Z" fill="white"/>
<path d="M72.1037 10.2915C71.3857 9.87263 70.7873 9.27427 70.3086 8.55622C69.8897 7.83818 69.6504 7.00047 69.6504 6.04308C69.6504 5.08569 69.8897 4.30781 70.3086 3.52993C70.7275 2.81188 71.3258 2.21352 72.1037 1.79466C72.8217 1.3758 73.6595 1.19629 74.557 1.19629C75.4546 1.19629 76.2923 1.3758 77.0103 1.79466C77.7284 2.21352 78.3267 2.81188 78.7456 3.52993C79.1645 4.24797 79.4038 5.08569 79.4038 6.04308C79.4038 7.00047 79.1645 7.83818 78.7456 8.55622C78.3267 9.27427 77.7284 9.87263 77.0103 10.2915C76.2923 10.7104 75.4546 10.8899 74.557 10.8899C73.7193 10.8899 72.8816 10.7104 72.1037 10.2915ZM76.412 8.01769C76.8906 7.539 77.0702 6.82095 77.0702 6.04308C77.0702 5.20536 76.8308 4.54715 76.412 4.00862C75.9333 3.52993 75.3349 3.23074 74.6168 3.23074C73.839 3.23074 73.2406 3.47009 72.7619 3.94878C72.2832 4.42748 72.1037 5.14552 72.1037 5.98324C72.1037 6.82095 72.343 7.47916 72.7619 8.01769C73.2406 8.49639 73.839 8.79557 74.6168 8.79557C75.3349 8.79557 75.9333 8.55622 76.412 8.01769Z" fill="white"/>
<path d="M85.8663 10.8305L83.8917 7.24026H83.3532V10.8305H81.0195V1.31641H84.9089C85.6868 1.31641 86.2852 1.43608 86.8237 1.73526C87.3622 1.97461 87.7213 2.33363 88.0205 2.81233C88.2598 3.29102 88.4393 3.76972 88.4393 4.30825C88.4393 4.96645 88.2598 5.50499 87.9008 5.98368C87.5417 6.46238 87.0032 6.8214 86.345 7.06074L88.559 10.8305H85.8663ZM83.2933 5.62466H84.7294C85.1483 5.62466 85.4475 5.50499 85.6868 5.32548C85.9262 5.14597 85.986 4.84678 85.986 4.42792C85.986 4.0689 85.8663 3.76972 85.6868 3.59021C85.4475 3.4107 85.1483 3.29102 84.7294 3.29102H83.2933V5.62466Z" fill="white"/>
<path d="M92.3881 9.03536H95.4397V10.8305H90.1143V1.31641H92.4479V9.03536H92.3881Z" fill="white"/>
<path d="M102.98 1.91477C103.757 2.33363 104.296 2.87216 104.715 3.59021C105.134 4.30825 105.313 5.14597 105.313 6.04352C105.313 7.00091 105.134 7.77879 104.715 8.49683C104.296 9.21487 103.698 9.7534 102.98 10.1723C102.202 10.5911 101.364 10.7706 100.347 10.7706H96.8164V1.31641H100.347C101.364 1.31641 102.262 1.49592 102.98 1.91477ZM102.262 8.07797C102.74 7.59928 102.98 6.94107 102.98 6.04352C102.98 5.14597 102.74 4.48776 102.262 4.00907C101.783 3.53037 101.065 3.29102 100.227 3.29102H99.15V8.79601H100.227C101.125 8.79601 101.783 8.55667 102.262 8.07797Z" fill="white"/>
<path d="M62.0512 25.3709H58.5209L57.9823 27.0463H55.5889L58.9996 17.5322H61.6922L65.1029 27.0463H62.6496L62.0512 25.3709ZM61.4529 23.5758L60.2561 20.1052L59.1192 23.5758H61.4529Z" fill="white"/>
<path d="M71.2062 27.0463L69.2315 23.4561H68.693V27.0463H66.3594V17.5322H70.2488C71.0266 17.5322 71.625 17.6519 72.1635 17.9511C72.7021 18.1904 73.0611 18.5495 73.3603 19.0281C73.5996 19.5068 73.7791 19.9855 73.7791 20.5241C73.7791 21.1823 73.5996 21.7208 73.2406 22.1995C72.8816 22.6782 72.3431 23.0372 71.6849 23.2766L73.8988 27.0463H71.2062ZM68.693 21.8405H70.1291C70.548 21.8405 70.8471 21.7208 71.0865 21.5413C71.3258 21.3618 71.3857 21.0626 71.3857 20.6437C71.3857 20.2847 71.266 19.9855 71.0865 19.806C70.8471 19.6265 70.548 19.5068 70.1291 19.5068H68.693V21.8405Z" fill="white"/>
<path d="M82.276 17.5322V19.3872H79.7628V27.0463H77.4292V19.3872H74.916V17.5322H82.276Z" fill="white"/>
<path d="M92.5079 18.1306C93.2858 18.5495 93.8243 19.088 94.2432 19.806C94.662 20.5241 94.8416 21.3618 94.8416 22.2593C94.8416 23.2167 94.662 23.9946 94.2432 24.7126C93.8243 25.4307 93.226 25.9692 92.5079 26.3881C91.73 26.8069 90.8923 26.9865 89.8751 26.9865H86.3447V17.5322H89.8751C90.8923 17.5322 91.7899 17.7716 92.5079 18.1306ZM91.7899 24.3536C92.2686 23.8749 92.5079 23.2167 92.5079 22.3192C92.5079 21.4216 92.2686 20.7634 91.7899 20.2847C91.3112 19.806 90.5931 19.5667 89.7554 19.5667H88.6784V25.0717H89.7554C90.5931 25.0717 91.3112 24.8323 91.7899 24.3536Z" fill="white"/>
<path d="M98.7308 19.3872V21.3019H101.842V23.0971H98.7308V25.1913H102.261V27.0463H96.457V17.5322H102.261V19.3872H98.7308Z" fill="white"/>
<path d="M109.861 27.0463L107.946 24.1143L106.271 27.0463H103.638L106.69 22.1995L103.578 17.5322H106.271L108.186 20.4044L109.861 17.5322H112.494L109.502 22.3192L112.613 27.0463H109.861Z" fill="white"/>
<path d="M120.811 22.1397C120.572 22.6184 120.153 22.9774 119.674 23.2167C119.135 23.5159 118.477 23.6356 117.699 23.6356H116.263V27.0463H113.93V17.5322H117.699C118.477 17.5322 119.076 17.6519 119.614 17.9511C120.153 18.1904 120.512 18.5495 120.811 19.0281C121.05 19.5068 121.23 19.9855 121.23 20.5839C121.23 21.1823 121.05 21.661 120.811 22.1397ZM118.537 21.4815C118.776 21.302 118.836 21.0028 118.836 20.5839C118.836 20.1651 118.717 19.9257 118.537 19.6864C118.298 19.5068 117.999 19.3872 117.58 19.3872H116.323V21.7806H117.58C117.999 21.7806 118.298 21.7208 118.537 21.4815Z" fill="white"/>
<path d="M124.7 26.5073C123.982 26.0885 123.384 25.4901 122.905 24.772C122.486 24.054 122.247 23.2163 122.247 22.2589C122.247 21.3015 122.486 20.5236 122.905 19.7457C123.324 19.0277 123.922 18.4293 124.7 18.0105C125.418 17.5916 126.256 17.4121 127.154 17.4121C128.051 17.4121 128.889 17.5916 129.607 18.0105C130.325 18.4293 130.923 19.0277 131.342 19.7457C131.761 20.4638 132 21.3015 132 22.2589C132 23.2163 131.761 24.054 131.342 24.772C130.923 25.4901 130.325 26.0885 129.607 26.5073C128.889 26.9262 128.051 27.1057 127.154 27.1057C126.256 27.1655 125.478 26.9262 124.7 26.5073ZM129.009 24.2933C129.487 23.8147 129.667 23.0966 129.667 22.3187C129.667 21.481 129.427 20.8228 129.009 20.2843C128.53 19.8056 127.932 19.5064 127.214 19.5064C126.436 19.5064 125.837 19.7457 125.359 20.2244C124.88 20.7031 124.7 21.4212 124.7 22.2589C124.7 23.0966 124.94 23.7548 125.359 24.2933C125.837 24.772 126.436 25.0712 127.214 25.0712C127.932 25.0114 128.53 24.772 129.009 24.2933Z" fill="white"/>
<path d="M118.269 5.84277C118.089 5.84277 117.909 5.90283 117.789 6.02293C117.668 6.14303 117.548 6.32319 117.488 6.50335H118.869C118.869 6.4433 118.869 6.38324 118.869 6.38324C118.869 6.20309 118.809 6.08298 118.689 5.96288C118.629 5.84277 118.449 5.84277 118.269 5.84277Z" fill="#FDB730"/>
<path d="M114.366 4.94238H113.645L113.465 5.90322H114.185C114.366 5.90322 114.546 5.84317 114.666 5.78311C114.786 5.72306 114.846 5.60296 114.846 5.4228C114.846 5.4228 114.846 5.36275 114.846 5.3027C114.846 5.18259 114.786 5.06249 114.726 5.00244C114.666 4.94238 114.546 4.94238 114.366 4.94238Z" fill="#FDB730"/>
<path d="M125.056 5.90234C124.815 5.90234 124.635 5.9624 124.455 6.14255C124.275 6.32271 124.155 6.50287 124.095 6.80313C124.095 6.86318 124.095 6.92323 124.095 7.04334C124.095 7.28354 124.155 7.40365 124.275 7.52375C124.395 7.64386 124.575 7.70391 124.755 7.70391C124.996 7.70391 125.176 7.64386 125.356 7.4637C125.536 7.28354 125.656 7.10339 125.716 6.80313C125.716 6.74307 125.716 6.68302 125.716 6.56292C125.716 6.32271 125.656 6.2026 125.536 6.0825C125.416 5.9624 125.236 5.90234 125.056 5.90234Z" fill="#FDB730"/>
<path d="M114.186 6.68359H113.406L113.226 7.70448H114.066C114.246 7.70448 114.427 7.64443 114.547 7.58438C114.667 7.52432 114.727 7.34417 114.787 7.22406C114.787 7.16401 114.787 7.10396 114.787 7.10396C114.787 6.98385 114.727 6.86375 114.667 6.8037C114.427 6.74365 114.307 6.68359 114.186 6.68359Z" fill="#FDB730"/>
<path d="M126.676 2H112.324C109.922 2 108 3.92167 108 6.32376C108 8.72585 109.922 10.6475 112.324 10.6475H126.676C129.078 10.6475 131 8.72585 131 6.32376C131 3.92167 129.078 2 126.676 2ZM116.047 5.24282C115.987 5.48303 115.867 5.72324 115.687 5.90339C115.507 6.08355 115.326 6.20365 115.086 6.26371C115.326 6.32376 115.446 6.44386 115.627 6.56397C115.747 6.74412 115.807 6.92428 115.807 7.16449C115.807 7.22454 115.807 7.2846 115.807 7.34465C115.747 7.70496 115.567 8.00522 115.266 8.24543C114.966 8.48564 114.546 8.60574 114.065 8.60574H111.903L112.684 4.04178H114.726C115.146 4.04178 115.446 4.10183 115.687 4.28198C115.927 4.46214 116.047 4.70235 116.047 5.00261C116.047 5.06266 116.047 5.12271 116.047 5.24282ZM119.95 6.74412C119.95 6.86423 119.89 6.92428 119.89 7.04439H117.368C117.368 7.04439 117.368 7.10444 117.368 7.16449C117.368 7.34465 117.428 7.5248 117.548 7.58486C117.668 7.70496 117.789 7.76501 117.969 7.76501C118.269 7.76501 118.449 7.64491 118.629 7.4047H119.83C119.65 7.76501 119.41 8.06527 119.05 8.30548C118.689 8.54569 118.329 8.6658 117.849 8.6658C117.368 8.6658 117.008 8.54569 116.708 8.24543C116.407 8.00522 116.287 7.64491 116.287 7.16449C116.287 7.04439 116.287 6.86423 116.347 6.74412C116.407 6.38381 116.527 6.0235 116.768 5.72324C116.948 5.42298 117.248 5.24282 117.548 5.06266C117.849 4.88251 118.209 4.82245 118.569 4.82245C119.05 4.82245 119.41 4.94256 119.71 5.18277C120.01 5.42298 120.131 5.78329 120.131 6.20366C120.01 6.50392 120.01 6.62402 119.95 6.74412ZM122.713 5.90339H121.992L121.752 7.34465V7.4047C121.752 7.46475 121.752 7.5248 121.812 7.58486C121.872 7.64491 121.932 7.64491 122.052 7.64491H122.473L122.292 8.60574H121.752C121.031 8.60574 120.671 8.30548 120.671 7.70496C120.671 7.58486 120.671 7.5248 120.731 7.34465L120.971 5.90339H120.431L120.611 5.00261H121.031L121.211 4.10183H122.352L122.172 5.00261H122.893L122.713 5.90339ZM126.496 8.60574H125.355L125.475 8.06527C125.355 8.24543 125.175 8.36553 124.935 8.48564C124.695 8.60574 124.514 8.6658 124.214 8.6658C123.974 8.6658 123.734 8.60574 123.554 8.48564C123.373 8.36553 123.193 8.18538 123.073 8.00522C122.953 7.76501 122.893 7.5248 122.893 7.22454C122.893 7.10444 122.893 6.92428 122.953 6.80418C123.013 6.44386 123.133 6.08355 123.313 5.84334C123.493 5.54308 123.734 5.36292 124.034 5.18277C124.274 5.00261 124.574 4.94256 124.875 4.94256C125.115 4.94256 125.355 5.00261 125.535 5.12272C125.715 5.24282 125.836 5.36292 125.896 5.54308L126.016 5.00261H127.157L126.496 8.60574Z" fill="#FDB730"/>
</svg>
