<svg width="17" height="17" viewBox="0 0 17 17" fill="none" xmlns="http://www.w3.org/2000/svg">
<path d="M7.49047 1.59419H11.8547V6.00138C11.8547 6.18848 12.0077 6.33998 12.1966 6.33998C12.3855 6.33998 12.5385 6.18848 12.5385 6.00138V1.25559C12.5385 1.16663 12.502 1.07928 12.4383 1.0162C12.3746 0.953117 12.2864 0.916992 12.1966 0.916992H7.49047C7.30155 0.916992 7.14856 1.0685 7.14856 1.25559C7.14856 1.44268 7.30155 1.59419 7.49047 1.59419Z" fill="#D1D1D1"/>
<path d="M12.1966 10.6572C12.0077 10.6572 11.8547 10.8087 11.8547 10.9958V15.4089H7.49047C7.30155 15.4089 7.14856 15.5605 7.14856 15.7475C7.14856 15.9346 7.30155 16.0861 7.49047 16.0861H12.1966C12.2864 16.0861 12.3746 16.05 12.4383 15.9869C12.502 15.9239 12.5385 15.8371 12.5385 15.7475V10.9958C12.5385 10.8087 12.3855 10.6572 12.1966 10.6572Z" fill="#D1D1D1"/>
<path d="M6.12657 0.0040013L0.288008 0.921133C0.121954 0.947013 0 1.08882 0 1.25542V15.744C0 15.9106 0.121954 16.0519 0.288008 16.0783L6.12657 16.9955C6.22565 17.0111 6.32583 16.9831 6.40205 16.9189C6.47827 16.8547 6.52183 16.7609 6.52183 16.6617V0.338288C6.52183 0.23908 6.47827 0.145264 6.40205 0.0811029C6.32583 0.0169414 6.22565 -0.0110955 6.12657 0.0040013Z" fill="#D1D1D1"/>
<path d="M10.1569 9.85703H13.1927V10.9893C13.1927 11.0605 13.2232 11.1262 13.2733 11.1613L13.3533 11.1882L13.4339 11.1613L16.9249 8.67139C17.025 8.60076 17.025 8.39803 16.9249 8.32794L13.4339 5.83751L13.3533 5.81055L13.2733 5.83751C13.2232 5.87309 13.1927 5.93833 13.1927 6.0095V7.14176H10.1569C10.0677 7.14176 9.99634 7.23073 9.99634 7.34018V9.65808C9.99634 9.76807 10.0677 9.85703 10.1569 9.85703Z" fill="#D1D1D1"/>
</svg>
