<svg width="132" height="29" viewBox="0 0 132 29" fill="none" xmlns="http://www.w3.org/2000/svg">
<path fill-rule="evenodd" clip-rule="evenodd" d="M27.286 28.3624L21.8408 18.9082H32.7311L27.286 28.3624Z" fill="#0E3480"/>
<path fill-rule="evenodd" clip-rule="evenodd" d="M5.44515 9.45422L0 0H10.8903L16.3355 9.45422H5.44515Z" fill="#E61E66"/>
<path fill-rule="evenodd" clip-rule="evenodd" d="M10.8906 18.9084L16.3358 9.45422L21.8408 0H32.7311L16.3358 28.3627L10.8906 18.9084Z" fill="#2FB4A3"/>
<path fill-rule="evenodd" clip-rule="evenodd" d="M27.2861 28.3627L32.7313 18.9084L43.6216 0L49.0668 9.45422L38.1764 28.3627H27.2861Z" fill="#2B54A4"/>
<path d="M69.2314 1.31641L66.7781 10.8305H63.9658L62.4698 4.60743L60.9141 10.8305H58.0419L55.6484 1.31641H58.1017L59.478 8.25748L61.1534 1.31641H63.6666L65.2822 8.25748L66.6584 1.31641H69.2314Z" fill="white"/>
<path d="M72.1037 10.2915C71.3857 9.87263 70.7873 9.27427 70.3086 8.55622C69.8897 7.83818 69.6504 7.00047 69.6504 6.04308C69.6504 5.08569 69.8897 4.30781 70.3086 3.52993C70.7275 2.81188 71.3258 2.21352 72.1037 1.79466C72.8217 1.3758 73.6595 1.19629 74.557 1.19629C75.4546 1.19629 76.2923 1.3758 77.0103 1.79466C77.7284 2.21352 78.3267 2.81188 78.7456 3.52993C79.1645 4.24797 79.4038 5.08569 79.4038 6.04308C79.4038 7.00047 79.1645 7.83818 78.7456 8.55622C78.3267 9.27427 77.7284 9.87263 77.0103 10.2915C76.2923 10.7104 75.4546 10.8899 74.557 10.8899C73.7193 10.8899 72.8816 10.7104 72.1037 10.2915ZM76.412 8.01769C76.8906 7.539 77.0702 6.82095 77.0702 6.04308C77.0702 5.20536 76.8308 4.54715 76.412 4.00862C75.9333 3.52993 75.3349 3.23074 74.6168 3.23074C73.839 3.23074 73.2406 3.47009 72.7619 3.94878C72.2832 4.42748 72.1037 5.14552 72.1037 5.98324C72.1037 6.82095 72.343 7.47916 72.7619 8.01769C73.2406 8.49639 73.839 8.79557 74.6168 8.79557C75.3349 8.79557 75.9333 8.55622 76.412 8.01769Z" fill="white"/>
<path d="M85.8663 10.8305L83.8917 7.24026H83.3532V10.8305H81.0195V1.31641H84.9089C85.6868 1.31641 86.2852 1.43608 86.8237 1.73526C87.3622 1.97461 87.7213 2.33363 88.0205 2.81233C88.2598 3.29102 88.4393 3.76972 88.4393 4.30825C88.4393 4.96645 88.2598 5.50499 87.9008 5.98368C87.5417 6.46238 87.0032 6.8214 86.345 7.06074L88.559 10.8305H85.8663ZM83.2933 5.62466H84.7294C85.1483 5.62466 85.4475 5.50499 85.6868 5.32548C85.9262 5.14597 85.986 4.84678 85.986 4.42792C85.986 4.0689 85.8663 3.76972 85.6868 3.59021C85.4475 3.4107 85.1483 3.29102 84.7294 3.29102H83.2933V5.62466Z" fill="white"/>
<path d="M92.3881 9.03536H95.4397V10.8305H90.1143V1.31641H92.4479V9.03536H92.3881Z" fill="white"/>
<path d="M102.98 1.91477C103.757 2.33363 104.296 2.87216 104.715 3.59021C105.134 4.30825 105.313 5.14597 105.313 6.04352C105.313 7.00091 105.134 7.77879 104.715 8.49683C104.296 9.21487 103.698 9.7534 102.98 10.1723C102.202 10.5911 101.364 10.7706 100.347 10.7706H96.8164V1.31641H100.347C101.364 1.31641 102.262 1.49592 102.98 1.91477ZM102.262 8.07797C102.74 7.59928 102.98 6.94107 102.98 6.04352C102.98 5.14597 102.74 4.48776 102.262 4.00907C101.783 3.53037 101.065 3.29102 100.227 3.29102H99.15V8.79601H100.227C101.125 8.79601 101.783 8.55667 102.262 8.07797Z" fill="white"/>
<path d="M62.0512 25.3709H58.5209L57.9823 27.0463H55.5889L58.9996 17.5322H61.6922L65.1029 27.0463H62.6496L62.0512 25.3709ZM61.4529 23.5758L60.2561 20.1052L59.1192 23.5758H61.4529Z" fill="white"/>
<path d="M71.2062 27.0463L69.2315 23.4561H68.693V27.0463H66.3594V17.5322H70.2488C71.0266 17.5322 71.625 17.6519 72.1635 17.9511C72.7021 18.1904 73.0611 18.5495 73.3603 19.0281C73.5996 19.5068 73.7791 19.9855 73.7791 20.5241C73.7791 21.1823 73.5996 21.7208 73.2406 22.1995C72.8816 22.6782 72.3431 23.0372 71.6849 23.2766L73.8988 27.0463H71.2062ZM68.693 21.8405H70.1291C70.548 21.8405 70.8471 21.7208 71.0865 21.5413C71.3258 21.3618 71.3857 21.0626 71.3857 20.6437C71.3857 20.2847 71.266 19.9855 71.0865 19.806C70.8471 19.6265 70.548 19.5068 70.1291 19.5068H68.693V21.8405Z" fill="white"/>
<path d="M82.276 17.5322V19.3872H79.7628V27.0463H77.4292V19.3872H74.916V17.5322H82.276Z" fill="white"/>
<path d="M92.5079 18.1306C93.2858 18.5495 93.8243 19.088 94.2432 19.806C94.662 20.5241 94.8416 21.3618 94.8416 22.2593C94.8416 23.2167 94.662 23.9946 94.2432 24.7126C93.8243 25.4307 93.226 25.9692 92.5079 26.3881C91.73 26.8069 90.8923 26.9865 89.8751 26.9865H86.3447V17.5322H89.8751C90.8923 17.5322 91.7899 17.7716 92.5079 18.1306ZM91.7899 24.3536C92.2686 23.8749 92.5079 23.2167 92.5079 22.3192C92.5079 21.4216 92.2686 20.7634 91.7899 20.2847C91.3112 19.806 90.5931 19.5667 89.7554 19.5667H88.6784V25.0717H89.7554C90.5931 25.0717 91.3112 24.8323 91.7899 24.3536Z" fill="white"/>
<path d="M98.7308 19.3872V21.3019H101.842V23.0971H98.7308V25.1913H102.261V27.0463H96.457V17.5322H102.261V19.3872H98.7308Z" fill="white"/>
<path d="M109.861 27.0463L107.946 24.1143L106.271 27.0463H103.638L106.69 22.1995L103.578 17.5322H106.271L108.186 20.4044L109.861 17.5322H112.494L109.502 22.3192L112.613 27.0463H109.861Z" fill="white"/>
<path d="M120.811 22.1397C120.572 22.6184 120.153 22.9774 119.674 23.2167C119.135 23.5159 118.477 23.6356 117.699 23.6356H116.263V27.0463H113.93V17.5322H117.699C118.477 17.5322 119.076 17.6519 119.614 17.9511C120.153 18.1904 120.512 18.5495 120.811 19.0281C121.05 19.5068 121.23 19.9855 121.23 20.5839C121.23 21.1823 121.05 21.661 120.811 22.1397ZM118.537 21.4815C118.776 21.302 118.836 21.0028 118.836 20.5839C118.836 20.1651 118.717 19.9257 118.537 19.6864C118.298 19.5068 117.999 19.3872 117.58 19.3872H116.323V21.7806H117.58C117.999 21.7806 118.298 21.7208 118.537 21.4815Z" fill="white"/>
<path d="M124.7 26.5073C123.982 26.0885 123.384 25.4901 122.905 24.772C122.486 24.054 122.247 23.2163 122.247 22.2589C122.247 21.3015 122.486 20.5236 122.905 19.7457C123.324 19.0277 123.922 18.4293 124.7 18.0105C125.418 17.5916 126.256 17.4121 127.154 17.4121C128.051 17.4121 128.889 17.5916 129.607 18.0105C130.325 18.4293 130.923 19.0277 131.342 19.7457C131.761 20.4638 132 21.3015 132 22.2589C132 23.2163 131.761 24.054 131.342 24.772C130.923 25.4901 130.325 26.0885 129.607 26.5073C128.889 26.9262 128.051 27.1057 127.154 27.1057C126.256 27.1655 125.478 26.9262 124.7 26.5073ZM129.009 24.2933C129.487 23.8147 129.667 23.0966 129.667 22.3187C129.667 21.481 129.427 20.8228 129.009 20.2843C128.53 19.8056 127.932 19.5064 127.214 19.5064C126.436 19.5064 125.837 19.7457 125.359 20.2244C124.88 20.7031 124.7 21.4212 124.7 22.2589C124.7 23.0966 124.94 23.7548 125.359 24.2933C125.837 24.772 126.436 25.0712 127.214 25.0712C127.932 25.0114 128.53 24.772 129.009 24.2933Z" fill="white"/>
<path d="M117.483 7.1748C117.334 7.1748 117.185 7.22441 117.086 7.32363C116.987 7.42285 116.887 7.57167 116.838 7.7205H117.979C117.979 7.67089 117.979 7.62128 117.979 7.62128C117.979 7.47246 117.929 7.37324 117.83 7.27402C117.78 7.1748 117.632 7.1748 117.483 7.1748Z" fill="#FDB730"/>
<path d="M114.259 6.43066H113.663L113.515 7.2244H114.11C114.259 7.2244 114.408 7.17479 114.507 7.12518C114.606 7.07557 114.656 6.97636 114.656 6.82753C114.656 6.82753 114.656 6.77792 114.656 6.72831C114.656 6.6291 114.606 6.52988 114.556 6.48027C114.507 6.43066 114.408 6.43066 114.259 6.43066Z" fill="#FDB730"/>
<path d="M123.09 7.22363C122.891 7.22363 122.742 7.27324 122.594 7.42207C122.445 7.57089 122.346 7.71972 122.296 7.96776C122.296 8.01737 122.296 8.06697 122.296 8.16619C122.296 8.36462 122.346 8.46384 122.445 8.56306C122.544 8.66227 122.693 8.71188 122.842 8.71188C123.04 8.71188 123.189 8.66227 123.338 8.51345C123.486 8.36462 123.586 8.2158 123.635 7.96776C123.635 7.91815 123.635 7.86854 123.635 7.76932C123.635 7.57089 123.586 7.47167 123.486 7.37246C123.387 7.27324 123.238 7.22363 123.09 7.22363Z" fill="#FDB730"/>
<path d="M114.11 7.86914H113.465L113.316 8.71248H114.011C114.16 8.71248 114.309 8.66287 114.408 8.61327C114.507 8.56366 114.557 8.41483 114.606 8.31562C114.606 8.26601 114.606 8.2164 114.606 8.2164C114.606 8.11718 114.557 8.01797 114.507 7.96836C114.309 7.91875 114.209 7.86914 114.11 7.86914Z" fill="#FDB730"/>
<path d="M124.428 4H112.572C110.587 4 109 5.58747 109 7.5718C109 9.55614 110.587 11.1436 112.572 11.1436H124.428C126.413 11.1436 128 9.55614 128 7.5718C128 5.58747 126.413 4 124.428 4ZM115.648 6.67885C115.598 6.87728 115.499 7.07572 115.35 7.22454C115.201 7.37337 115.052 7.47258 114.854 7.52219C115.052 7.5718 115.151 7.67102 115.3 7.77023C115.399 7.91906 115.449 8.06788 115.449 8.26632C115.449 8.31593 115.449 8.36553 115.449 8.41514C115.399 8.71279 115.251 8.96083 115.003 9.15927C114.755 9.3577 114.407 9.45692 114.01 9.45692H112.225L112.869 5.68668H114.556C114.903 5.68668 115.151 5.73629 115.35 5.88512C115.548 6.03394 115.648 6.23238 115.648 6.48042C115.648 6.53003 115.648 6.57963 115.648 6.67885ZM118.872 7.91906C118.872 8.01828 118.822 8.06788 118.822 8.1671H116.739C116.739 8.1671 116.739 8.21671 116.739 8.26632C116.739 8.41514 116.789 8.56397 116.888 8.61358C116.987 8.71279 117.086 8.7624 117.235 8.7624C117.483 8.7624 117.632 8.66319 117.781 8.46475H118.773C118.624 8.7624 118.426 9.01044 118.128 9.20888C117.83 9.40731 117.533 9.50653 117.136 9.50653C116.739 9.50653 116.441 9.40731 116.193 9.15927C115.945 8.96083 115.846 8.66318 115.846 8.26632C115.846 8.1671 115.846 8.01828 115.896 7.91906C115.945 7.62141 116.044 7.32376 116.243 7.07572C116.392 6.82768 116.64 6.67885 116.888 6.53003C117.136 6.3812 117.433 6.33159 117.731 6.33159C118.128 6.33159 118.426 6.43081 118.674 6.62924C118.922 6.82768 119.021 7.12533 119.021 7.47258C118.922 7.72063 118.922 7.81984 118.872 7.91906ZM121.154 7.22454H120.559L120.36 8.41514V8.46475C120.36 8.51436 120.36 8.56397 120.41 8.61358C120.46 8.66319 120.509 8.66318 120.608 8.66318H120.956L120.807 9.45692H120.36C119.765 9.45692 119.467 9.20888 119.467 8.71279C119.467 8.61358 119.467 8.56397 119.517 8.41514L119.715 7.22454H119.269L119.418 6.48042H119.765L119.914 5.73629H120.856L120.708 6.48042H121.303L121.154 7.22454ZM124.279 9.45692H123.337L123.436 9.01044C123.337 9.15927 123.188 9.25849 122.99 9.3577C122.791 9.45692 122.642 9.50653 122.394 9.50653C122.196 9.50653 121.997 9.45692 121.849 9.3577C121.7 9.25849 121.551 9.10966 121.452 8.96083C121.352 8.7624 121.303 8.56397 121.303 8.31593C121.303 8.21671 121.303 8.06788 121.352 7.96867C121.402 7.67102 121.501 7.37337 121.65 7.17493C121.799 6.92689 121.997 6.77807 122.245 6.62924C122.444 6.48042 122.692 6.43081 122.94 6.43081C123.138 6.43081 123.337 6.48042 123.486 6.57963C123.634 6.67885 123.734 6.77807 123.783 6.92689L123.883 6.48042H124.825L124.279 9.45692Z" fill="#FDB730"/>
</svg>
