<svg width="26" height="21" viewBox="0 0 26 21" fill="none" xmlns="http://www.w3.org/2000/svg">
<path fill-rule="evenodd" clip-rule="evenodd" d="M17.6111 10.104C13.2563 10.9623 10.9618 13.2571 10.1034 17.6119H9.29566C8.43717 13.2571 6.1427 10.9623 1.7879 10.104V9.29603C6.1427 8.4377 8.43717 6.14291 9.29566 1.78809H10.1034C10.9616 6.14311 13.2563 8.4377 17.6109 9.29623V10.104H17.6111Z" fill="#7D8890"/>
<path fill-rule="evenodd" clip-rule="evenodd" d="M10.2696 15.7911C10.2696 15.7911 10.4471 15.2284 10.1025 17.6122C9.75793 19.9962 9.64107 19.9962 9.29648 17.6122C8.95189 15.2282 10.2696 15.7911 10.2696 15.7911Z" fill="#7D8890"/>
<path fill-rule="evenodd" clip-rule="evenodd" d="M15.7901 9.12997C15.7901 9.12997 15.2275 8.9524 17.6112 9.29701C19.995 9.64162 19.995 9.75848 17.6112 10.1031C15.2273 10.4477 15.7901 9.12997 15.7901 9.12997Z" fill="#7D8890"/>
<path fill-rule="evenodd" clip-rule="evenodd" d="M9.12942 3.60913C9.12942 3.60913 8.95185 4.17178 9.29645 1.78799C9.64104 -0.595998 9.7579 -0.595998 10.1025 1.78799C10.4471 4.17198 9.12942 3.60913 9.12942 3.60913Z" fill="#7D8890"/>
<path fill-rule="evenodd" clip-rule="evenodd" d="M3.60894 10.2701C3.60894 10.2701 4.17156 10.4477 1.7879 10.1031C-0.595967 9.75845 -0.595967 9.64158 1.7879 9.29697C4.17177 8.95236 3.60894 10.2701 3.60894 10.2701Z" fill="#7D8890"/>
<path fill-rule="evenodd" clip-rule="evenodd" d="M24.4768 16.0678C22.2994 16.497 21.1523 17.6442 20.723 19.8217H20.3192C19.8899 17.6442 18.7426 16.4968 16.5652 16.0678V15.6639C18.7426 15.2346 19.8897 14.0874 20.3192 11.9099H20.723C21.1523 14.0874 22.2994 15.2346 24.4768 15.6641V16.068V16.0678Z" fill="#7D8890"/>
<path fill-rule="evenodd" clip-rule="evenodd" d="M20.8059 18.911C20.8059 18.911 20.8947 18.6296 20.7225 19.8216C20.5501 21.0136 20.4919 21.0136 20.3195 19.8216C20.1471 18.6296 20.8061 18.911 20.8061 18.911H20.8059Z" fill="#7D8890"/>
<path fill-rule="evenodd" clip-rule="evenodd" d="M23.5662 15.5807C23.5662 15.5807 23.2848 15.4919 24.4768 15.6643C25.6687 15.8367 25.6687 15.895 24.4768 16.0674C23.2848 16.2398 23.5662 15.5807 23.5662 15.5807Z" fill="#7D8890"/>
<path fill-rule="evenodd" clip-rule="evenodd" d="M20.2359 12.8202C20.2359 12.8202 20.1471 13.1016 20.3195 11.9096C20.4919 10.7176 20.5502 10.7176 20.7226 11.9096C20.895 13.1016 20.2359 12.8202 20.2359 12.8202Z" fill="#7D8890"/>
<path fill-rule="evenodd" clip-rule="evenodd" d="M17.4759 16.151C17.4759 16.151 17.7573 16.2397 16.5653 16.0675C15.3734 15.8951 15.3734 15.8369 16.5653 15.6645C17.7573 15.4921 17.4759 16.1512 17.4759 16.1512V16.151Z" fill="#7D8890"/>
</svg>
