<svg width="124" height="100" viewBox="0 0 124 100" fill="none" xmlns="http://www.w3.org/2000/svg">
<path d="M61.6693 23.3079C82.1166 23.3079 101.66 31.5037 115.984 45.9254L123.339 38.5702C107.072 22.2058 84.8818 12.9113 61.6693 12.9113C38.4567 12.9113 16.2663 22.2058 0 38.5702L7.35499 45.9254C21.6786 31.5042 41.2219 23.3079 61.6693 23.3079Z" fill="url(#paint0_linear_824_4127)"/>
<path d="M61.7812 33.4701C43.9197 33.0792 26.6359 39.9142 13.6992 52.2697L21.053 59.6236C31.989 49.2667 46.5358 43.5479 61.5684 43.8647C76.5438 44.1707 90.6856 50.3659 100.94 60.9696L108.288 53.6206C96.1434 41.1288 79.4485 33.8313 61.7808 33.4701H61.7812Z" fill="url(#paint1_linear_824_4127)"/>
<path d="M61.6695 52.9866C49.1581 52.9866 37.2241 58.17 28.6689 67.2397L36.0223 74.5932C42.631 67.4637 51.9229 63.3828 61.6691 63.3828C71.4157 63.3828 80.7076 67.4633 87.3163 74.5928L94.6696 67.2393C86.1149 58.1691 74.1808 52.9857 61.6691 52.9861L61.6695 52.9866Z" fill="url(#paint2_linear_824_4127)"/>
<path d="M69.0208 92.6485C73.0809 88.5884 73.0809 82.0056 69.0209 77.9454C64.9608 73.8853 58.3782 73.8853 54.3181 77.9454C50.2581 82.0056 50.2581 88.5884 54.3182 92.6485C58.3782 96.7086 64.9608 96.7086 69.0208 92.6485Z" fill="url(#paint3_linear_824_4127)"/>
<path d="M56.3141 69.9399H66.8364C68.9534 69.9399 70.67 67.935 70.67 65.4622V4.4777C70.67 2.00486 68.9534 0 66.8364 0H56.3141C54.197 0 52.4805 2.00486 52.4805 4.4777V65.4622C52.4805 67.935 54.197 69.9399 56.3141 69.9399Z" fill="url(#paint4_linear_824_4127)"/>
<defs>
<linearGradient id="paint0_linear_824_4127" x1="61.6693" y1="12.9113" x2="61.6693" y2="45.9254" gradientUnits="userSpaceOnUse">
<stop stop-color="#CECECE"/>
<stop offset="1" stop-opacity="0.09"/>
</linearGradient>
<linearGradient id="paint1_linear_824_4127" x1="60.9938" y1="33.4542" x2="60.9938" y2="60.9696" gradientUnits="userSpaceOnUse">
<stop stop-color="#CECECE"/>
<stop offset="1" stop-opacity="0.09"/>
</linearGradient>
<linearGradient id="paint2_linear_824_4127" x1="61.6693" y1="52.9861" x2="61.6693" y2="74.5932" gradientUnits="userSpaceOnUse">
<stop stop-color="#CECECE"/>
<stop offset="1" stop-opacity="0.09"/>
</linearGradient>
<linearGradient id="paint3_linear_824_4127" x1="46.7835" y1="79.7448" x2="69.9872" y2="71.7786" gradientUnits="userSpaceOnUse">
<stop stop-color="#E2007F"/>
<stop offset="1" stop-color="#1E4CED"/>
</linearGradient>
<linearGradient id="paint4_linear_824_4127" x1="92.5039" y1="7.44285" x2="43.0622" y2="64.3274" gradientUnits="userSpaceOnUse">
<stop stop-color="#FF006B"/>
<stop offset="1" stop-color="#1E4CED"/>
</linearGradient>
</defs>
</svg>
