<svg width="148" height="101" viewBox="0 0 148 101" fill="none" xmlns="http://www.w3.org/2000/svg">
<rect width="122" height="87.1716" rx="10" fill="url(#paint0_linear_1799_15393)"/>
<path d="M0 7C0 3.13401 3.13401 0 7 0H115C118.866 0 122 3.13401 122 7V56H0V7Z" fill="#F4F4F4"/>
<circle cx="61.0001" cy="53.8216" r="7.9881" fill="white"/>
<path d="M51.5596 67.619C51.5596 66.4158 52.5349 65.4404 53.7381 65.4404H68.262C69.4651 65.4404 70.4405 66.4158 70.4405 67.619C70.4405 68.8222 69.4651 69.7976 68.262 69.7976H53.7381C52.5349 69.7976 51.5596 68.8222 51.5596 67.619Z" fill="white"/>
<rect x="43.5715" y="73.7026" width="34.8571" height="4.35714" rx="2.17857" fill="white"/>
<path d="M119.797 100.59C135.149 100.59 147.594 88.1458 147.594 72.795C147.594 57.4442 135.149 45 119.797 45C104.445 45 92 57.4442 92 72.795C92 88.1458 104.445 100.59 119.797 100.59Z" fill="url(#paint1_linear_1799_15393)"/>
<path d="M120 101C104.561 101 92 88.436 92 72.998C92 57.5599 104.561 45 120 45C135.439 45 148 57.5599 148 72.998C148 88.436 135.439 100.996 120 100.996V101ZM120 45.4059C104.784 45.4059 92.406 57.7832 92.406 72.998C92.406 88.2128 104.784 100.59 120 100.59C135.216 100.59 147.594 88.2128 147.594 72.998C147.594 57.7832 135.216 45.4059 120 45.4059Z" fill="#D9D9D9"/>
<path d="M131.213 86.2723C130.685 86.2723 130.158 86.0693 129.756 85.6675L107.33 63.2431C106.526 62.4393 106.526 61.1322 107.33 60.3284C108.134 59.5246 109.441 59.5246 110.245 60.3284L132.671 82.7528C133.474 83.5565 133.474 84.8637 132.671 85.6675C132.269 86.0693 131.741 86.2723 131.213 86.2723Z" fill="white"/>
<path d="M108.787 86.2723C108.259 86.2723 107.732 86.0693 107.33 85.6675C106.526 84.8637 106.526 83.5565 107.33 82.7528L129.756 60.3284C130.559 59.5246 131.867 59.5246 132.671 60.3284C133.474 61.1322 133.474 62.4393 132.671 63.2431L110.245 85.6675C109.843 86.0693 109.315 86.2723 108.787 86.2723Z" fill="white"/>
<defs>
<linearGradient id="paint0_linear_1799_15393" x1="61" y1="0" x2="61" y2="87.1716" gradientUnits="userSpaceOnUse">
<stop stop-color="#CECECE"/>
<stop offset="1" stop-opacity="0.09"/>
</linearGradient>
<linearGradient id="paint1_linear_1799_15393" x1="94.4751" y1="56.118" x2="146.454" y2="57.7376" gradientUnits="userSpaceOnUse">
<stop stop-color="#E2007F"/>
<stop offset="1" stop-color="#1E4CED"/>
</linearGradient>
</defs>
</svg>
