<svg width="29" height="14" viewBox="0 0 29 14" fill="none" xmlns="http://www.w3.org/2000/svg">
<path d="M5.17322 3.7828C5.19217 3.81122 6.17431 2.90241 6.21043 2.8649C6.8879 2.16219 7.44332 1.36309 8.30944 0.879939C9.31258 0.320361 10.4604 0.190549 11.5754 0.35864C12.5217 0.501254 13.4047 1.11562 14.2766 1.50788C14.749 1.72039 15.2195 2.00396 15.7159 2.14849C16.2601 2.30698 16.6706 2.3153 17.2317 2.33015C18.2875 2.35806 19.3425 2.2431 20.3957 2.32324C20.6426 2.34206 20.9021 2.36664 21.107 2.51028C21.4991 2.78514 21.5259 3.41359 21.2714 3.82659C21.0168 4.23958 20.7278 4.47399 20.2797 4.6326C19.0774 5.05802 17.7775 5.07389 16.5086 5.00361C15.2398 4.93332 13.8048 4.69687 12.5382 4.80313C12.4403 4.81132 12.4706 4.97647 12.5278 5.05891C13.4243 5.15493 14.3206 5.25107 15.2171 5.34709C16.7249 5.50865 18.2625 5.66893 19.7453 5.34196C20.3217 5.21484 20.8949 5.00822 21.3557 4.62825C21.8165 4.24829 22.1528 3.6736 22.15 3.06422C22.1494 2.96206 22.1411 2.8535 22.1894 2.76427C22.2297 2.68989 22.3029 2.64201 22.3736 2.59797C22.855 2.29777 23.3662 2.06643 23.8577 1.78812C24.8839 1.20716 26.3436 0.508424 27.4495 0.109128C27.6681 0.0302671 27.9073 -0.0443689 28.1268 0.0318033C28.4962 0.16008 28.6212 0.671266 28.4848 1.04867C28.3484 1.42595 28.0342 1.69863 27.7378 1.95979C26.1428 3.36482 24.2134 4.83027 22.3191 5.76878C20.3682 6.73534 18.2644 7.37211 16.1193 7.65888C14.8319 7.83094 13.5285 7.87677 12.233 7.79138C11.5507 7.74645 10.9673 7.75733 10.3442 8.07367C9.77119 8.36453 9.24919 8.7491 8.75869 9.16927C8.75869 9.16927 5.20062 3.8239 5.17322 3.7828V3.7828Z" fill="#7D8890"/>
<path d="M3.95444 2.84644L0 5.65085L5.53952 14L9.49395 11.1955L3.95444 2.84644ZM6.54778 12.5542C6.05934 12.5542 5.66336 12.1448 5.66336 11.6399C5.66336 11.135 6.05934 10.7256 6.54778 10.7256C7.03623 10.7256 7.43221 11.135 7.43221 11.6399C7.43221 12.1448 7.03623 12.5542 6.54778 12.5542V12.5542Z" fill="#7D8890"/>
</svg>
