<svg id="Layer_1" data-name="Layer 1" xmlns="http://www.w3.org/2000/svg" viewBox="0 0 20 15.80573">

  <g>
    <polygon class="cls-1" points="5.949 7.924 5.949 7.924 5.949 7.923 5.949 7.924"/>
    <path class="cls-1" d="M10.08,3.854l-.03089-.00018A4.09938,4.09938,0,0,0,5.94934,7.92371l-.00012.029a4.103,4.103,0,0,0,4.07349,4.101l.00128.00006.02917.00006A4.09936,4.09936,0,0,0,14.153,7.98352l-.76477-.00525.76477.005.00013-.0282A4.103,4.103,0,0,0,10.08,3.854Zm2.54345,4.119a2.56921,2.56921,0,0,1-2.57025,2.55127l-.02057-.00006h.00128A2.57307,2.57307,0,0,1,7.47876,7.95276l.00006-.01636.00006-.00232v.00061a2.56922,2.56922,0,0,1,2.57019-2.55127l.0163.00006h.003a2.57307,2.57307,0,0,1,2.555,2.57154l-.00006.018Z"/>
    <polygon class="cls-1" points="10.08 3.854 10.08 3.854 10.083 3.854 10.08 3.854"/>
    <path class="cls-1" d="M19.88867,7.62152l-.71112.28137V7.90283l.71112-.28131a14.23188,14.23188,0,0,0-3.21582-4.73035A9.57021,9.57021,0,0,0,10,0,9.57048,9.57048,0,0,0,3.32709,2.89117,14.23173,14.23173,0,0,0,.11127,7.62152l.71118.28131-.00006.00006L.11127,7.62152,0,7.90289l.11127.28131a14.23044,14.23044,0,0,0,3.21582,4.73035A9.57019,9.57019,0,0,0,10,15.80573a9.56993,9.56993,0,0,0,6.67285-2.89118A14.23059,14.23059,0,0,0,19.88867,8.1842L20,7.90289ZM15.6109,11.81384A8.04683,8.04683,0,0,1,10,14.27618a8.04671,8.04671,0,0,1-5.6109-2.46234,12.6931,12.6931,0,0,1-2.72565-3.911A12.69284,12.69284,0,0,1,4.3891,3.992,8.04656,8.04656,0,0,1,10,1.5296,8.04667,8.04667,0,0,1,15.6109,3.992a12.69389,12.69389,0,0,1,2.72565,3.91083A12.69415,12.69415,0,0,1,15.6109,11.81384Z"/>
  </g>
</svg>
