<svg width="80" height="80" viewBox="0 0 80 80" fill="none" xmlns="http://www.w3.org/2000/svg">
<path d="M10.9059 0.0415039L11.4286 0.2058C11.4286 0.2058 11.4132 0.216549 11.3854 0.233439L13.9153 1.10098C13.9153 1.10098 7.70693 3.28751 7.58205 3.34893C7.45717 3.41188 0.903432 3.94162 0.903432 3.94162L0 3.90784C0 3.90784 2.11829 2.19117 5.67806 1.05185L5.6796 1.05031C5.68114 1.05031 8.52402 0.0952457 10.9059 0.0415039Z" fill="url(#paint0_linear_2507_9180)"/>
<path d="M13.9551 0.783422C13.7762 0.608378 13.6035 0.43794 13.5773 0.417978C13.5188 0.371914 10.7391 0.279785 10.7391 0.279785L10.3829 0.365772L10.3675 0.364237C10.3089 0.379591 10.2504 0.396482 10.1918 0.411836L10.1702 0.416443C4.20693 2.04252 0.903076 3.94344 0.903076 3.94344H19.0889V1.38226L13.9551 0.783422Z" fill="#7A004E"/>
<path d="M79.9999 69.1379L79.8349 68.6174C79.8349 68.6174 79.8241 68.6327 79.8072 68.6603L78.9361 66.1406C78.9361 66.1406 76.7407 72.324 76.6791 72.4484C76.6159 72.5727 76.084 79.1001 76.084 79.1001L76.1194 79.9999C76.1194 79.9999 77.8431 77.8901 78.987 74.3447L78.9885 74.3432C78.987 74.3416 79.9459 71.5102 79.9999 69.1379Z" fill="url(#paint1_linear_2507_9180)"/>
<path d="M76.0825 60.9859V79.0984C76.0825 79.0984 78.0343 75.7373 79.6762 69.6721L78.6525 60.9844H76.0825V60.9859Z" fill="#7A004E"/>
<path d="M79.9999 69.3868L79.9675 2.55504C79.9675 2.55504 79.6731 0.330128 77.4808 0.0506708C77.3713 0.0322451 77.2603 0.0214967 77.1462 0.0214967C77.0198 0.0214967 76.8841 0.0214967 76.7469 0.0214967C75.9884 0.0214967 74.4483 0 73.4061 0C71.3433 0 69.4008 0.0214967 66.4977 0.0214967C49.4327 0.0199612 20.8929 0.0184258 16.9154 0.0214967C14.8017 0.0245677 13.0303 0.0261031 11.7676 0.0276386C10.5204 0.0291741 9.66631 0.132051 9.57227 0.132051C10.0147 0.178116 9.7326 0.391547 10.2121 0.377728C12.2409 0.320915 13.5653 0.813804 15.2179 1.84104C15.5093 2.02223 15.8716 2.32779 16.1476 2.53201C16.8228 3.03564 19.2926 5.36957 19.8924 5.96227C22.561 8.59561 23.3303 9.46776 25.9959 12.1026C31.8297 17.8684 41.0274 26.9338 47.373 33.2646C53.9653 39.8411 61.0309 46.9089 66.4962 52.4013C68.835 54.7506 71.1567 57.1168 73.5186 59.4415C74.6626 60.57 75.6508 61.5727 76.7454 62.9869C76.935 63.231 77.1246 63.4798 77.3204 63.75C77.5949 64.1278 77.877 64.4963 78.1329 64.8817C78.4289 65.3239 78.6309 65.7016 78.9007 66.3281C79.1921 67.0022 79.6222 68.6221 79.5389 70.1484C79.8226 70.0701 79.9197 69.6524 79.9521 69.0843L79.9999 69.3868Z" fill="url(#paint2_linear_2507_9180)"/>
<path d="M40.5456 12.6043C40.0323 12.091 39.6797 11.4998 39.4878 10.8309C39.3011 10.1672 39.2933 9.49565 39.4645 8.81636C39.6459 8.13706 40.0037 7.53037 40.5378 6.99627C41.0719 6.46216 41.6761 6.10696 42.3502 5.93066C43.0295 5.75954 43.701 5.76731 44.3647 5.95399C45.0336 6.14585 45.6248 6.49846 46.1381 7.01182C46.6515 7.52518 47.0015 8.11373 47.1882 8.77747C47.38 9.44639 47.3852 10.1153 47.2037 10.7842C47.0274 11.4583 46.6722 12.0624 46.1381 12.5966C45.604 13.1307 44.9973 13.4884 44.318 13.6699C43.6439 13.8462 42.975 13.8411 42.3113 13.6544C41.6475 13.4677 41.059 13.1177 40.5456 12.6043ZM41.759 11.3909C42.1946 11.8265 42.6872 12.0287 43.2369 11.9976C43.7917 11.9717 44.3077 11.7202 44.7847 11.2431C45.267 10.7609 45.5185 10.2449 45.5392 9.69529C45.5703 9.14563 45.3681 8.65302 44.9325 8.21744C44.4918 7.77668 43.9965 7.56666 43.4469 7.58741C42.9024 7.61333 42.3865 7.87001 41.899 8.35745C41.4168 8.83969 41.1601 9.35564 41.129 9.9053C41.1082 10.455 41.3183 10.9502 41.759 11.3909ZM49.0793 13.7954C49.4734 13.7125 49.8545 13.7202 50.2227 13.8188C50.5961 13.9121 50.9253 14.1014 51.2105 14.3866L49.8027 15.7944L49.4371 15.4288C49.1052 15.097 48.7837 14.9207 48.4726 14.8999C48.1667 14.874 47.8348 15.0399 47.477 15.3977L45.4625 17.4123L44.1324 16.0822L48.4726 11.742L49.8027 13.0721L49.0793 13.7954ZM52.9197 15.2868C52.6863 15.0534 52.5619 14.7941 52.5463 14.5089C52.5411 14.2237 52.6397 13.98 52.8419 13.7778C53.0493 13.5704 53.293 13.4719 53.573 13.4822C53.8634 13.4926 54.1253 13.6145 54.3586 13.8478C54.5868 14.076 54.7035 14.3326 54.7086 14.6178C54.7242 14.903 54.6283 15.1494 54.4209 15.3568C54.2186 15.559 53.9723 15.6549 53.6819 15.6446C53.4019 15.6342 53.1478 15.5149 52.9197 15.2868ZM53.1297 16.399L48.7895 20.7393L47.4594 19.4092L51.7996 15.069L53.1297 16.399ZM55.8048 18.9497C56.1107 19.2556 56.3155 19.5849 56.4192 19.9375C56.5281 20.2953 56.5437 20.6375 56.4659 20.9642L57.0804 20.3498L58.4105 21.6798L54.078 26.0123C53.6787 26.4115 53.238 26.6916 52.7557 26.8523C52.2735 27.0234 51.7731 27.0416 51.2545 26.9068C50.7412 26.7771 50.2434 26.4712 49.7611 25.9889C49.1181 25.3459 48.75 24.6718 48.6566 23.9666C48.5581 23.2666 48.7396 22.6288 49.2011 22.0532L50.5156 23.3677C50.3912 23.5751 50.36 23.8033 50.4223 24.0522C50.4793 24.3062 50.6219 24.5474 50.8501 24.7755C51.1249 25.0504 51.4231 25.1878 51.7446 25.1878C52.0661 25.1981 52.4005 25.0296 52.7479 24.6822L53.3624 24.0677C53.0305 24.1403 52.6857 24.1274 52.3279 24.0288C51.9753 23.9251 51.646 23.7203 51.3401 23.4144C50.9823 23.0566 50.7489 22.6417 50.6401 22.1698C50.5363 21.6928 50.5675 21.2002 50.7334 20.692C50.9097 20.1838 51.2208 19.7068 51.6668 19.2608C52.1127 18.8149 52.5872 18.5063 53.0902 18.3352C53.5984 18.1693 54.0884 18.1407 54.5603 18.2496C55.0321 18.3585 55.447 18.5919 55.8048 18.9497ZM54.9103 22.5199C55.2421 22.188 55.4107 21.8328 55.4159 21.4543C55.4262 21.0809 55.2992 20.762 55.0347 20.4975C54.7703 20.2331 54.4488 20.1034 54.0702 20.1086C53.7021 20.1138 53.352 20.2823 53.0202 20.6142C52.6883 20.9461 52.5146 21.3013 52.499 21.6798C52.4939 22.0584 52.6235 22.3799 52.8879 22.6443C53.1524 22.9088 53.4713 23.0358 53.8447 23.0254C54.2232 23.0203 54.5784 22.8517 54.9103 22.5199ZM60.4928 22.8599C60.2594 22.6265 60.135 22.3672 60.1194 22.082C60.1142 21.7968 60.2127 21.5531 60.415 21.3509C60.6224 21.1435 60.8661 21.0449 61.1461 21.0553C61.4365 21.0657 61.6984 21.1875 61.9317 21.4209C62.1599 21.649 62.2765 21.9057 62.2817 22.1909C62.2973 22.4761 62.2014 22.7224 61.9939 22.9299C61.7917 23.1321 61.5454 23.228 61.255 23.2176C60.975 23.2073 60.7209 23.088 60.4928 22.8599ZM60.7028 23.9721L56.3625 28.3124L55.0325 26.9823L59.3727 22.6421L60.7028 23.9721ZM64.3579 27.5339C64.8661 28.0421 65.1046 28.6125 65.0735 29.2451C65.0527 29.8778 64.7546 30.4819 64.179 31.0574L61.6433 33.5931L60.321 32.2708L62.6778 29.914C62.9682 29.6237 63.1186 29.3229 63.1289 29.0118C63.1393 28.7007 63.0175 28.418 62.7634 28.164C62.5093 27.9099 62.2267 27.788 61.9156 27.7984C61.6044 27.8088 61.3037 27.9591 61.0133 28.2495L58.6565 30.6063L57.3264 29.2762L61.6666 24.936L62.9967 26.2661L62.4211 26.8417C62.7478 26.7846 63.0797 26.8157 63.4167 26.935C63.759 27.0491 64.0727 27.2487 64.3579 27.5339ZM64.481 32.075C64.927 31.6291 65.4014 31.3206 65.9044 31.1494C66.4126 30.9835 66.9026 30.955 67.3745 31.0639C67.8464 31.1728 68.2612 31.4061 68.619 31.7639C68.9249 32.0699 69.1298 32.3991 69.2335 32.7517C69.3424 33.1095 69.3579 33.4518 69.2801 33.7785L69.8946 33.164L71.2247 34.4941L66.8845 38.8343L65.5544 37.5042L66.1689 36.8897C65.837 36.9623 65.4922 36.9442 65.1344 36.8353C64.7818 36.7316 64.4525 36.5268 64.1466 36.2208C63.7939 35.8682 63.5632 35.456 63.4543 34.9841C63.3506 34.507 63.3817 34.0144 63.5476 33.5062C63.7239 32.9981 64.0351 32.521 64.481 32.075ZM67.7245 35.3341C68.0564 35.0022 68.2249 34.647 68.2301 34.2685C68.2405 33.8951 68.1134 33.5762 67.849 33.3118C67.5845 33.0473 67.263 32.9177 66.8845 32.9229C66.5163 32.9281 66.1663 33.0966 65.8344 33.4284C65.5025 33.7603 65.3288 34.1155 65.3133 34.4941C65.3081 34.8726 65.4377 35.1941 65.7022 35.4586C65.9666 35.723 66.2855 35.8501 66.6589 35.8397C67.0374 35.8345 67.3926 35.666 67.7245 35.3341ZM74.9326 35.3707L69.1768 41.1266L67.8467 39.7965L73.6026 34.0407L74.9326 35.3707Z" fill="white"/>
<defs>
<linearGradient id="paint0_linear_2507_9180" x1="6.95833" y1="3.94422" x2="6.95833" y2="0.0424235" gradientUnits="userSpaceOnUse">
<stop stop-color="#1E4CED"/>
<stop offset="0.9704" stop-color="#E2007F"/>
</linearGradient>
<linearGradient id="paint1_linear_2507_9180" x1="76.0821" y1="73.0696" x2="79.9998" y2="73.0696" gradientUnits="userSpaceOnUse">
<stop stop-color="#1E4CED"/>
<stop offset="0.9704" stop-color="#E2007F"/>
</linearGradient>
<linearGradient id="paint2_linear_2507_9180" x1="15.5" y1="16" x2="97" y2="27" gradientUnits="userSpaceOnUse">
<stop offset="0.222222" stop-color="#1E4CED"/>
<stop offset="0.9704" stop-color="#E2007F"/>
</linearGradient>
</defs>
</svg>
