<svg width="80" height="80" viewBox="0 0 80 80" fill="none" xmlns="http://www.w3.org/2000/svg">
<path d="M10.9059 0.041626L11.4286 0.205922C11.4286 0.205922 11.4132 0.216671 11.3854 0.233561L13.9153 1.10111C13.9153 1.10111 7.70693 3.28763 7.58205 3.34905C7.45717 3.412 0.903432 3.94174 0.903432 3.94174L0 3.90796C0 3.90796 2.11829 2.1913 5.67806 1.05197L5.6796 1.05044C5.68114 1.05044 8.52402 0.0953678 10.9059 0.041626Z" fill="url(#paint0_linear_3731_11300)"/>
<path d="M13.9551 0.783361C13.7762 0.608317 13.6035 0.437879 13.5773 0.417917C13.5188 0.371853 10.7391 0.279724 10.7391 0.279724L10.3829 0.365711L10.3675 0.364175C10.3089 0.37953 10.2504 0.396421 10.1918 0.411775L10.1702 0.416382C4.20693 2.04245 0.903076 3.94338 0.903076 3.94338H19.0889V1.3822L13.9551 0.783361Z" fill="#7A004E"/>
<path d="M79.9999 69.1379L79.8349 68.6174C79.8349 68.6174 79.8241 68.6327 79.8072 68.6604L78.9361 66.1407C78.9361 66.1407 76.7407 72.324 76.6791 72.4484C76.6159 72.5728 76.084 79.1001 76.084 79.1001L76.1194 79.9999C76.1194 79.9999 77.8431 77.8901 78.987 74.3447L78.9885 74.3432C78.987 74.3417 79.9459 71.5102 79.9999 69.1379Z" fill="url(#paint1_linear_3731_11300)"/>
<path d="M76.0825 60.9859V79.0985C76.0825 79.0985 78.0343 75.7373 79.6762 69.6721L78.6525 60.9844H76.0825V60.9859Z" fill="#7A004E"/>
<path d="M79.9999 69.3868L79.9675 2.55504C79.9675 2.55504 79.6731 0.330128 77.4808 0.0506708C77.3713 0.0322451 77.2603 0.0214967 77.1462 0.0214967C77.0198 0.0214967 76.8841 0.0214967 76.7469 0.0214967C75.9884 0.0214967 74.4483 0 73.4061 0C71.3433 0 69.4008 0.0214967 66.4977 0.0214967C49.4327 0.0199612 20.8929 0.0184258 16.9154 0.0214967C14.8017 0.0245677 13.0303 0.0261031 11.7676 0.0276386C10.5204 0.0291741 9.66631 0.132051 9.57227 0.132051C10.0147 0.178116 9.7326 0.391547 10.2121 0.377728C12.2409 0.320915 13.5653 0.813804 15.2179 1.84104C15.5093 2.02223 15.8716 2.32779 16.1476 2.53201C16.8228 3.03564 19.2926 5.36957 19.8924 5.96227C22.561 8.59561 23.3303 9.46776 25.9959 12.1026C31.8297 17.8684 41.0274 26.9338 47.373 33.2646C53.9653 39.8411 61.0309 46.9089 66.4962 52.4013C68.835 54.7506 71.1567 57.1168 73.5186 59.4415C74.6626 60.57 75.6508 61.5727 76.7454 62.9869C76.935 63.231 77.1246 63.4798 77.3204 63.75C77.5949 64.1278 77.877 64.4963 78.1329 64.8817C78.4289 65.3239 78.6309 65.7016 78.9007 66.3281C79.1921 67.0022 79.6222 68.6221 79.5389 70.1484C79.8226 70.0701 79.9197 69.6524 79.9521 69.0843L79.9999 69.3868Z" fill="url(#paint2_linear_3731_11300)"/>
<path d="M54.4882 15.9389L46.9787 20.3428L45.2223 18.5863L48.1921 13.7158L43.2876 16.6517L41.5312 14.8952L45.9775 7.4282L47.5303 8.98101L44.0513 14.174L49.4479 10.8987L51.0432 12.4939L47.7254 17.8481L52.9269 14.3776L54.4882 15.9389ZM54.0194 25.2792L51.7963 23.056L50.3877 23.7518L48.8689 22.233L56.9808 18.4316L58.6609 20.1116L54.8595 28.2236L53.3236 26.6877L54.0194 25.2792ZM54.7661 23.7858L56.2086 20.8668L53.2982 22.3178L54.7661 23.7858ZM63.7037 25.1545C64.3316 25.7824 64.7559 26.4556 64.9765 27.174C65.1971 27.8924 65.2085 28.6052 65.0105 29.3123C64.8238 30.0194 64.4363 30.6671 63.848 31.2554C63.2653 31.8381 62.6176 32.2256 61.9049 32.4179C61.1977 32.6159 60.4822 32.6017 59.7581 32.3755C59.0397 32.1548 58.3693 31.7334 57.7471 31.1112L55.5154 28.8795L61.4721 22.9229L63.7037 25.1545ZM58.9095 29.762C59.4583 30.3107 60.0353 30.5879 60.6405 30.5935C61.2458 30.5992 61.8228 30.3277 62.3715 29.779C62.9203 29.2302 63.1946 28.6504 63.1946 28.0395C63.1946 27.4285 62.9203 26.8487 62.3715 26.3L61.6842 25.6127L58.2222 29.0747L58.9095 29.762ZM63.7764 37.2593C63.3408 36.8237 63.0212 36.3627 62.8176 35.8762C62.6139 35.3897 62.546 34.9032 62.6139 34.4167C62.6874 33.9359 62.9137 33.4946 63.2927 33.093L64.837 34.6373C64.6391 34.8806 64.5457 35.1266 64.557 35.3755C64.574 35.6188 64.6871 35.8451 64.8964 36.0544C65.1114 36.2693 65.3292 36.3909 65.5498 36.4192C65.7761 36.4419 65.9769 36.3655 66.1523 36.1901C66.2993 36.043 66.3701 35.8705 66.3644 35.6725C66.3644 35.4802 66.322 35.2794 66.2371 35.0701C66.1579 34.8664 66.025 34.5921 65.8383 34.247C65.5724 33.7435 65.3773 33.3108 65.2528 32.9487C65.1284 32.5867 65.0944 32.202 65.151 31.7947C65.2076 31.3875 65.4225 30.9971 65.7959 30.6238C66.3503 30.0694 66.9838 29.8375 67.6966 29.928C68.415 30.0128 69.0967 30.3777 69.7415 31.0226C70.3977 31.6788 70.7683 32.3661 70.8531 33.0845C70.9436 33.7973 70.723 34.4478 70.1913 35.0361L68.6215 33.4663C68.8025 33.2627 68.8817 33.0421 68.8591 32.8045C68.8421 32.5612 68.7318 32.3378 68.5281 32.1342C68.3528 31.9588 68.1633 31.8655 67.9596 31.8541C67.7616 31.8372 67.575 31.9164 67.3996 32.0917C67.2073 32.2841 67.1479 32.5245 67.2214 32.813C67.295 33.1015 67.4618 33.5003 67.722 34.0094C67.9766 34.5242 68.1633 34.9598 68.2821 35.3161C68.4065 35.6782 68.4433 36.06 68.3924 36.4617C68.3415 36.8633 68.1378 37.2423 67.7814 37.5987C67.442 37.9381 67.046 38.1587 66.5935 38.2605C66.1466 38.368 65.6771 38.3397 65.1849 38.1757C64.6928 38.0116 64.2233 37.7062 63.7764 37.2593Z" fill="white"/>
<defs>
<linearGradient id="paint0_linear_3731_11300" x1="6.95833" y1="3.94434" x2="6.95833" y2="0.0425455" gradientUnits="userSpaceOnUse">
<stop stop-color="#1E4CED"/>
<stop offset="0.9704" stop-color="#E2007F"/>
</linearGradient>
<linearGradient id="paint1_linear_3731_11300" x1="76.0821" y1="73.0696" x2="79.9998" y2="73.0696" gradientUnits="userSpaceOnUse">
<stop stop-color="#1E4CED"/>
<stop offset="0.9704" stop-color="#E2007F"/>
</linearGradient>
<linearGradient id="paint2_linear_3731_11300" x1="15.5" y1="16" x2="97" y2="27" gradientUnits="userSpaceOnUse">
<stop offset="0.222222" stop-color="#1E4CED"/>
<stop offset="0.9704" stop-color="#E2007F"/>
</linearGradient>
</defs>
</svg>
