<svg width="45" height="45" viewBox="0 0 45 45" fill="none" xmlns="http://www.w3.org/2000/svg">
<rect width="45" height="45" rx="7" fill=""/>
<path d="M34.7281 21.0078L32.8174 19.9056C32.4979 19.7213 32.2484 19.4362 32.1082 19.0949L31.7292 18.1726C31.5888 17.831 31.5659 17.4525 31.6638 17.0966L32.249 14.9694L32.3323 14.6666L32.111 14.444L30.616 12.9395L30.3946 12.7168L30.0914 12.7982L27.9606 13.3701C27.604 13.4659 27.2257 13.4405 26.885 13.2981L25.965 12.9133C25.6246 12.771 25.341 12.5197 25.1588 12.199L24.0686 10.2815L23.9134 10.0086L23.5995 10.0076L21.4786 10.001L21.1647 10L21.0079 10.2719L19.9057 12.1826C19.7214 12.5021 19.4363 12.7516 19.095 12.8918L18.1727 13.2708C17.8311 13.4112 17.4526 13.4341 17.0967 13.3362L14.9695 12.751L14.6667 12.6677L14.4441 12.889L12.9396 14.384L12.7169 14.6054L12.7983 14.9086L13.3702 17.0394C13.466 17.396 13.4406 17.7743 13.2982 18.115L12.9134 19.035C12.7711 19.3754 12.5198 19.6589 12.1991 19.8412L10.2816 20.9314L10.0088 21.0866L10.0078 21.4005L10.001 23.5214L10 23.8353L10.2719 23.9921L12.1826 25.0943C12.5021 25.2786 12.7516 25.5637 12.8918 25.905L13.2708 26.8273C13.4112 27.1689 13.4341 27.5474 13.3362 27.9033L12.751 30.0305L12.6677 30.3333L12.889 30.5559L14.384 32.0604L14.6054 32.2831L14.9086 32.2017L17.0394 31.6298C17.396 31.534 17.7743 31.5594 18.115 31.7018L19.035 32.0866C19.3754 32.2289 19.6589 32.4802 19.8412 32.8009L20.9314 34.7184L21.0866 34.9913L21.4005 34.9923L23.5215 34.9989L23.8354 34.9999L23.9922 34.728L25.0944 32.8173C25.2787 32.4978 25.5638 32.2483 25.9051 32.1081L26.8274 31.7291C27.169 31.5887 27.5475 31.5658 27.9034 31.6637L30.0306 32.2489L30.3334 32.3322L30.556 32.1109L32.0605 30.6159L32.2832 30.3946L32.2018 30.0913L31.6299 27.9605C31.5341 27.6039 31.5595 27.2256 31.7019 26.8849L32.0867 25.9649C32.229 25.6245 32.4803 25.341 32.801 25.1587L34.7185 24.0685L34.9913 23.9133L34.9923 23.5994L34.9989 21.4784L34.9999 21.1645L34.728 21.0077L34.7281 21.0078ZM22.5 28.4748C19.2002 28.4748 16.5253 25.7998 16.5253 22.5001C16.5253 19.2228 19.2227 16.5253 22.5001 16.5253C25.7999 16.5253 28.4748 19.2003 28.4748 22.5C28.4748 25.7773 25.7774 28.4748 22.5 28.4748Z" fill="white"/>
</svg>
