<svg width="15" height="15" viewBox="0 0 15 15" fill="none" xmlns="http://www.w3.org/2000/svg">
<path d="M5.69656 5.15739H7.63156L9.45856 7.14639L7.63156 9.13539H5.69656L7.53256 7.14639L5.69656 5.15739Z" fill="#1E4CED"/>
<path d="M5.69656 5.15739H7.63156L9.45856 7.14639L7.63156 9.13539H5.69656L7.53256 7.14639L5.69656 5.15739Z" fill="black" fill-opacity="0.2"/>
<path d="M13.8145 7.2964C13.8145 10.608 11.0384 13.3321 7.56445 13.3321C4.09052 13.3321 1.31445 10.608 1.31445 7.2964C1.31445 3.98481 4.09052 1.26074 7.56445 1.26074C11.0384 1.26074 13.8145 3.98481 13.8145 7.2964Z" stroke="#1E4CED" stroke-width="1.5"/>
<path d="M13.8145 7.2964C13.8145 10.608 11.0384 13.3321 7.56445 13.3321C4.09052 13.3321 1.31445 10.608 1.31445 7.2964C1.31445 3.98481 4.09052 1.26074 7.56445 1.26074C11.0384 1.26074 13.8145 3.98481 13.8145 7.2964Z" stroke="black" stroke-opacity="0.2" stroke-width="1.5"/>
</svg>
