<svg width="282" height="284" viewBox="0 0 282 284" fill="none" xmlns="http://www.w3.org/2000/svg">
<g filter="url(#filter0_d_762_3704)">
<path d="M223 218C223 221.866 219.866 225 216 225L56 225C52.134 225 49 221.866 49 218L49 174L223 174L223 218Z" fill="white"/>
</g>
<path d="M49 7C49 3.134 52.134 0 56 0H216C219.866 0 223 3.13401 223 7V174H49V7Z" fill="url(#paint0_linear_762_3704)"/>
<g filter="url(#filter1_d_762_3704)">
<circle cx="135.5" cy="173.5" r="27.5" fill="white"/>
</g>
<ellipse cx="135.5" cy="173.5" rx="24.3571" ry="24.3571" fill="#DEDEDE"/>
<defs>
<filter id="filter0_d_762_3704" x="0" y="125" width="282" height="159" filterUnits="userSpaceOnUse" color-interpolation-filters="sRGB">
<feFlood flood-opacity="0" result="BackgroundImageFix"/>
<feColorMatrix in="SourceAlpha" type="matrix" values="0 0 0 0 0 0 0 0 0 0 0 0 0 0 0 0 0 0 127 0" result="hardAlpha"/>
<feMorphology radius="2" operator="dilate" in="SourceAlpha" result="effect1_dropShadow_762_3704"/>
<feOffset dx="5" dy="5"/>
<feGaussianBlur stdDeviation="26"/>
<feComposite in2="hardAlpha" operator="out"/>
<feColorMatrix type="matrix" values="0 0 0 0 0 0 0 0 0 0 0 0 0 0 0 0 0 0 0.1 0"/>
<feBlend mode="normal" in2="BackgroundImageFix" result="effect1_dropShadow_762_3704"/>
<feBlend mode="normal" in="SourceGraphic" in2="effect1_dropShadow_762_3704" result="shape"/>
</filter>
<filter id="filter1_d_762_3704" x="84" y="124" width="101" height="101" filterUnits="userSpaceOnUse" color-interpolation-filters="sRGB">
<feFlood flood-opacity="0" result="BackgroundImageFix"/>
<feColorMatrix in="SourceAlpha" type="matrix" values="0 0 0 0 0 0 0 0 0 0 0 0 0 0 0 0 0 0 127 0" result="hardAlpha"/>
<feMorphology radius="7" operator="dilate" in="SourceAlpha" result="effect1_dropShadow_762_3704"/>
<feOffset dx="-1" dy="1"/>
<feGaussianBlur stdDeviation="8"/>
<feComposite in2="hardAlpha" operator="out"/>
<feColorMatrix type="matrix" values="0 0 0 0 0 0 0 0 0 0 0 0 0 0 0 0 0 0 0.06 0"/>
<feBlend mode="normal" in2="BackgroundImageFix" result="effect1_dropShadow_762_3704"/>
<feBlend mode="normal" in="SourceGraphic" in2="effect1_dropShadow_762_3704" result="shape"/>
</filter>
<linearGradient id="paint0_linear_762_3704" x1="7.49997" y1="106" x2="182.357" y2="-25.1657" gradientUnits="userSpaceOnUse">
<stop stop-color="#E2007F"/>
<stop offset="1" stop-color="#1E4CED"/>
</linearGradient>
</defs>
</svg>
