<svg width="32" height="32" viewBox="0 0 32 32" fill="none" xmlns="http://www.w3.org/2000/svg">
<path fill-rule="evenodd" clip-rule="evenodd" d="M16 32C24.8366 32 32 24.8366 32 16C32 7.16344 24.8366 0 16 0C7.16344 0 0 7.16344 0 16C0 24.8366 7.16344 32 16 32ZM16 28C22.6274 28 28 22.6274 28 16C28 9.37258 22.6274 4 16 4C9.37258 4 4 9.37258 4 16C4 22.6274 9.37258 28 16 28Z" fill="white"/>
<path fill-rule="evenodd" clip-rule="evenodd" d="M16 32C24.8366 32 32 24.8366 32 16C32 7.16344 24.8366 -6.26248e-07 16 -1.39876e-06C15.9954 -1.39916e-06 15.9909 5.07787e-07 15.9863 4.32209e-06L16 4.32328e-06L16 4C22.6274 4 28 9.37258 28 16C28 22.6274 22.6274 28 16 28L16 32Z" fill="#FF006B"/>
</svg>
