<svg width="21" height="17" viewBox="0 0 21 17" fill="none" xmlns="http://www.w3.org/2000/svg">
<path d="M20.9997 1.44384C21.0132 0.247028 20.5141 -0.161643 19.5845 0.0558275C19.3197 0.124218 19.0608 0.213052 18.8104 0.321472C14.3032 2.13908 9.79704 3.95813 5.29186 5.77865C3.7526 6.40187 2.21335 7.02655 0.683061 7.67604C0.342332 7.82199 -0.00735445 8.03363 0.000117665 8.46273C0.00758978 8.89183 0.393151 9.04655 0.747329 9.16331C1.79343 9.49609 2.83951 9.81425 3.87515 10.1383C5.02436 10.4959 6.03757 10.3017 7.04332 9.6143C9.46727 7.95628 11.9301 6.35079 14.4063 4.76574C14.7934 4.51762 15.3732 3.9265 15.7513 4.43004C16.0756 4.8606 15.4151 5.30576 15.0564 5.65313C13.29 7.32867 11.4997 8.97796 9.72582 10.6462C8.96665 11.3614 9.00401 11.9335 9.87526 12.564C10.8735 13.2938 11.8748 14.0119 12.9164 14.6745C14.0821 15.4145 15.179 16.28 16.4806 16.7923C17.7822 17.3046 18.5384 16.8653 18.7536 15.5181C19.2214 12.5903 19.7101 9.66685 20.1793 6.73903C20.4752 4.88105 20.7532 3.03036 20.9997 1.44384Z" fill="#34A9E4"/>
</svg>
