<svg width="21" height="18" viewBox="0 0 21 18" fill="none" xmlns="http://www.w3.org/2000/svg">
<path d="M20.9984 1.44819C21.0118 0.25101 20.5127 -0.157786 19.5832 0.0597509C19.3184 0.128162 19.0596 0.217024 18.8092 0.325477C14.3022 2.14364 9.79628 3.96324 5.29133 5.78432C3.75216 6.40774 2.21299 7.03261 0.68278 7.6823C0.34207 7.82829 -0.0075982 8.03999 -0.000126482 8.46923C0.00734523 8.89846 0.392886 9.05323 0.747045 9.17002C1.79309 9.5029 2.83912 9.82117 3.87469 10.1453C5.02384 10.503 6.037 10.3088 7.04269 9.62115C9.46652 7.96262 11.9292 6.35664 14.4053 4.77111C14.7924 4.52291 15.3722 3.93161 15.7502 4.4353C16.0745 4.866 15.414 5.31129 15.0554 5.65877C13.2891 7.33482 11.4988 8.98461 9.72505 10.6534C8.96592 11.3688 9.00328 11.9411 9.87449 12.5718C10.8727 13.3018 11.8739 14.0201 12.9155 14.6829C14.0811 15.4231 15.1779 16.2889 16.4795 16.8013C17.781 17.3138 18.5372 16.8743 18.7524 15.5268C19.2201 12.5981 19.7087 9.67372 20.178 6.745C20.4739 4.88645 20.7518 3.03519 20.9984 1.44819Z" fill="#FEFEFE"/>
</svg>
