<svg width="12" height="13" viewBox="0 0 12 13" fill="none" xmlns="http://www.w3.org/2000/svg">
<path d="M11.5282 5.01954C11.2261 4.33533 10.7933 3.72123 10.2424 3.1938C9.69153 2.66638 9.05012 2.2524 8.33547 1.96279C7.79341 1.74329 7.22707 1.60307 6.64453 1.54388V1.1676H7.08796C7.26644 1.1676 7.41106 1.02913 7.41106 0.858258V0.309339C7.41106 0.138463 7.26644 0 7.08796 0H4.91201C4.73353 0 4.58891 0.138463 4.58891 0.309339V0.858258C4.58891 1.02913 4.73353 1.1676 4.91201 1.1676H5.35544V1.54388C4.7729 1.60307 4.20619 1.74329 3.6645 1.96279C2.94985 2.25205 2.30844 2.66638 1.75755 3.1938C1.20666 3.72123 0.774263 4.33533 0.47177 5.01954C0.158606 5.72806 0 6.48027 0 7.25573C0 8.03119 0.158606 8.7834 0.47177 9.49192C0.773895 10.1761 1.20666 10.7902 1.75755 11.3177C2.30844 11.8451 2.94985 12.2591 3.6645 12.5487C4.40454 12.8485 5.19021 13.0004 6.00017 13.0004C6.81013 13.0004 7.5958 12.8485 8.33584 12.5487C9.05048 12.2594 9.6919 11.8451 10.2428 11.3177C10.7937 10.7902 11.2261 10.1761 11.5286 9.49192C11.8417 8.7834 12.0003 8.03119 12.0003 7.25573C12.0003 6.48027 11.8417 5.72806 11.5286 5.01954H11.5282ZM5.9998 11.9772C3.28068 11.9772 1.06829 9.85904 1.06829 7.25573C1.06829 4.65242 3.28068 2.53426 5.9998 2.53426C8.71892 2.53426 10.9313 4.65242 10.9313 7.25573C10.9313 9.85904 8.71892 11.9772 5.9998 11.9772Z" fill="#7D8890"/>
<path d="M6.19244 3.17678C4.51843 3.17149 2.93899 4.14637 2.31008 5.73358C1.49976 7.77882 2.57467 10.0654 4.71052 10.8412C6.84673 11.617 9.23503 10.5879 10.0454 8.543L6.17772 7.13829L6.19244 3.17678Z" fill="#7D8890"/>
</svg>
