<svg width="25" height="25" viewBox="0 0 25 25" fill="none" xmlns="http://www.w3.org/2000/svg">
<path d="M24.9966 12.697C24.8335 19.8952 19.2078 25.188 11.9634 24.9949C5.38816 24.8018 -0.0786154 19.0348 0.000855684 12.3738C0.0845095 5.60362 6.02811 -0.18438 12.7037 0.00449642C19.693 0.210161 25.1556 5.84706 24.9966 12.697ZM19.0781 12.571C19.0942 11.6997 18.9373 10.8338 18.6166 10.0238C18.2959 9.21387 17.8178 8.47606 17.2101 7.85338C16.6025 7.23069 15.8774 6.73558 15.0771 6.3969C14.2769 6.05821 13.4174 5.88271 12.5489 5.88064C10.7887 5.89946 9.10727 6.6161 7.87155 7.8742C6.63584 9.13231 5.9461 10.8298 5.95283 12.5962C5.97347 14.3215 6.66592 15.9702 7.88213 17.1899C9.09833 18.4095 10.7418 19.1033 12.4611 19.1229C13.3302 19.151 14.1959 19.0014 15.0055 18.6832C15.8152 18.365 16.5519 17.8848 17.1708 17.272C17.7897 16.6591 18.278 15.9263 18.6059 15.1182C18.9338 14.3101 19.0944 13.4434 19.0781 12.571Z" fill="#EEEEEE"/>
<path d="M12.5489 5.88281C10.7864 5.89833 9.10183 6.61352 7.86341 7.87198C6.62499 9.13044 5.93353 10.8298 5.94023 12.5984C5.96088 14.3237 6.65333 15.9724 7.86953 17.1921C9.08574 18.4117 10.7292 19.1055 12.4485 19.1251C13.3176 19.1532 14.1833 19.0035 14.9929 18.6853C15.8026 18.3671 16.5393 17.887 17.1582 17.2742C17.7771 16.6613 18.2654 15.9285 18.5933 15.1204C18.9212 14.3122 19.0818 13.4456 19.0655 12.5732C19.0816 11.7029 18.9251 10.838 18.6052 10.0289C18.2853 9.21978 17.8083 8.48254 17.2019 7.86002C16.5956 7.23751 15.872 6.74214 15.0732 6.40271C14.2744 6.06328 13.4163 5.88656 12.5489 5.88281Z" fill="#FDFDFD"/>
<path d="M14.7952 13.3794C14.197 13.3873 13.6198 13.1581 13.189 12.7414C12.9445 12.5051 12.7533 12.2188 12.6286 11.902C12.5762 11.7791 12.4996 11.6681 12.4033 11.5757C12.3071 11.4833 12.1932 11.4115 12.0685 11.3644C11.9439 11.3173 11.811 11.2961 11.6779 11.3019C11.5449 11.3077 11.4144 11.3405 11.2943 11.3983C11.1812 11.4642 11.083 11.5528 11.0057 11.6585C10.9005 11.7996 10.7583 11.9086 10.5951 11.9735C10.4318 12.0384 10.2539 12.0566 10.0809 12.026C9.90801 11.9955 9.74691 11.9174 9.61554 11.8005C9.48417 11.6836 9.38767 11.5325 9.33678 11.3638C9.28589 11.1952 9.28259 11.0157 9.32725 10.8453C9.37191 10.6749 9.46279 10.5203 9.58977 10.3986C9.71676 10.2769 9.87488 10.1929 10.0466 10.156C10.2183 10.1191 10.3968 10.1307 10.5623 10.1895C10.7467 10.2572 10.9079 10.3767 11.0266 10.5337C11.1049 10.6368 11.2044 10.7217 11.3185 10.7826C11.4326 10.8434 11.5585 10.8788 11.6874 10.8862C11.8874 10.9056 12.0882 10.8597 12.26 10.7553C12.4318 10.6509 12.5655 10.4937 12.6411 10.307C12.7524 10.0137 12.9185 9.74447 13.1305 9.51373C13.5197 9.10423 14.0484 8.85695 14.6111 8.82119C15.176 8.77063 15.7384 8.94218 16.1797 9.29967C16.423 9.48544 16.6255 9.71963 16.7745 9.98758C16.9235 10.2555 17.0157 10.5515 17.0455 10.8568C17.1091 11.4567 16.9344 12.0576 16.5593 12.5291C16.1842 13.0005 15.639 13.3046 15.042 13.3752C14.9599 13.3822 14.8774 13.3836 14.7952 13.3794ZM14.7952 9.60187C14.5038 9.60104 14.2187 9.68699 13.9761 9.84882C13.7334 10.0107 13.544 10.2411 13.432 10.511C13.3199 10.7809 13.2901 11.0781 13.3465 11.365C13.4028 11.6518 13.5427 11.9155 13.7484 12.1225C13.9542 12.3296 14.2165 12.4707 14.5022 12.528C14.7879 12.5854 15.0842 12.5564 15.3535 12.4447C15.6227 12.333 15.8529 12.1436 16.0149 11.9006C16.1769 11.6575 16.2633 11.3717 16.2633 11.0793C16.2622 10.8851 16.2229 10.6931 16.1476 10.5142C16.0722 10.3353 15.9624 10.1732 15.8244 10.037C15.6864 9.90089 15.523 9.79348 15.3435 9.72096C15.164 9.64844 14.972 9.61225 14.7785 9.61446L14.7952 9.60187Z" fill="#EEEEEE"/>
<path d="M10.2403 13.3764C9.64454 13.3844 9.06994 13.1549 8.64251 12.7384C8.25505 12.3823 8.00853 11.898 7.94818 11.3743C7.91175 11.0646 7.93869 10.7506 8.02736 10.4517C8.11604 10.1528 8.26458 9.87524 8.46388 9.63594C8.66319 9.39665 8.90907 9.2007 9.18648 9.06008C9.46388 8.91946 9.76696 8.83714 10.0772 8.81816C10.6423 8.7781 11.2018 8.95179 11.6457 9.30504C11.8505 9.46839 12.0259 9.66571 12.1643 9.88846C12.202 9.95142 12.1936 9.9808 12.1351 10.0144C11.951 10.1193 11.767 10.2242 11.5871 10.3334C11.516 10.3753 11.4909 10.3334 11.4533 10.2956C11.2782 10.0315 11.023 9.83099 10.7255 9.7237C10.4281 9.61641 10.1041 9.60804 9.8015 9.69983C9.49892 9.79162 9.23381 9.97869 9.04539 10.2334C8.85696 10.4881 8.75523 10.7968 8.75523 11.1141C8.75523 11.4313 8.85696 11.74 9.04539 11.9947C9.23381 12.2494 9.49892 12.4365 9.8015 12.5283C10.1041 12.6201 10.4281 12.6117 10.7255 12.5044C11.023 12.3971 11.2782 12.1966 11.4533 11.9325C11.4993 11.857 11.5369 11.8402 11.6164 11.8905C11.7879 11.9955 11.9636 12.0962 12.1392 12.1927C12.202 12.2305 12.2145 12.2599 12.1727 12.3271C11.9791 12.6403 11.7121 12.9012 11.395 13.087C11.0778 13.2728 10.7202 13.3779 10.3532 13.3932L10.2403 13.3764Z" fill="#EEEEEE"/>
<path d="M15.7234 11.0897C15.7228 11.2152 15.6976 11.3394 15.6491 11.455C15.6006 11.5707 15.5299 11.6756 15.4409 11.7637C15.3519 11.8519 15.2464 11.9215 15.1305 11.9686C15.0146 12.0157 14.8906 12.0394 14.7656 12.0383C14.578 12.0367 14.3951 11.9793 14.2399 11.8734C14.0848 11.7675 13.9644 11.6179 13.894 11.4434C13.8235 11.2689 13.8061 11.0774 13.8441 10.893C13.882 10.7087 13.9735 10.5397 14.107 10.4074C14.2405 10.2752 14.4101 10.1856 14.5943 10.15C14.7785 10.1144 14.9692 10.1344 15.1421 10.2073C15.315 10.2803 15.4625 10.4031 15.566 10.5602C15.6694 10.7172 15.7242 10.9015 15.7234 11.0897Z" fill="#EEEEEE"/>
<path d="M16.2124 14.8133C16.2124 14.8133 16.2124 14.8133 16.2124 14.7881C16.1937 14.6186 16.1134 14.462 15.9868 14.3483C15.8602 14.2346 15.6963 14.1717 15.5264 14.1717C15.3565 14.1717 15.1926 14.2346 15.066 14.3483C14.9394 14.462 14.8591 14.6186 14.8405 14.7881C14.7259 15.3313 14.4288 15.8185 13.999 16.1681C13.5691 16.5177 13.0326 16.7085 12.4793 16.7085C11.926 16.7085 11.3895 16.5177 10.9597 16.1681C10.5298 15.8185 10.2327 15.3313 10.1182 14.7881C10.1047 14.6143 10.0263 14.452 9.89879 14.3336C9.77124 14.2152 9.60389 14.1494 9.43014 14.1494C9.2564 14.1494 9.08905 14.2152 8.9615 14.3336C8.83396 14.452 8.75561 14.6143 8.74209 14.7881C8.74405 14.7964 8.74405 14.805 8.74209 14.8133C8.74209 14.8133 8.74209 14.8385 8.74209 14.8552C8.73909 14.9439 8.7533 15.0323 8.78392 15.1155C8.96449 15.9606 9.4284 16.718 10.0983 17.2613C10.7681 17.8047 11.6034 18.1011 12.4647 18.1011C13.326 18.1011 14.1613 17.8047 14.8311 17.2613C15.501 16.718 15.9649 15.9606 16.1455 15.1155C16.1855 15.0286 16.2068 14.9342 16.2082 14.8385C16.2082 14.8385 16.2124 14.8259 16.2124 14.8133Z" fill="#EEEEEE"/>
</svg>
