<svg width="212" height="212" viewBox="0 0 212 212" fill="none" xmlns="http://www.w3.org/2000/svg">
<g filter="url(#filter0_d_2125_9065)">
<circle cx="106" cy="106" r="50" fill="black"/>
</g>
<path d="M110.262 99.4014C109.224 99.4014 108.346 100.279 108.346 101.317C108.346 102.355 109.224 103.233 110.262 103.233C111.299 103.233 112.178 102.355 112.178 101.317C112.178 100.279 111.299 99.4014 110.262 99.4014Z" fill="#FD9330"/>
<path d="M110.26 96.6865C108.264 96.6865 106.588 97.9638 105.949 99.6402C105.391 101.077 103.475 101.396 102.517 100.119C102.197 99.6402 101.639 99.4007 101 99.4007C99.9621 99.4007 99.084 100.279 99.084 101.317C99.084 102.354 99.9621 103.233 101 103.233C101.639 103.233 102.197 102.913 102.517 102.434C103.395 101.237 105.391 101.636 105.869 102.993C106.508 104.749 108.185 105.947 110.18 105.947C112.735 105.947 114.81 103.871 114.81 101.317C114.89 98.7621 112.815 96.6865 110.26 96.6865ZM110.26 104.27C108.584 104.27 107.227 102.913 107.227 101.237C107.227 99.5604 108.584 98.2033 110.26 98.2033C111.937 98.2033 113.294 99.5604 113.294 101.237C113.294 102.993 111.937 104.27 110.26 104.27Z" fill="#FD9330"/>
<path d="M104.113 102.755C103.873 102.755 103.634 102.915 103.474 103.075C102.915 103.793 102.037 104.272 101.079 104.272C99.4029 104.272 98.0458 102.915 98.0458 101.239C98.0458 99.5621 99.4029 98.205 101.079 98.205C102.037 98.205 102.915 98.684 103.474 99.4024C103.634 99.5621 103.873 99.7217 104.113 99.7217C104.592 99.7217 104.911 99.4024 104.911 98.9235C104.911 98.7638 104.831 98.6041 104.751 98.5243C104.751 98.5243 104.751 98.5243 104.751 98.4445C103.873 97.3269 102.596 96.6084 101.079 96.6084C98.5248 96.6084 96.4492 98.684 96.4492 101.239C96.4492 103.793 98.5248 105.869 101.079 105.869C102.596 105.869 103.873 105.15 104.751 104.033C104.831 103.873 104.911 103.713 104.911 103.554C104.911 103.154 104.512 102.755 104.113 102.755Z" fill="#FD9330"/>
<path d="M105.63 82C92.6173 82 82 92.6173 82 105.63C82 118.642 92.6173 129.259 105.63 129.259C118.642 129.259 129.339 118.722 129.339 105.63C129.339 92.5375 118.722 82 105.63 82ZM105.63 118.482C98.5247 118.482 92.777 112.734 92.777 105.63C92.777 98.5247 98.5247 92.777 105.63 92.777C112.734 92.777 118.482 98.5247 118.482 105.63C118.482 112.734 112.734 118.482 105.63 118.482Z" fill="#FD9330"/>
<path d="M111.217 109.302C111.217 108.583 110.658 108.024 109.939 108.024C109.221 108.024 108.662 108.583 108.662 109.302C108.662 109.302 108.662 109.302 108.662 109.382C108.662 111.297 107.145 112.814 105.229 112.814C103.313 112.814 101.797 111.297 101.797 109.382C101.797 109.382 101.797 109.382 101.797 109.302C101.797 108.583 101.238 108.024 100.519 108.024C99.801 108.024 99.2422 108.583 99.2422 109.302C99.2422 109.302 99.2422 109.302 99.2422 109.382C99.2422 112.655 101.877 115.289 105.15 115.289C108.582 115.289 111.217 112.655 111.217 109.302Z" fill="#FD9330"/>
<defs>
<filter id="filter0_d_2125_9065" x="0" y="0" width="212" height="212" filterUnits="userSpaceOnUse" color-interpolation-filters="sRGB">
<feFlood flood-opacity="0" result="BackgroundImageFix"/>
<feColorMatrix in="SourceAlpha" type="matrix" values="0 0 0 0 0 0 0 0 0 0 0 0 0 0 0 0 0 0 127 0" result="hardAlpha"/>
<feMorphology radius="27" operator="dilate" in="SourceAlpha" result="effect1_dropShadow_2125_9065"/>
<feOffset/>
<feGaussianBlur stdDeviation="14.5"/>
<feComposite in2="hardAlpha" operator="out"/>
<feColorMatrix type="matrix" values="0 0 0 0 1 0 0 0 0 1 0 0 0 0 1 0 0 0 0.15 0"/>
<feBlend mode="normal" in2="BackgroundImageFix" result="effect1_dropShadow_2125_9065"/>
<feBlend mode="normal" in="SourceGraphic" in2="effect1_dropShadow_2125_9065" result="shape"/>
</filter>
</defs>
</svg>
