<svg width="93" height="68" viewBox="0 0 93 68" fill="none" xmlns="http://www.w3.org/2000/svg">
<path d="M86.6409 0H6.35906C2.85299 0 0 2.86899 0 6.3923V61.6029C0 65.1286 2.85299 67.9976 6.35906 67.9976H86.6409C90.147 67.9976 93 65.1286 93 61.6029V6.3923C93 2.86659 90.147 0 86.6409 0ZM6.35906 4.02425H86.6409C87.9399 4.02425 88.9982 5.08604 88.9982 6.3947V39.7607L70.7743 21.6456C69.9425 20.8187 68.6053 20.8187 67.7735 21.6456L44.2822 44.9978L30.9968 31.7889C30.165 30.962 28.8279 30.962 27.9961 31.7889L4.00182 55.6396V6.3923C4.00182 5.08604 5.06007 4.02185 6.35906 4.02185V4.02425Z" fill="url(#paint0_linear_229_5695)"/>
<path d="M18.1379 23.3034C21.3144 22.9868 23.6344 20.1406 23.3195 16.9462C23.0047 13.7519 20.1744 11.419 16.9978 11.7355C13.8212 12.0521 11.5013 14.8983 11.8161 18.0927C12.131 21.2871 14.9613 23.62 18.1379 23.3034Z" fill="#FF006B"/>
<defs>
<linearGradient id="paint0_linear_229_5695" x1="4.14041" y1="13.5995" x2="91.0199" y2="17.3017" gradientUnits="userSpaceOnUse">
<stop stop-color="#E2007F"/>
<stop offset="1" stop-color="#1E4CED"/>
</linearGradient>
</defs>
</svg>
