<svg width="20" height="18" viewBox="0 0 20 18" fill="none" xmlns="http://www.w3.org/2000/svg">
<path d="M19.5837 13.3207L12.5392 1.45161C12.0055 0.53368 11.0662 0 10.0202 0C8.97417 0 8.01355 0.53368 7.50121 1.45161L0.456636 13.3207C-0.141085 14.2386 -0.141085 15.3486 0.392595 16.2666C0.926275 17.1845 1.86555 17.7395 2.95426 17.7395H17.0221C18.1108 17.7395 19.0501 17.1845 19.5837 16.2666C20.1388 15.3486 20.1388 14.2386 19.5837 13.3207ZM17.8973 15.3273C17.7906 15.4981 17.5771 15.8183 17.0434 15.8183H2.95426C2.42058 15.8183 2.20711 15.4554 2.10037 15.3273C1.99363 15.1565 1.8442 14.7723 2.10037 14.3453L9.14495 2.47628C9.40111 2.04933 9.82806 1.98529 9.99884 1.98529C10.1696 1.98529 10.5966 2.02798 10.8527 2.47628L17.8973 14.3453C18.1748 14.7723 17.9613 15.1565 17.8973 15.3273Z" fill="#AA967A"/>
<path d="M9.99882 4.69629C9.44379 4.69629 9.01685 5.12323 9.01685 5.67826V10.9297C9.01685 11.4847 9.44379 11.9116 9.99882 11.9116C10.5538 11.9116 10.9808 11.4847 10.9808 10.9297V5.67826C10.9808 5.16593 10.5538 4.69629 9.99882 4.69629Z" fill="#AA967A"/>
<path d="M9.99882 12.4453C9.44379 12.4453 9.01685 12.8723 9.01685 13.4273V13.7475C9.01685 14.3025 9.44379 14.7295 9.99882 14.7295C10.5538 14.7295 10.9808 14.3025 10.9808 13.7475V13.4273C10.9808 12.8723 10.5538 12.4453 9.99882 12.4453Z" fill="#AA967A"/>
</svg>
