<svg width="70" height="50" viewBox="0 0 70 50" fill="none" xmlns="http://www.w3.org/2000/svg">
<path d="M27.5273 10.4961V17.4906C27.5273 19.4258 29.0139 21.0969 30.9477 21.1822C33.0003 21.273 34.6923 19.6354 34.6923 17.6024V10.1775C34.6923 10.1272 34.6951 10.0755 34.7021 10.0252L37.5273 1.29245C37.6195 0.607799 37.0872 0 36.397 0H33.6416C33.112 0 32.6524 0.36468 32.5308 0.880261L27.6153 9.7178C27.5552 9.9735 27.5259 10.2334 27.5259 10.4961H27.5273Z" fill="white"/>
<path d="M42.4189 21.1794C42.4916 21.1836 42.5642 21.1863 42.6355 21.1863C42.7068 21.1863 42.7794 21.1836 42.8521 21.1794C44.7621 21.0676 46.218 19.4146 46.218 17.5018V10.144C46.218 10.116 46.2152 10.0867 46.2152 10.0587L44.6266 1.05492C44.5819 0.459692 44.0858 0 43.4892 0H41.7818C41.1852 0 40.6891 0.459692 40.6444 1.05492L39.0558 10.0587C39.0558 10.0867 39.053 10.116 39.053 10.144V17.5018C39.053 19.4146 40.5103 21.0662 42.4189 21.1794Z" fill="white"/>
<path d="M50.569 10.0252C50.576 10.0755 50.5788 10.1272 50.5788 10.1775V17.6024C50.5788 19.6354 52.2709 21.273 54.3234 21.1822C56.2572 21.0969 57.7439 19.4258 57.7439 17.4906V10.4961C57.7439 10.2348 57.7131 9.9735 57.6544 9.7178L52.7403 0.880261C52.6202 0.36468 52.1591 0 51.6295 0H48.8742C48.1839 0 47.6516 0.609197 47.7438 1.29245L50.569 10.0252Z" fill="white"/>
<path d="M65.9527 23.461C65.8647 23.4652 65.7767 23.4666 65.69 23.4666C62.8103 23.4666 60.4099 21.3791 59.9194 18.6377C59.415 21.3036 57.1822 23.3394 54.4255 23.461C54.3375 23.4652 54.2494 23.4666 54.1628 23.4666C51.2831 23.4666 48.884 21.3791 48.3922 18.6391C47.8934 21.2659 45.6969 23.2961 42.9863 23.4554C42.8703 23.4624 42.7529 23.4652 42.6356 23.4652C42.5182 23.4652 42.4008 23.4624 42.2835 23.4554C39.5756 23.2961 37.3805 21.2673 36.8803 18.6419C36.6721 19.8128 36.1146 20.89 35.2553 21.748C34.1473 22.856 32.676 23.4652 31.1097 23.4652C31.0231 23.4652 30.9351 23.4638 30.8471 23.4596C28.0917 23.338 25.8603 21.3036 25.3545 18.6391C25.1463 19.81 24.5888 20.8886 23.7295 21.748C22.6215 22.856 21.1502 23.4652 19.5839 23.4652C19.4973 23.4652 19.4093 23.4638 19.3212 23.4596C18.9468 23.4428 18.5821 23.3897 18.23 23.3059V48.1586C18.23 48.6504 18.6282 49.05 19.1214 49.05H48.9245V30.3074C48.9245 29.6773 49.4345 29.1673 50.0647 29.1673H59.3438C59.9739 29.1673 60.4839 29.6773 60.4839 30.3074V49.05H66.1525C66.6443 49.05 67.0439 48.6518 67.0439 48.1586V23.3073C66.6918 23.3911 66.3272 23.4442 65.9527 23.461Z" fill="url(#paint0_linear_838_9928)"/>
<path d="M69.0366 9.49983L60.8054 0.72377C60.6336 0.287831 60.213 0 59.7435 0H57.079C56.3175 0 55.7712 0.730756 55.985 1.46151L62.0602 9.94415C62.0909 10.0489 62.1063 10.1565 62.1063 10.2655V17.6038C62.1063 19.6368 63.7983 21.2744 65.8509 21.1835C67.7847 21.0983 69.2713 19.4272 69.2713 17.492V10.7504C69.2713 10.3228 69.1917 9.89944 69.0352 9.50123L69.0366 9.49983Z" fill="white"/>
<path d="M23.1664 17.6038V10.2655C23.1664 10.1565 23.1818 10.0489 23.2126 9.94415L29.2877 1.46151C29.5015 0.730756 28.9552 0 28.1937 0H25.5292C25.0597 0 24.6391 0.287831 24.4673 0.72377L16.2361 9.49983C16.0796 9.89805 16 10.3214 16 10.749V17.4906C16 19.4258 17.4867 21.0969 19.4204 21.1822C21.473 21.273 23.165 19.6354 23.165 17.6024L23.1664 17.6038Z" fill="white"/>
<path fill-rule="evenodd" clip-rule="evenodd" d="M21.1277 48.714L16.9531 41.5713H25.3024L21.1277 48.714Z" fill="#AFAFAF"/>
<path opacity="0.8" fill-rule="evenodd" clip-rule="evenodd" d="M4.42364 34.4288L0.249023 27.2861H8.60404L12.7787 34.4288H4.42364Z" fill="white"/>
<path opacity="0.8" fill-rule="evenodd" clip-rule="evenodd" d="M8.604 41.5715L12.7786 34.4288L16.9532 27.2861H25.3025L12.7786 48.7143L8.604 41.5715Z" fill="white"/>
<path opacity="0.8" fill-rule="evenodd" clip-rule="evenodd" d="M21.1279 48.7143L25.3025 41.5715L33.6576 27.2861L37.8322 34.4288L29.4772 48.7143H21.1279Z" fill="white"/>
<path d="M38 34.4286L33.6575 27L25.2214 41.4284H17.2022L25.4298 27.3546L25.5572 27.1372H16.8722L12.7786 34.137L8.68505 27.143H0L4.34253 34.5716H12.5296L8.43608 41.5714L12.7786 49L16.9532 41.8573L20.9599 48.7141L20.8789 48.857H21.0468L21.1278 49L21.2089 48.857H29.5581L37.9942 34.4286H38ZM0.503733 27.4289H8.51714L12.5238 34.2857H4.51044L0.503733 27.4289ZM12.7786 48.4281L8.7719 41.5714L12.8655 34.5716H13.0334L12.9523 34.4286L17.0343 27.4289H25.0535L16.8664 41.4284H16.6985L16.7795 41.5714L12.7728 48.4281H12.7786ZM21.1278 48.4281L17.2022 41.7143H25.0535L22.5059 46.072L21.1278 48.4281ZM21.3768 48.5711L25.5514 41.4284L33.6575 27.5719L37.6642 34.4286L29.396 48.5711H21.3768Z" fill="white"/>
<defs>
<linearGradient id="paint0_linear_838_9928" x1="20.4032" y1="24.7202" x2="65.9735" y2="26.9991" gradientUnits="userSpaceOnUse">
<stop stop-color="#E2007F"/>
<stop offset="1" stop-color="#1E4CED"/>
</linearGradient>
</defs>
</svg>
