<svg width="22" height="15" viewBox="0 0 22 15" fill="none" xmlns="http://www.w3.org/2000/svg">
<path d="M10.9834 0C13.585 0.0467604 16.1876 0.0485919 18.7845 0.261306C20.2971 0.385083 21.2158 1.06999 21.5311 2.50764C21.9857 4.57976 22.0648 6.6849 21.9584 8.79553C21.8916 10.1213 21.8257 11.449 21.4624 12.7381C21.1471 13.8631 20.4063 14.5003 19.2147 14.6461C17.1571 14.8973 15.0872 14.9487 13.0193 14.9789C9.81903 15.0257 6.62441 14.9991 3.43166 14.7396C1.62821 14.5938 0.73213 13.9483 0.435634 12.2182C-0.129121 8.92756 -0.205362 5.62408 0.565527 2.34627C0.875201 1.03056 1.8014 0.362156 3.18223 0.255799C5.77915 0.0586721 8.38173 0.0485941 10.9834 0ZM15.1051 7.28912C14.8331 7.14884 14.6543 7.05439 14.4745 6.96271C12.5593 5.98777 10.6436 5.01405 8.72717 4.04156C8.53892 3.94987 8.29796 3.72157 8.29984 4.20293C8.30988 6.26405 8.30988 8.32548 8.29984 10.3872C8.29984 10.6724 8.38362 10.6916 8.62175 10.5706C9.54983 10.0929 10.4854 9.62988 11.4163 9.15953C12.624 8.54797 13.8288 7.93551 15.1051 7.28912Z" fill="#FEFEFE"/>
</svg>
