<svg width="98" height="98" viewBox="0 0 98 98" fill="none" xmlns="http://www.w3.org/2000/svg">
<g clip-path="url(#clip0_304_7696)">
<path d="M49.0018 98.0001C21.9811 98.0001 0 76.0162 0 48.9824C0 21.9487 21.9811 -0.0175781 49.0194 -0.0175781C76.0576 -0.0175781 98.0388 21.9628 98.0388 49.0001C98.0388 76.0373 76.0224 98.0001 49.0018 98.0001ZM49.0018 0.409119C22.1998 0.409119 0.409079 22.2061 0.409079 49.0001C0.409079 75.794 22.2068 97.591 49.0018 97.591C75.7967 97.591 97.6015 75.794 97.6015 49.0001C97.6015 22.2061 75.7967 0.409119 49.0018 0.409119Z" fill="white"/>
<path d="M49.0017 98.0001C26.9324 98.0001 8.97864 76.0162 8.97864 48.9824C8.97864 21.9487 26.9324 -0.0175781 49.0017 -0.0175781C71.0711 -0.0175781 89.0248 21.9628 89.0248 49.0001C89.0248 76.0373 71.0711 98.0001 49.0017 98.0001ZM49.0017 0.409119C27.1581 0.409119 9.38772 22.2061 9.38772 49.0001C9.38772 75.794 27.1581 97.591 49.0017 97.591C70.8453 97.591 88.6158 75.794 88.6158 49.0001C88.6158 22.2061 70.8453 0.409119 49.0017 0.409119Z" fill="white"/>
<path d="M49.0018 98.0001C31.8838 98.0001 17.9679 76.0162 17.9679 48.9824C17.9679 21.9487 31.8943 -0.0175781 49.0018 -0.0175781C66.1092 -0.0175781 80.0356 21.9628 80.0356 49.0001C80.0356 76.0373 66.1198 98.0001 49.0018 98.0001ZM49.0018 0.409119C32.1095 0.409119 18.3664 22.2061 18.3664 49.0001C18.3664 75.794 32.12 97.591 49.0018 97.591C65.8835 97.591 79.6371 75.794 79.6371 49.0001C79.6371 22.2061 65.8941 0.409119 49.0018 0.409119Z" fill="white"/>
<path d="M49.0018 98.0001C36.8351 98.0001 26.936 76.0162 26.936 48.9824C26.936 21.9487 36.8351 -0.0175781 49.0018 -0.0175781C61.1685 -0.0175781 71.0676 21.9628 71.0676 49.0001C71.0676 76.0373 61.1685 98.0001 49.0018 98.0001ZM49.0018 0.409119C37.0608 0.409119 27.3451 22.2061 27.3451 49.0001C27.3451 75.794 37.0608 97.591 49.0018 97.591C60.9428 97.591 70.6585 75.794 70.6585 49.0001C70.6585 22.2061 60.9428 0.409119 49.0018 0.409119Z" fill="white"/>
<path d="M49.0018 98.0001C45.4752 98.0001 42.1532 92.8691 39.6952 83.5417C37.2583 74.3094 35.9147 62.0303 35.9147 48.9825C35.9147 35.9346 37.2583 23.6591 39.6952 14.4233C42.1638 5.10993 45.4611 -0.0351562 49.0018 -0.0351562C52.5425 -0.0351562 55.8504 5.09583 58.3084 14.4233C60.7453 23.6555 62.0889 35.9346 62.0889 48.9825C62.0889 62.0303 60.7453 74.3059 58.3084 83.5417C55.8504 92.8691 52.5425 98.0001 49.0018 98.0001ZM49.0018 0.409169C42.0121 0.409169 36.3238 22.2062 36.3238 49.0001C36.3238 75.7941 42.0121 97.591 49.0018 97.591C55.9915 97.591 61.6798 75.7941 61.6798 49.0001C61.6798 22.2062 55.9879 0.409169 49.0018 0.409169Z" fill="white"/>
<path d="M49.0018 98C48.5539 98 47.1962 98 46.0394 83.5204C45.2989 74.2987 44.8933 62.0373 44.8933 49C44.8933 35.9627 45.2989 23.7013 46.0394 14.4796C47.1962 -1.34523e-06 48.5539 0 49.0018 0C49.4496 0 50.8074 -1.34523e-06 51.9641 14.4796C52.7047 23.7013 53.1102 35.9592 53.1102 49C53.1102 62.0408 52.7047 74.2987 51.9641 83.5204C50.8074 98 49.4496 98 49.0018 98ZM49.0018 0.409059C48.8572 0.409059 47.5418 0.80402 46.445 14.5149C45.7079 23.7259 45.3024 35.9733 45.3024 49.0035C45.3024 62.0337 45.7079 74.2776 46.445 83.4887C47.5418 97.1995 48.8572 97.5944 49.0018 97.5944C49.1464 97.5944 50.4618 97.1995 51.5585 83.4887C52.2956 74.2776 52.7011 62.0302 52.7011 49.0035C52.7011 35.9768 52.2956 23.7259 51.5585 14.5149C50.4618 0.80402 49.1464 0.409059 49.0018 0.409059Z" fill="white"/>
<path d="M49.0018 98.0001C21.9811 98.0001 0 76.0162 0 48.9824C0 21.9487 21.9811 -0.0175781 49.0194 -0.0175781C76.0576 -0.0175781 98.0388 21.9628 98.0388 49.0001C98.0388 76.0373 76.0224 98.0001 49.0018 98.0001ZM49.0018 0.409119C22.1998 0.409119 0.409079 22.2061 0.409079 49.0001C0.409079 75.794 22.2068 97.591 49.0018 97.591C75.7967 97.591 97.6015 75.794 97.6015 49.0001C97.6015 22.2061 75.7967 0.409119 49.0018 0.409119Z" fill="white"/>
<path d="M49.0018 89.0218C21.9811 89.0218 0 71.0687 0 49.0002C0 26.9317 21.9811 8.97852 49.0194 8.97852C76.0576 8.97852 98.0388 26.9317 98.0388 49.0002C98.0388 71.0687 76.0224 89.0218 49.0018 89.0218ZM49.0018 9.38758C22.1998 9.38758 0.409079 27.1574 0.409079 49.0002C0.409079 70.843 22.2068 88.6128 49.0018 88.6128C75.7967 88.6128 97.6015 70.843 97.6015 49.0002C97.6015 27.1574 75.7967 9.37348 49.0018 9.37348V9.38758Z" fill="white"/>
<path d="M49.0018 80.043C21.9811 80.043 0 66.1171 0 49.0103C0 31.9035 21.9811 17.9775 49.0194 17.9775C76.0576 17.9775 98.0388 31.9035 98.0388 49.0103C98.0388 66.1171 76.0224 80.043 49.0018 80.043ZM49.0018 18.3655C22.1998 18.3655 0.409079 32.1186 0.409079 48.9997C0.409079 65.8808 22.2068 79.634 49.0018 79.634C75.7967 79.634 97.6015 65.8914 97.6015 48.9997C97.6015 32.108 75.7967 18.3655 49.0018 18.3655Z" fill="white"/>
<path d="M49.0018 71.0645C21.9811 71.0645 0 61.1658 0 48.9996C0 36.8333 21.9811 26.9346 49.0194 26.9346C76.0576 26.9346 98.0388 36.8333 98.0388 48.9996C98.0388 61.1658 76.0224 71.0645 49.0018 71.0645ZM49.0018 27.3366C22.1998 27.3366 0.409079 37.0519 0.409079 48.9925C0.409079 60.9331 22.2068 70.6484 49.0018 70.6484C75.7967 70.6484 97.6015 60.9401 97.6015 48.9996C97.6015 37.059 75.7967 27.3577 49.0018 27.3577V27.3366Z" fill="white"/>
<path d="M49.0018 62.0862C35.9535 62.0862 23.6775 60.7426 14.4414 58.3058C5.12769 55.8373 -0.0175781 52.5401 -0.0175781 48.9995C-0.0175781 45.459 5.13122 42.1688 14.4449 39.7003C23.6775 37.2635 35.957 35.9199 49.0053 35.9199C62.0537 35.9199 74.3297 37.2635 83.5658 39.7003C92.8795 42.1688 98.0247 45.4625 98.0247 49.0066C98.0247 52.5507 92.8936 55.8549 83.5658 58.3129C74.3261 60.7426 62.0537 62.0862 49.0018 62.0862ZM49.0018 36.3219C22.1998 36.3219 0.409134 42.0066 0.409134 48.9995C0.409134 55.9925 22.2069 61.6947 49.0018 61.6947C75.7967 61.6947 97.6015 55.9889 97.6015 48.9995C97.6015 42.0101 75.7967 36.3219 49.0018 36.3219Z" fill="white"/>
<path d="M49.0018 53.1014C35.9534 53.1014 23.7021 52.6958 14.4801 51.9553C-1.34528e-06 50.7986 0 49.4374 0 48.9931C0 48.5487 -1.34528e-06 47.1875 14.4801 46.0273C23.7021 45.2903 35.964 44.8848 49.0018 44.8848C62.0395 44.8848 74.3014 45.2903 83.5234 46.0273C98.0035 47.1875 98.0035 48.5452 98.0035 48.9931C98.0035 49.4409 98.0035 50.7986 83.5234 51.9553C74.3014 52.7029 62.043 53.1014 49.0018 53.1014ZM49.0018 45.2938C35.9746 45.2938 23.7233 45.6994 14.5119 46.4364C0.804057 47.5331 0.405554 48.845 0.405554 48.9931C0.405554 49.1412 0.80053 50.453 14.5119 51.5497C23.7233 52.2868 35.9711 52.6923 49.0018 52.6923C62.0325 52.6923 74.2803 52.2868 83.4881 51.5497C97.1995 50.453 97.5944 49.1376 97.5944 48.9931C97.5944 48.8485 97.1995 47.5331 83.4881 46.4364C74.2803 45.6958 62.0289 45.3009 49.0018 45.3009V45.2938Z" fill="white"/>
</g>
<defs>
<clipPath id="clip0_304_7696">
<rect width="98" height="98" fill="white"/>
</clipPath>
</defs>
</svg>
