<svg width="461" height="142" viewBox="0 0 461 142" fill="none" xmlns="http://www.w3.org/2000/svg">
<rect x="119.82" y="71.1396" width="1" height="20" fill="#222222"/>
<rect x="269.82" y="71.1396" width="1" height="20" fill="#222222"/>
<path d="M72.8727 90.5628C120.551 96.4104 96.1297 119.073 82.918 108.676C78.0045 104.005 69.1239 97.1019 55.5725 92.2006C48.451 101.081 33.6136 107.159 0.663146 110.665L0.0808105 109.028C43.4284 98.5092 44.7144 85.5401 45.2967 62.0526L67.7287 66.1411C67.2556 67.6576 65.9817 68.8344 63.2884 68.8344C62.233 76.7808 61.1896 83.5626 57.5621 89.3981C62.9366 89.6286 67.6074 89.9804 71.8172 90.4536V57.9641H34.3173V88.925C34.3173 90.4415 26.9531 94.0689 20.0622 94.0689H17.7207V48.028L35.3606 54.6885H70.6525L78.0167 46.6207L93.3272 58.0733C92.6236 59.0075 91.2284 60.1722 88.7656 60.6453V87.0566C88.6443 87.8695 80.1155 90.5628 74.741 90.5628H72.8727ZM22.8647 43.0054C22.8647 43.9396 15.7311 46.3902 9.54376 46.3902H6.74127V6.90061L26.7226 8.53843C26.4921 9.94574 25.6672 11.1104 22.8647 11.5714V43.0054ZM44.7144 47.6762C44.7144 48.7317 37.5808 51.4129 31.5148 51.4129H28.591V1.17432L48.5723 2.93346C48.3418 4.34077 47.5169 5.38412 44.7144 5.85726V47.6762ZM104.889 12.7482C104.076 14.0342 103.021 14.386 100.327 14.6166C97.1731 21.3983 92.8541 27.3551 87.3583 32.4991C94.2493 34.4887 101.613 35.6534 109.087 36.4663L108.965 37.8736C102.657 39.7419 98.5682 44.8859 96.8091 52.711C88.159 49.7872 80.6857 46.4024 74.3771 41.6102C65.8483 46.281 55.4512 49.678 43.2949 51.6555L42.7126 50.2482C52.7579 46.6207 61.1775 41.5981 67.7166 35.52C62.3421 29.5632 58.1323 22.0777 55.3299 12.1538H48.8999L47.8444 8.87813H82.3356L90.8644 0.701172L104.889 12.7482ZM57.5743 12.1659C61.6628 19.0569 67.6196 24.0795 74.7532 27.707C78.2593 23.0362 80.8313 17.7709 82.8209 12.1659H57.5743Z" fill="#222222"/>
<path d="M172.904 121.774C172.904 133.227 170.684 139.657 153.505 141.282C153.154 135.556 152.571 131.346 150.812 128.665C149.065 125.741 146.724 123.994 141.119 122.818V121.301C141.119 121.301 152.098 121.883 154.561 121.883C156.308 121.883 156.902 121.301 156.902 120.015V98.3958C154.804 99.5605 152.583 100.846 150.242 102.132C149.66 103.649 148.252 104.935 146.736 105.408L141.713 86.1304C144.867 85.6573 150.242 84.7231 156.902 83.5584V61.4782H143.46L142.526 58.2026H156.902V30.1656L177.236 32.0339C177.005 33.7809 175.828 34.9577 172.917 35.4187V56.3343L178.291 47.6842C178.291 47.6842 185.764 54.9269 189.744 59.5978C189.513 60.8837 188.227 61.4661 186.589 61.4661H172.904V80.5133C177.818 79.5791 182.841 78.5237 187.742 77.4803L187.972 78.645C184.236 81.3383 179.213 84.8323 172.904 88.8116V121.774ZM253.534 57.3897C252.83 58.3239 251.313 59.3794 248.863 59.8404V90.8012C248.741 91.6141 240.795 94.3074 235.663 94.3074H232.861V86.2396H205.637C204.472 105.056 198.503 127.488 171.631 141.392L170.818 140.457C187.766 121.532 189.865 97.5709 189.865 76.7766V47.8055L208.209 53.9928H231.696L238.83 46.1677L253.534 57.3897ZM232.849 82.9761V57.2684H205.855V76.7766C205.855 78.7663 205.855 80.8651 205.734 82.964H232.849V82.9761ZM207.723 29.4619C243.124 34.7151 227.705 61.9392 213.801 50.3775C213.68 43.1347 210.647 35.3095 206.789 30.0442L207.723 29.4619Z" fill="#222222"/>
<path d="M336.735 80.5121C329.261 86.6994 316.875 95.58 298.179 106.45C297.476 107.967 296.19 109.374 294.673 109.726L287.2 89.3927C295.607 88.228 316.875 84.1395 336.625 79.5779L336.735 80.5121ZM287.539 63.9277C287.539 63.9277 291.167 63.224 292.683 62.1806C297.002 59.6087 302.268 53.8824 307.169 47.4524C304.136 48.7384 300.982 50.1336 297.706 51.5409C296.893 52.3537 296.068 53.0574 295.134 53.4092L287.418 34.5925C287.418 34.5925 290.572 33.8889 291.98 32.9547C298.058 28.3931 306.708 11.566 308.928 2.3457L330.074 11.6995C329.601 12.7549 328.327 13.5678 326.216 13.4465C320.029 20.6893 309.037 29.5699 299.574 35.0657C304.136 35.0657 309.62 34.9443 315.576 34.8352C318.027 30.6254 320.017 26.5369 321.181 23.2612L341.624 33.4278C341.041 34.5925 339.525 35.4175 337.062 35.1749C329.237 44.4073 314.157 56.4422 301.188 63.9155C309.947 63.5637 321.752 62.9814 333.556 62.2777V63.5637C326.896 67.0698 314.63 73.0266 299.089 79.1048C297.924 80.8518 296.638 82.0286 295.231 82.6109L287.539 63.9277ZM332.646 17.0618L331.591 13.7862H364.772L374.817 4.32322L390.819 18.1173C390.115 19.5246 389.072 19.8643 386.148 20.1069C382.06 26.4156 376.916 32.3724 370.728 37.7468C406.251 37.1645 404.261 63.5758 388.368 60.7612C382.763 54.5739 373.3 47.2098 365.111 42.2963C354.011 50.5946 340.568 57.1337 325.622 61.3435L324.918 60.1789C341.393 49.6604 357.056 33.1852 364.759 17.0618H332.646ZM385.699 91.9647C385.699 91.9647 394.459 98.7464 399.724 103.417C399.372 104.703 398.086 105.286 396.448 105.286H326.228L325.294 102.01H352.87V68.9503H333.702L332.767 65.6747H370.741L378.335 55.7386C378.335 55.7386 386.985 62.399 392.117 67.0698C391.765 68.3558 390.601 68.9382 388.841 68.9382H370.146V102.01H377.971L385.699 91.9647Z" fill="#222222"/>
<rect x="412" y="57" width="48.6606" height="48.6606" fill="black"/>
<path d="M420.725 62.4977C420.857 62.5307 420.923 62.5636 420.955 62.5966C420.988 62.6296 421.021 62.6625 421.021 62.7284C421.054 62.7943 421.087 62.8932 421.087 63.025V68.4957C421.087 68.6934 421.087 68.8582 421.054 68.9571C421.021 69.0559 420.988 69.1218 420.955 69.1877C420.89 69.2537 420.824 69.2866 420.725 69.3196C420.593 69.3525 420.461 69.3855 420.23 69.3855H420.066L420.099 70.0116H420.263C420.329 70.0116 420.428 70.0116 420.56 70.0116C420.791 70.0116 421.021 70.0116 421.285 70.0116C421.516 70.0116 421.779 70.0116 422.142 70.0116H423.032C423.164 70.0116 423.262 70.0116 423.361 70.0116H423.526L423.559 69.3855H423.394C423.164 69.3855 422.999 69.3525 422.867 69.3196C422.735 69.2866 422.669 69.2537 422.636 69.2207C422.603 69.1877 422.57 69.1548 422.57 69.0889C422.57 69.023 422.537 68.9241 422.537 68.7923V66.0899H426.36V68.4627C426.36 68.6605 426.36 68.8252 426.327 68.9241C426.327 69.023 426.294 69.0889 426.228 69.1548C426.162 69.2207 426.097 69.2537 425.998 69.2866C425.899 69.3196 425.734 69.3525 425.536 69.3525H425.372L425.437 69.9787H425.602C425.668 69.9787 425.767 69.9787 425.866 69.9787C426.064 69.9787 426.327 69.9787 426.558 69.9787C426.756 69.9787 427.052 69.9787 427.448 69.9787C427.777 69.9787 428.074 69.9787 428.305 69.9787C428.436 69.9787 428.535 69.9787 428.634 69.9787H428.799L428.832 69.3525H428.667C428.436 69.3525 428.272 69.3196 428.14 69.2866C428.008 69.2537 427.942 69.2207 427.909 69.1877C427.876 69.1548 427.843 69.1218 427.843 69.0559C427.81 68.99 427.81 68.8911 427.81 68.7593V63.3216C427.81 63.1239 427.81 62.9591 427.843 62.8602C427.876 62.7614 427.909 62.6955 427.942 62.6296C428.008 62.5636 428.074 62.5307 428.173 62.4977C428.305 62.4648 428.436 62.4318 428.667 62.4318H428.832L428.766 61.8057H428.601C428.535 61.8057 428.436 61.8057 428.305 61.8057C428.107 61.8057 427.843 61.8057 427.58 61.8057C427.349 61.8057 427.085 61.8057 426.723 61.8057C426.36 61.8057 426.097 61.8057 425.833 61.8057C425.701 61.8057 425.602 61.8057 425.503 61.8057H425.339L425.306 62.4318H425.47C425.701 62.4318 425.866 62.4648 425.998 62.4977C426.097 62.5307 426.162 62.5636 426.228 62.5966C426.261 62.6296 426.294 62.6625 426.294 62.7284C426.294 62.7943 426.327 62.8932 426.327 63.025V65.299H422.504V63.3216C422.504 63.1239 422.504 62.9591 422.537 62.8602C422.537 62.7614 422.57 62.6955 422.636 62.6296C422.702 62.5636 422.768 62.5307 422.867 62.4977C422.999 62.4648 423.131 62.4318 423.328 62.4318H423.493L423.46 61.8057H423.032C422.933 61.8057 422.801 61.8057 422.669 61.8057C422.537 61.8057 422.438 61.8057 422.307 61.8057H421.417C421.285 61.8057 421.153 61.8057 421.021 61.8057C420.857 61.8057 420.725 61.8057 420.593 61.8057H420.066L420.033 62.4318H420.197C420.428 62.4648 420.593 62.4648 420.725 62.4977Z" fill="white"/>
<path d="M428.403 65.0024L428.37 65.6286H428.535C428.7 65.6286 428.799 65.6615 428.898 65.6615C428.964 65.6945 429.062 65.6945 429.095 65.7604C429.161 65.7934 429.194 65.8593 429.227 65.9252C429.293 66.0241 429.359 66.1559 429.425 66.2877C429.524 66.5514 429.656 66.848 429.787 67.1446C429.919 67.4412 430.051 67.7707 430.183 68.1003C430.315 68.4298 430.447 68.7594 430.578 69.0889C430.71 69.4185 430.809 69.7151 430.941 70.0117L431.007 70.1765C430.941 70.3413 430.842 70.572 430.677 70.9015C430.512 71.2311 430.348 71.4947 430.15 71.6924C430.084 71.7584 430.018 71.8243 429.919 71.8243C429.787 71.8572 429.656 71.8902 429.491 71.8572C429.458 71.8572 429.392 71.8243 429.293 71.8243L429.227 71.7913L429.161 71.8243C429.029 71.8902 428.931 71.989 428.832 72.0879C428.733 72.2197 428.7 72.3516 428.7 72.5493C428.7 72.747 428.766 72.9118 428.931 73.0436C429.062 73.1425 429.227 73.2084 429.458 73.2084C429.787 73.2084 430.117 73.0766 430.414 72.8129C430.545 72.7141 430.71 72.5163 430.842 72.3186C430.974 72.1209 431.106 71.8902 431.238 71.6265C431.369 71.3629 431.468 71.1981 431.501 71.0663C431.534 70.9345 431.633 70.7697 431.732 70.4731C431.864 70.0776 432.028 69.7151 432.193 69.3196C432.358 68.9242 432.523 68.5287 432.655 68.1662C432.819 67.8037 432.951 67.4412 433.116 67.1116C433.248 66.782 433.413 66.4854 433.511 66.2548C433.577 66.09 433.643 65.9582 433.709 65.8922C433.742 65.8263 433.808 65.7604 433.874 65.7275C433.94 65.6945 434.006 65.6615 434.072 65.6286C434.171 65.5956 434.302 65.5956 434.434 65.5627L434.599 65.5297L434.566 64.9365H434.401C434.269 64.9365 434.105 64.9365 433.973 64.9365C433.841 64.9365 433.643 64.9365 433.446 64.9365C433.182 64.9365 432.984 64.9365 432.819 64.9365C432.655 64.9365 432.49 64.9365 432.325 64.9365H432.16L432.127 65.5627H432.292C432.589 65.5627 432.688 65.5956 432.753 65.6286C432.819 65.6615 432.786 65.6615 432.786 65.6945C432.786 65.6945 432.786 65.7604 432.721 65.9582L431.732 68.331L430.842 65.9911C430.809 65.9252 430.809 65.8593 430.776 65.7934C430.743 65.7275 430.743 65.6945 430.743 65.6945C430.743 65.6945 430.743 65.6945 430.776 65.6615C430.809 65.6286 430.941 65.5956 431.205 65.5627L431.369 65.5297L431.336 64.9365H431.172C431.007 64.9365 430.842 64.9365 430.677 64.9365C430.512 64.9365 430.282 64.9365 430.018 64.9365C429.722 64.9365 429.458 64.9365 429.227 64.9365C428.997 64.9365 428.799 64.9365 428.601 64.9365H428.403V65.0024Z" fill="white"/>
<path d="M435.324 65.7277C435.489 65.7607 435.588 65.7936 435.686 65.7936C435.752 65.8266 435.818 65.8266 435.818 65.8595C435.851 65.8925 435.851 65.9254 435.884 65.9913C435.884 66.0573 435.917 66.1891 435.917 66.3209V68.2653C435.917 68.5948 435.95 68.8585 436.016 69.0892C436.082 69.3199 436.214 69.5176 436.346 69.6824C436.477 69.8472 436.642 69.946 436.84 70.0449C437.038 70.1108 437.268 70.1438 437.499 70.1438C437.829 70.1438 438.125 70.0778 438.455 69.946C438.652 69.8472 438.883 69.7483 439.081 69.5835C439.081 69.6494 439.081 69.7483 439.048 69.8142V69.9131L439.279 70.0778L439.378 70.0449C439.443 70.0119 439.542 70.0119 439.641 69.979C439.773 69.946 439.938 69.9131 440.135 69.8801C440.333 69.8472 440.531 69.8142 440.729 69.8142C440.893 69.7812 441.058 69.7812 441.223 69.7483L441.388 69.7153L441.322 69.1551L441.19 69.1221C440.992 69.0892 440.861 69.0562 440.762 69.0562C440.663 69.0233 440.597 68.9903 440.597 68.9903C440.564 68.9574 440.564 68.9244 440.531 68.8914C440.531 68.8255 440.498 68.6937 440.498 68.5619V66.7493C440.498 66.6505 440.498 66.5516 440.498 66.4198C440.498 66.2879 440.498 66.1561 440.498 65.9913C440.498 65.8595 440.531 65.6947 440.531 65.53C440.531 65.3652 440.564 65.2334 440.564 65.1015V65.0027L440.333 64.8379L440.234 64.8708C440.201 64.8708 440.168 64.9038 439.971 64.9368C439.806 64.9697 439.674 65.0027 439.476 65.0356C439.312 65.0686 439.114 65.1015 438.949 65.1015C438.751 65.1345 438.587 65.1345 438.389 65.1674L438.224 65.2004L438.257 65.7277L438.389 65.7607C438.554 65.7936 438.718 65.8266 438.817 65.8266C438.883 65.8595 438.949 65.8595 438.982 65.8925C439.015 65.9254 439.015 65.9584 439.048 66.0243C439.048 66.0902 439.081 66.222 439.081 66.3539V68.7267C438.949 68.8585 438.784 68.9574 438.62 69.0233C438.323 69.1551 437.993 69.188 437.763 69.0892C437.664 69.0562 437.598 68.9903 437.532 68.8914C437.466 68.7926 437.4 68.6608 437.367 68.5289C437.334 68.3642 437.301 68.1664 437.301 67.9028V66.7493C437.301 66.6505 437.301 66.5516 437.301 66.4198C437.301 66.2879 437.301 66.1561 437.301 65.9913L437.334 65.53C437.334 65.3652 437.367 65.2334 437.367 65.1015V65.0027L437.137 64.8379L437.038 64.8708C437.005 64.8708 436.906 64.9038 436.741 64.9368C436.576 64.9697 436.444 65.0027 436.28 65.0356C436.115 65.0686 435.95 65.1015 435.785 65.1015C435.621 65.1345 435.456 65.1345 435.258 65.1674H435.159L435.192 65.6947L435.324 65.7277Z" fill="white"/>
<path d="M442.311 69.0237C442.311 69.1226 442.278 69.1885 442.245 69.2215C442.212 69.2544 442.146 69.2874 442.047 69.3203C441.948 69.3533 441.817 69.3863 441.619 69.3863H441.454L441.52 69.9795H441.685C441.85 69.9795 442.014 69.9795 442.245 69.9795C442.443 69.9795 442.673 69.9795 442.937 69.9795C443.267 69.9795 443.563 69.9795 443.761 69.9795C443.992 69.9795 444.189 69.9795 444.354 69.9795H444.519L444.552 69.3533H444.387C444.222 69.3533 444.091 69.3203 443.959 69.3203C443.86 69.3203 443.827 69.2874 443.794 69.2544C443.794 69.2544 443.761 69.2215 443.761 69.1556C443.761 69.0897 443.728 68.9908 443.728 68.859V66.2225C443.893 66.0907 444.058 65.9918 444.222 65.9259C444.387 65.86 444.585 65.827 444.816 65.827C445.046 65.827 445.211 65.893 445.343 66.0577C445.475 66.2225 445.541 66.4862 445.541 66.8816V68.5624C445.541 68.7601 445.541 68.9249 445.508 69.0237C445.508 69.1226 445.475 69.1556 445.442 69.2215C445.409 69.2544 445.343 69.2874 445.277 69.3203C445.178 69.3533 445.046 69.3533 444.881 69.3863H444.717L444.783 69.9795H444.947C445.112 69.9795 445.277 69.9795 445.475 69.9795C445.672 69.9795 445.903 69.9795 446.2 69.9795C446.496 69.9795 446.76 69.9795 446.958 69.9795C447.155 69.9795 447.353 69.9795 447.551 69.9795H447.716L447.749 69.3533H447.584C447.419 69.3533 447.287 69.3203 447.188 69.3203C447.09 69.3203 447.057 69.2874 447.024 69.2544C446.991 69.2215 446.991 69.2215 446.991 69.1556C446.991 69.0897 446.958 68.9908 446.958 68.859V66.6509C446.958 66.3214 446.925 66.0577 446.826 65.827C446.76 65.5964 446.628 65.3986 446.463 65.2338C446.299 65.0691 446.134 64.9702 445.936 64.9043C445.475 64.7395 444.881 64.7725 444.321 65.0032C444.124 65.102 443.893 65.2009 443.695 65.3657C443.695 65.2668 443.728 65.1679 443.728 65.0691L443.761 64.9372L443.464 64.7725L443.398 64.8054C443.333 64.8384 443.201 64.8713 443.069 64.9043L442.608 65.0361C442.443 65.0691 442.278 65.102 442.113 65.1679C441.948 65.2009 441.784 65.2338 441.652 65.2668L441.52 65.2998L441.586 65.827L441.718 65.86C441.883 65.893 442.014 65.9259 442.113 65.9259C442.179 65.9589 442.245 65.9589 442.278 65.9918C442.311 66.0248 442.311 66.0577 442.344 66.1236C442.344 66.1896 442.377 66.3214 442.377 66.4532V68.5294C442.344 68.7601 442.311 68.9249 442.311 69.0237Z" fill="white"/>
<path d="M420.725 76.0739C420.857 76.1069 420.923 76.1398 420.955 76.1728C420.988 76.2057 421.021 76.2387 421.021 76.3046C421.054 76.3705 421.054 76.4694 421.054 76.6012V82.0718C421.054 82.2696 421.054 82.4344 421.021 82.5332C420.988 82.6321 420.955 82.698 420.923 82.7639C420.857 82.8298 420.791 82.8628 420.692 82.8957C420.56 82.9287 420.428 82.9616 420.197 82.9616H420.033L420.099 83.5549H420.263C420.329 83.5549 420.428 83.5549 420.56 83.5549C420.791 83.5549 421.021 83.5549 421.285 83.5549C421.516 83.5549 421.779 83.5549 422.142 83.5549H423.032C423.164 83.5549 423.262 83.5549 423.361 83.5549H423.526L423.559 82.9287H423.394C423.131 82.9287 422.966 82.8957 422.834 82.8957C422.702 82.8628 422.636 82.8298 422.603 82.7969C422.57 82.7639 422.537 82.731 422.537 82.665C422.537 82.5991 422.504 82.5003 422.504 82.3684V79.6661H426.327V82.0389C426.327 82.2366 426.327 82.4014 426.294 82.5003C426.294 82.5991 426.261 82.665 426.195 82.731C426.13 82.7969 426.064 82.8298 425.965 82.8628C425.866 82.8957 425.701 82.9287 425.503 82.9287H425.339L425.404 83.5549H425.569C425.635 83.5549 425.734 83.5549 425.833 83.5549C426.031 83.5549 426.294 83.5549 426.525 83.5549C426.723 83.5549 427.019 83.5549 427.415 83.5549C427.744 83.5549 428.041 83.5549 428.272 83.5549C428.403 83.5549 428.502 83.5549 428.601 83.5549H428.766L428.799 82.9287H428.634C428.403 82.9287 428.239 82.8957 428.107 82.8628C427.975 82.8298 427.909 82.7969 427.876 82.7639C427.843 82.731 427.81 82.698 427.81 82.6321C427.777 82.5662 427.777 82.4673 427.777 82.3355V76.8978C427.777 76.7001 427.777 76.5353 427.81 76.4364C427.843 76.3376 427.876 76.2716 427.909 76.2057C427.975 76.1398 428.041 76.1069 428.14 76.0739C428.272 76.0409 428.403 76.008 428.634 76.008H428.799L428.766 75.3818H428.601C428.535 75.3818 428.436 75.3818 428.305 75.3818C428.107 75.3818 427.843 75.3818 427.58 75.3818C427.349 75.3818 427.085 75.3818 426.723 75.3818C426.36 75.3818 426.097 75.3818 425.833 75.3818C425.701 75.3818 425.602 75.3818 425.503 75.3818H425.339L425.306 76.008H425.47C425.701 76.008 425.866 76.0409 425.998 76.0739C426.097 76.1069 426.162 76.1398 426.228 76.1728C426.261 76.2057 426.294 76.2387 426.294 76.3046C426.294 76.3705 426.327 76.4694 426.327 76.6012V78.8751H422.504V76.8978C422.504 76.7001 422.504 76.5353 422.537 76.4364C422.537 76.3376 422.57 76.2716 422.636 76.2057C422.702 76.1398 422.768 76.1069 422.867 76.0739C422.966 76.0409 423.131 76.008 423.328 76.008H423.493L423.427 75.3818H423.032C422.933 75.3818 422.801 75.3818 422.669 75.3818C422.537 75.3818 422.438 75.3818 422.307 75.3818H421.417C421.285 75.3818 421.153 75.3818 421.021 75.3818C420.89 75.3818 420.758 75.3818 420.593 75.3818H420.066L420.033 76.008H420.197C420.428 76.008 420.593 76.0409 420.725 76.0739Z" fill="white"/>
<path d="M433.907 79.174C433.644 78.9433 433.38 78.7456 433.083 78.6137C432.787 78.4819 432.424 78.416 431.996 78.416C431.6 78.416 431.238 78.4819 430.908 78.6467C430.579 78.7785 430.315 78.9763 430.084 79.2399C429.854 79.4706 429.656 79.7672 429.524 80.0968C429.392 80.4263 429.326 80.7888 429.326 81.1513C429.326 81.5139 429.392 81.8434 429.524 82.173C429.656 82.5025 429.821 82.7662 430.051 82.9969C430.282 83.2276 430.546 83.4253 430.875 83.5571C431.205 83.6889 431.567 83.7548 431.996 83.7548C432.391 83.7548 432.754 83.6889 433.083 83.5242C433.413 83.3923 433.677 83.1946 433.907 82.9309C434.138 82.7003 434.336 82.4037 434.468 82.0741C434.599 81.7445 434.665 81.382 434.665 81.0195C434.665 80.657 434.599 80.3274 434.468 79.9979C434.402 79.7013 434.171 79.4047 433.907 79.174ZM431.897 79.141C432.062 79.141 432.227 79.207 432.424 79.3058C432.589 79.4376 432.754 79.6024 432.853 79.8002C432.985 79.9979 433.05 80.2286 433.116 80.4922C433.182 80.7559 433.215 81.0195 433.215 81.2502C433.215 81.4479 433.182 81.6786 433.149 81.8764C433.116 82.0741 433.017 82.2718 432.919 82.4366C432.82 82.6014 432.688 82.7332 432.556 82.8321C432.227 83.0298 431.93 82.9969 431.633 82.7991C431.469 82.6673 431.304 82.5025 431.205 82.3048C431.073 82.1071 431.007 81.8434 430.941 81.6127C430.875 81.3491 430.842 81.0854 430.842 80.8547C430.842 80.657 430.875 80.4263 430.908 80.2286C430.941 80.0308 431.04 79.8331 431.139 79.6683C431.238 79.5036 431.37 79.3717 431.501 79.3058C431.633 79.207 431.765 79.141 431.897 79.141Z" fill="white"/>
<path d="M428.008 97.1335L428.041 96.5073H427.876C427.712 96.5073 427.547 96.4744 427.448 96.4414C427.349 96.4084 427.25 96.3755 427.151 96.3425C427.053 96.2766 426.954 96.2107 426.855 96.1118C426.756 96.013 426.624 95.8812 426.459 95.7164C426.327 95.5516 426.13 95.3539 425.899 95.1232C425.668 94.8595 425.438 94.5959 425.207 94.2993C424.943 94.0027 424.713 93.7061 424.449 93.3765C424.218 93.1129 423.988 92.8163 423.757 92.5526C423.922 92.3879 424.054 92.2231 424.251 92.0583C424.482 91.8276 424.68 91.6299 424.877 91.4321C425.075 91.2344 425.273 91.0367 425.438 90.8719C425.602 90.7071 425.767 90.5753 425.866 90.4435C426.031 90.3116 426.163 90.1798 426.327 90.081C426.459 89.9821 426.591 89.9162 426.756 89.8503C426.888 89.7843 427.053 89.7514 427.184 89.7184C427.316 89.6855 427.481 89.6525 427.679 89.6525H427.843L427.778 89.0264H427.613C427.547 89.0264 427.448 89.0264 427.316 89.0264C427.085 89.0264 426.789 89.0264 426.492 89.0264C426.196 89.0264 425.998 89.0264 425.734 89.0264C425.471 89.0264 425.174 89.0264 424.943 89.0264C424.812 89.0264 424.713 89.0264 424.647 89.0264H424.482L424.449 89.6525H424.614C424.812 89.6525 424.976 89.6855 425.108 89.7184C425.207 89.7514 425.24 89.7843 425.24 89.7843V89.8173C425.207 89.8832 425.174 89.9491 425.108 90.048C424.976 90.2128 424.812 90.4105 424.647 90.5753C424.482 90.773 424.284 90.9708 424.119 91.1685C423.922 91.3662 423.757 91.564 423.559 91.7617C423.361 91.9594 423.197 92.1242 423.032 92.289C422.867 92.4208 422.768 92.5197 422.669 92.5856C422.636 92.6185 422.604 92.6185 422.571 92.6515V90.5753C422.571 90.3776 422.571 90.2457 422.604 90.1139C422.636 90.015 422.669 89.9491 422.702 89.8832C422.768 89.8173 422.834 89.7844 422.933 89.7514C423.065 89.7184 423.23 89.6855 423.427 89.6855H423.592L423.526 89.0593H423.361C423.296 89.0593 423.197 89.0593 423.065 89.0593C422.834 89.0593 422.571 89.0593 422.307 89.0593C422.076 89.0593 421.813 89.0593 421.384 89.0593C421.055 89.0593 420.758 89.0593 420.494 89.0593C420.363 89.0593 420.264 89.0593 420.165 89.0593H420.033L420 89.5866H420.165C420.395 89.5866 420.56 89.6196 420.692 89.6525C420.824 89.6855 420.923 89.7184 420.956 89.7514C420.989 89.7844 421.022 89.8173 421.055 89.8832C421.088 89.9491 421.088 90.048 421.088 90.1798V95.6834C421.088 95.8812 421.088 96.0459 421.055 96.1448C421.022 96.2437 420.989 96.3096 420.956 96.3755C420.89 96.4414 420.824 96.4744 420.725 96.5073C420.593 96.5403 420.428 96.5732 420.198 96.5732H420.033L420.099 97.1994H420.264C420.33 97.1994 420.428 97.1994 420.56 97.1994C420.791 97.1994 421.055 97.1994 421.318 97.1994C421.549 97.1994 421.813 97.1994 422.208 97.1994C422.571 97.1994 422.867 97.1994 423.131 97.1994C423.263 97.1994 423.361 97.1994 423.46 97.1994H423.625L423.658 96.5732H423.493C423.263 96.5732 423.098 96.5403 422.966 96.5073C422.867 96.4744 422.768 96.4414 422.702 96.4084C422.669 96.3755 422.636 96.3425 422.604 96.2766C422.571 96.2107 422.571 96.1118 422.571 95.98V93.3436C422.604 93.3436 422.636 93.3436 422.669 93.3765C422.702 93.4095 422.768 93.4754 422.9 93.6072C423.164 93.9038 423.394 94.1675 423.559 94.3981C423.757 94.6288 423.922 94.8595 424.087 95.0573C424.251 95.255 424.416 95.4527 424.581 95.6505C424.746 95.8482 424.877 96.013 425.042 96.2107C425.207 96.4084 425.339 96.5732 425.438 96.705C425.537 96.8369 425.602 96.9687 425.668 97.0346L425.734 97.1335H425.833C425.899 97.1335 425.998 97.1335 426.064 97.1335C426.163 97.1335 426.229 97.1335 426.36 97.1335C426.69 97.1335 426.954 97.1335 427.217 97.1335C427.481 97.1335 427.712 97.1335 427.909 97.1335H428.008Z" fill="white"/>
<path d="M433.248 92.124C433.116 92.124 432.952 92.124 432.82 92.124C432.688 92.124 432.49 92.124 432.292 92.124C432.029 92.124 431.831 92.124 431.666 92.124C431.502 92.124 431.337 92.124 431.172 92.124H431.007L430.974 92.7502H431.139C431.436 92.7502 431.534 92.7831 431.6 92.8161C431.666 92.849 431.633 92.8491 431.633 92.882C431.633 92.882 431.633 92.9479 431.567 93.1457L430.579 95.5185L429.689 93.1786C429.656 93.1127 429.656 93.0468 429.623 92.9809C429.557 92.915 429.557 92.882 429.557 92.849C429.557 92.849 429.557 92.849 429.59 92.8161C429.623 92.7831 429.755 92.7502 430.019 92.7172L430.183 92.6843L430.117 92.124H429.953C429.788 92.124 429.623 92.124 429.458 92.124C429.293 92.124 429.063 92.124 428.799 92.124C428.503 92.124 428.239 92.124 428.008 92.124C427.778 92.124 427.58 92.124 427.382 92.124H427.217L427.184 92.7831H427.349C427.514 92.7831 427.613 92.8161 427.712 92.8161C427.778 92.849 427.876 92.849 427.909 92.915C427.975 92.9479 428.008 93.0138 428.041 93.0797C428.107 93.1786 428.173 93.3104 428.239 93.4423C428.338 93.7059 428.47 94.0025 428.601 94.2991C428.733 94.5957 428.865 94.9253 428.997 95.2548C429.129 95.5844 429.261 95.9139 429.392 96.2435C429.524 96.573 429.623 96.8696 429.755 97.1662L429.821 97.331C429.755 97.4958 429.656 97.7265 429.491 98.0561C429.326 98.3856 429.162 98.6493 428.964 98.847C428.898 98.9129 428.832 98.9788 428.733 98.9788C428.601 99.0118 428.47 99.0447 428.305 99.0118C428.272 99.0118 428.206 98.9788 428.107 98.9788L428.041 98.9459L427.975 98.9788C427.843 99.0447 427.745 99.1436 427.646 99.2425C427.547 99.3743 427.514 99.5061 427.514 99.7038C427.514 99.9016 427.58 100.066 427.745 100.198C427.876 100.297 428.041 100.363 428.272 100.363C428.601 100.363 428.931 100.231 429.228 99.9675C429.359 99.8686 429.524 99.6709 429.656 99.4731C429.788 99.2754 429.92 99.0447 430.051 98.7811C430.183 98.5174 430.282 98.3527 430.315 98.2208C430.348 98.089 430.447 97.9242 430.546 97.6276C430.678 97.2322 430.842 96.8696 431.007 96.4742C431.172 96.0787 431.337 95.6832 431.469 95.3207C431.633 94.9582 431.765 94.5957 431.93 94.2661C432.062 93.9366 432.227 93.64 432.325 93.4093C432.391 93.2445 432.457 93.1127 432.523 93.0468C432.556 92.9809 432.622 92.915 432.688 92.882C432.754 92.8491 432.82 92.8161 432.886 92.7831C432.985 92.7502 433.116 92.7502 433.248 92.7172L433.413 92.6843L433.38 92.124H433.248Z" fill="white"/>
<path d="M439.674 96.3755C439.476 96.3426 439.345 96.3096 439.246 96.3096C439.147 96.2767 439.081 96.2437 439.081 96.2437C439.048 96.2108 439.048 96.1778 439.015 96.1449C439.015 96.0789 438.982 95.9471 438.982 95.8153V93.9368C438.982 93.838 438.982 93.7391 438.982 93.6073C438.982 93.4754 438.982 93.3436 438.982 93.1788C438.982 93.047 439.015 92.8822 439.015 92.7175C439.015 92.5527 439.048 92.4209 439.048 92.289V92.1902L438.817 92.0254L438.718 92.0583C438.686 92.0583 438.653 92.0913 438.455 92.1243C438.29 92.1572 438.158 92.1902 437.961 92.2231C437.796 92.2561 437.598 92.289 437.433 92.289C437.235 92.322 437.071 92.322 436.873 92.3549L436.708 92.3879L436.741 92.9152L436.873 92.9482C437.038 92.9811 437.203 93.0141 437.301 93.0141C437.367 93.047 437.433 93.047 437.466 93.08C437.499 93.1129 437.499 93.1459 437.532 93.2118C437.532 93.2777 437.565 93.4095 437.565 93.5414V95.9471C437.433 96.0789 437.268 96.1778 437.104 96.2437C436.807 96.3755 436.478 96.4085 436.247 96.3096C436.148 96.2767 436.082 96.2108 436.016 96.1119C435.95 96.013 435.884 95.8812 435.851 95.7494C435.818 95.5846 435.785 95.3869 435.785 95.1232V93.9368C435.785 93.838 435.785 93.7391 435.785 93.6073C435.785 93.4754 435.785 93.3436 435.785 93.1788L435.818 92.7175C435.818 92.5527 435.851 92.4209 435.851 92.289V92.1902L435.621 92.0254L435.522 92.0583C435.489 92.0583 435.39 92.0913 435.225 92.1243C435.159 92.0913 434.994 92.1243 434.83 92.1572C434.665 92.1902 434.5 92.2231 434.335 92.2231C434.171 92.2561 434.006 92.2561 433.808 92.289L433.643 92.322L433.676 92.8493L433.808 92.8822C433.973 92.9152 434.072 92.9482 434.171 92.9482C434.237 92.9811 434.302 92.9811 434.302 93.0141C434.335 93.047 434.335 93.08 434.368 93.1459C434.368 93.2118 434.401 93.3436 434.401 93.4754V95.4198C434.401 95.7494 434.434 96.013 434.5 96.2437C434.566 96.4744 434.698 96.6721 434.83 96.8369C434.962 97.0017 435.126 97.1006 435.324 97.1994C435.522 97.2654 435.752 97.2983 435.983 97.2983C436.313 97.2983 436.609 97.2324 436.939 97.1006C437.137 97.0017 437.367 96.9028 437.565 96.7381C437.565 96.804 437.565 96.9028 437.532 96.9687V97.0676L437.763 97.2324L437.862 97.1994C437.928 97.1665 438.026 97.1665 438.125 97.1335C438.257 97.1006 438.422 97.0676 438.62 97.0347C438.817 97.0017 439.015 96.9687 439.213 96.9687C439.378 96.9358 439.542 96.9358 439.707 96.9028L439.872 96.8699L439.806 96.3096L439.674 96.3755Z" fill="white"/>
<path d="M445.673 96.4424C445.574 96.4424 445.541 96.4095 445.508 96.3765C445.475 96.3436 445.475 96.3436 445.475 96.2776C445.475 96.2117 445.442 96.1129 445.442 95.981V93.773C445.442 93.4434 445.409 93.1798 445.31 92.9491C445.244 92.7184 445.113 92.5207 444.948 92.3559C444.783 92.1911 444.618 92.0923 444.42 92.0264C443.959 91.8616 443.366 91.8945 442.806 92.1252C442.608 92.2241 442.377 92.323 442.179 92.4877C442.179 92.3889 442.212 92.29 442.212 92.1911L442.245 92.0593L441.949 91.8945L441.883 91.9275C441.817 91.9604 441.685 91.9934 441.553 92.0264L441.092 92.1582C440.927 92.1911 440.762 92.2241 440.598 92.29C440.433 92.323 440.268 92.3559 440.136 92.3889L440.037 92.4548L440.103 92.9821L440.235 93.015C440.4 93.048 440.532 93.0809 440.631 93.0809C440.696 93.1139 440.762 93.1139 440.795 93.1468C440.828 93.1798 440.828 93.2128 440.861 93.2787C440.861 93.3446 440.894 93.4764 440.894 93.6082V95.6844C440.894 95.8822 440.894 96.0469 440.861 96.1458C440.861 96.2447 440.828 96.3106 440.795 96.3436C440.762 96.3765 440.696 96.4095 440.598 96.4424C440.499 96.4754 440.367 96.5083 440.169 96.5083H440.004L440.07 97.1015H440.235C440.4 97.1015 440.565 97.1015 440.795 97.1015C440.993 97.1015 441.224 97.1015 441.487 97.1015C441.817 97.1015 442.114 97.1015 442.311 97.1015C442.542 97.1015 442.74 97.1015 442.904 97.1015H443.069L443.102 96.4754H442.937C442.773 96.4754 442.641 96.4424 442.509 96.4424C442.41 96.4424 442.377 96.4095 442.344 96.3765C442.344 96.3765 442.311 96.3436 442.311 96.2776C442.311 96.2117 442.278 96.1129 442.278 95.981V93.3446C442.443 93.2128 442.608 93.1139 442.773 93.048C442.937 92.9821 443.135 92.9491 443.366 92.9491C443.597 92.9491 443.761 93.015 443.893 93.1798C444.025 93.3446 444.091 93.6082 444.091 94.0037V95.6844C444.091 95.8822 444.091 96.0469 444.058 96.1458C444.058 96.2447 444.025 96.2776 443.992 96.3436C443.959 96.3765 443.893 96.4095 443.827 96.4424C443.728 96.4754 443.597 96.4754 443.432 96.5083H443.267L443.333 97.1015H443.498C443.662 97.1015 443.827 97.1015 444.025 97.1015C444.223 97.1015 444.453 97.1015 444.75 97.1015C445.047 97.1015 445.31 97.1015 445.508 97.1015C445.706 97.1015 445.903 97.1015 446.101 97.1015H446.266L446.299 96.4754H446.134C445.903 96.4754 445.772 96.4754 445.673 96.4424Z" fill="white"/>
<path d="M452 92.4216L451.835 92.2568L450.517 92.3557C450.484 92.3557 450.451 92.3557 450.385 92.3557C450.319 92.3557 450.286 92.3557 450.253 92.3557C450.22 92.3557 450.187 92.3227 450.121 92.2898C449.792 92.092 449.363 91.9932 448.836 91.9932C448.507 91.9932 448.21 92.0591 447.946 92.1579C447.683 92.2568 447.452 92.4216 447.254 92.5864C447.057 92.7841 446.892 93.0148 446.76 93.2455C446.628 93.5091 446.562 93.7728 446.562 94.0694C446.562 94.7614 446.826 95.2887 447.353 95.6512C447.353 95.6512 447.32 95.6513 447.32 95.6842C447.221 95.7501 447.122 95.816 446.991 95.9149C446.892 96.0138 446.793 96.1126 446.727 96.2445C446.661 96.3763 446.628 96.5081 446.628 96.6729C446.628 96.9036 446.727 97.1013 446.925 97.2661C447.024 97.3649 447.155 97.4309 447.32 97.4968C447.254 97.5297 447.188 97.5956 447.122 97.6286C446.958 97.7275 446.826 97.8593 446.694 97.9911C446.562 98.1229 446.463 98.2548 446.397 98.3866C446.299 98.5514 446.266 98.7161 446.266 98.9468C446.266 99.1775 446.332 99.4082 446.496 99.6059C446.628 99.8037 446.826 99.9355 447.057 100.067C447.287 100.166 447.518 100.265 447.782 100.331C448.045 100.397 448.309 100.43 448.573 100.43C449.067 100.43 449.528 100.364 449.924 100.232C450.319 100.1 450.649 99.9355 450.945 99.7378C451.242 99.54 451.473 99.2764 451.637 98.9798C451.802 98.6832 451.901 98.3536 451.901 98.057C451.901 97.7604 451.835 97.4968 451.703 97.299C451.571 97.1013 451.407 96.9365 451.209 96.8047C451.011 96.6729 450.781 96.607 450.55 96.574C450.088 96.4751 449.594 96.5081 449.133 96.5081C448.902 96.5081 448.704 96.5081 448.507 96.5081C448.441 96.5081 448.342 96.5081 448.243 96.5081C448.144 96.5081 448.078 96.4751 448.012 96.4751C447.946 96.4751 447.913 96.4422 447.88 96.4092C447.88 96.4092 447.848 96.3763 447.848 96.3104C447.848 96.2445 447.88 96.2115 447.913 96.1456C447.979 96.0797 448.045 96.0467 448.111 96.0138C448.704 96.1456 449.166 96.1126 449.594 95.9479C449.858 95.849 450.121 95.7172 450.319 95.5524C450.55 95.3876 450.715 95.1569 450.846 94.8933C450.978 94.6296 451.044 94.3001 451.044 93.9705C451.044 93.7069 450.978 93.4432 450.846 93.2125H451.835L452 92.4216ZM449.1 99.4741C448.968 99.4741 448.803 99.4741 448.605 99.4412C448.408 99.4082 448.243 99.3752 448.078 99.3093C447.913 99.2434 447.815 99.1446 447.716 99.0457C447.65 98.9468 447.617 98.815 447.617 98.7161C447.617 98.5514 447.65 98.4195 447.716 98.3207C447.782 98.1888 447.913 98.09 448.045 97.9581C448.111 97.9252 448.144 97.8593 448.21 97.8593C448.243 97.8263 448.309 97.8263 448.375 97.7934C448.441 97.7934 448.54 97.7604 448.638 97.7604C448.77 97.7604 448.902 97.7604 449.067 97.7604H449.133C449.331 97.7604 449.528 97.7604 449.693 97.7934C449.858 97.7934 450.023 97.8593 450.154 97.8922C450.319 97.9581 450.418 98.057 450.517 98.1888C450.583 98.3207 450.649 98.4195 450.649 98.5184C450.649 98.6502 450.616 98.782 450.517 98.9139C450.451 99.0457 450.319 99.1446 450.187 99.2105C450.023 99.2764 449.858 99.3423 449.66 99.4082C449.495 99.4412 449.298 99.4741 449.1 99.4741ZM448.441 92.7841C448.54 92.7182 448.638 92.6852 448.77 92.6852C448.902 92.6852 449.034 92.7182 449.166 92.8171C449.298 92.9159 449.396 93.0148 449.462 93.1466C449.528 93.2784 449.594 93.4432 449.627 93.6409C449.66 93.8387 449.693 94.0035 449.693 94.2012C449.693 94.333 449.693 94.4978 449.66 94.6296C449.627 94.7614 449.594 94.8933 449.528 95.0251C449.462 95.124 449.396 95.2228 449.265 95.2887C449.034 95.4535 448.803 95.4206 448.573 95.2558C448.441 95.1569 448.342 95.058 448.276 94.9262C448.21 94.7944 448.144 94.6296 448.111 94.4319C448.078 94.2342 448.045 94.0694 448.045 93.9046C448.045 93.7398 448.078 93.608 448.078 93.4432C448.111 93.3114 448.144 93.1796 448.21 93.0477C448.276 92.9159 448.342 92.85 448.441 92.7841Z" fill="white"/>
</svg>
