<svg width="461" height="142" viewBox="0 0 461 142" fill="none" xmlns="http://www.w3.org/2000/svg">
<rect x="119.82" y="71.1396" width="1" height="20" fill="#222222"/>
<rect x="269.82" y="71.1396" width="1" height="20" fill="#222222"/>
<path d="M72.8727 90.5628C120.551 96.4104 96.1297 119.073 82.918 108.676C78.0045 104.005 69.1239 97.1019 55.5725 92.2006C48.451 101.081 33.6136 107.159 0.663146 110.665L0.0808105 109.028C43.4284 98.5092 44.7144 85.5401 45.2967 62.0526L67.7287 66.1411C67.2556 67.6576 65.9817 68.8344 63.2884 68.8344C62.233 76.7808 61.1896 83.5626 57.5621 89.3981C62.9366 89.6286 67.6074 89.9804 71.8172 90.4536V57.9641H34.3173V88.925C34.3173 90.4415 26.9531 94.0689 20.0622 94.0689H17.7207V48.028L35.3606 54.6885H70.6525L78.0167 46.6207L93.3272 58.0733C92.6236 59.0075 91.2284 60.1722 88.7656 60.6453V87.0566C88.6443 87.8695 80.1155 90.5628 74.741 90.5628H72.8727ZM22.8647 43.0054C22.8647 43.9396 15.7311 46.3902 9.54376 46.3902H6.74127V6.90061L26.7226 8.53843C26.4921 9.94574 25.6672 11.1104 22.8647 11.5714V43.0054ZM44.7144 47.6762C44.7144 48.7317 37.5808 51.4129 31.5148 51.4129H28.591V1.17432L48.5723 2.93346C48.3418 4.34077 47.5169 5.38412 44.7144 5.85726V47.6762ZM104.889 12.7482C104.076 14.0342 103.021 14.386 100.327 14.6166C97.1731 21.3983 92.8541 27.3551 87.3583 32.4991C94.2493 34.4887 101.613 35.6534 109.087 36.4663L108.965 37.8736C102.657 39.7419 98.5682 44.8859 96.8091 52.711C88.159 49.7872 80.6857 46.4024 74.3771 41.6102C65.8483 46.281 55.4512 49.678 43.2949 51.6555L42.7126 50.2482C52.7579 46.6207 61.1775 41.5981 67.7166 35.52C62.3421 29.5632 58.1323 22.0777 55.3299 12.1538H48.8999L47.8444 8.87813H82.3356L90.8644 0.701172L104.889 12.7482ZM57.5743 12.1659C61.6628 19.0569 67.6196 24.0795 74.7532 27.707C78.2593 23.0362 80.8313 17.7709 82.8209 12.1659H57.5743Z" fill="#222222"/>
<path d="M172.904 121.774C172.904 133.227 170.684 139.657 153.505 141.282C153.154 135.556 152.571 131.346 150.812 128.665C149.065 125.741 146.724 123.994 141.119 122.818V121.301C141.119 121.301 152.098 121.883 154.561 121.883C156.308 121.883 156.902 121.301 156.902 120.015V98.3958C154.804 99.5605 152.583 100.846 150.242 102.132C149.66 103.649 148.252 104.935 146.736 105.408L141.713 86.1304C144.867 85.6573 150.242 84.7231 156.902 83.5584V61.4782H143.46L142.526 58.2026H156.902V30.1656L177.236 32.0339C177.005 33.7809 175.828 34.9577 172.917 35.4187V56.3343L178.291 47.6842C178.291 47.6842 185.764 54.9269 189.744 59.5978C189.513 60.8837 188.227 61.4661 186.589 61.4661H172.904V80.5133C177.818 79.5791 182.841 78.5237 187.742 77.4803L187.972 78.645C184.236 81.3383 179.213 84.8323 172.904 88.8116V121.774ZM253.534 57.3897C252.83 58.3239 251.313 59.3794 248.863 59.8404V90.8012C248.741 91.6141 240.795 94.3074 235.663 94.3074H232.861V86.2396H205.637C204.472 105.056 198.503 127.488 171.631 141.392L170.818 140.457C187.766 121.532 189.865 97.5709 189.865 76.7766V47.8055L208.209 53.9928H231.696L238.83 46.1677L253.534 57.3897ZM232.849 82.9761V57.2684H205.855V76.7766C205.855 78.7663 205.855 80.8651 205.734 82.964H232.849V82.9761ZM207.723 29.4619C243.124 34.7151 227.705 61.9392 213.801 50.3775C213.68 43.1347 210.647 35.3095 206.789 30.0442L207.723 29.4619Z" fill="#222222"/>
<path d="M336.735 80.5121C329.261 86.6994 316.875 95.58 298.179 106.45C297.476 107.967 296.19 109.374 294.673 109.726L287.2 89.3927C295.607 88.228 316.875 84.1395 336.625 79.5779L336.735 80.5121ZM287.539 63.9277C287.539 63.9277 291.167 63.224 292.683 62.1806C297.002 59.6087 302.268 53.8824 307.169 47.4524C304.136 48.7384 300.982 50.1336 297.706 51.5409C296.893 52.3537 296.068 53.0574 295.134 53.4092L287.418 34.5925C287.418 34.5925 290.572 33.8889 291.98 32.9547C298.058 28.3931 306.708 11.566 308.928 2.3457L330.074 11.6995C329.601 12.7549 328.327 13.5678 326.216 13.4465C320.029 20.6893 309.037 29.5699 299.574 35.0657C304.136 35.0657 309.62 34.9443 315.576 34.8352C318.027 30.6254 320.017 26.5369 321.181 23.2612L341.624 33.4278C341.041 34.5925 339.525 35.4175 337.062 35.1749C329.237 44.4073 314.157 56.4422 301.188 63.9155C309.947 63.5637 321.752 62.9814 333.556 62.2777V63.5637C326.896 67.0698 314.63 73.0266 299.089 79.1048C297.924 80.8518 296.638 82.0286 295.231 82.6109L287.539 63.9277ZM332.646 17.0618L331.591 13.7862H364.772L374.817 4.32322L390.819 18.1173C390.115 19.5246 389.072 19.8643 386.148 20.1069C382.06 26.4156 376.916 32.3724 370.728 37.7468C406.251 37.1645 404.261 63.5758 388.368 60.7612C382.763 54.5739 373.3 47.2098 365.111 42.2963C354.011 50.5946 340.568 57.1337 325.622 61.3435L324.918 60.1789C341.393 49.6604 357.056 33.1852 364.759 17.0618H332.646ZM385.699 91.9647C385.699 91.9647 394.459 98.7464 399.724 103.417C399.372 104.703 398.086 105.286 396.448 105.286H326.228L325.294 102.01H352.87V68.9503H333.702L332.767 65.6747H370.741L378.335 55.7386C378.335 55.7386 386.985 62.399 392.117 67.0698C391.765 68.3558 390.601 68.9382 388.841 68.9382H370.146V102.01H377.971L385.699 91.9647Z" fill="#222222"/>
<rect x="412.067" y="56.6631" width="48.6606" height="48.6606" fill="black"/>
<path d="M427.08 64.6103C427.061 65.5976 427.061 66.6051 427.061 67.6125V68.0388C427.061 69.0262 427.061 70.0246 427.08 71.0219L427.924 71.1094V71.4382H424.608V71.1094L425.413 71.0219C425.442 70.0628 425.442 69.0563 425.442 67.9423H422.865C422.865 69.0362 422.865 70.0437 422.893 71.031L423.688 71.1084V71.4372H420.374V71.1084L421.226 71.0209C421.236 70.0427 421.236 69.0453 421.236 68.0378V67.6115C421.236 66.6041 421.236 65.6067 421.226 64.6193L420.374 64.5329V64.2041H423.688V64.5329L422.893 64.6103C422.865 65.5785 422.865 66.5759 422.865 67.5733H425.442C425.442 66.586 425.442 65.5886 425.413 64.6103L424.608 64.5329V64.2041H427.924V64.5329L427.08 64.6103Z" fill="white"/>
<path d="M433.758 66.441L433.116 66.5285L431.047 72.0955C430.482 73.6067 429.639 74.0612 429.055 74.0612C428.519 74.0612 428.01 73.7414 427.991 73.3061C428.068 72.8707 428.442 72.6867 428.815 72.6867C429.198 72.6867 429.477 72.9099 429.715 73.2196L429.869 73.4227C430.233 73.113 430.501 72.6576 430.779 71.9608L428.508 66.4983L427.952 66.44V66.1494H430.874V66.44L430.175 66.5174L431.478 70.1782L432.657 66.5375L431.785 66.441V66.1504H433.759V66.441H433.758Z" fill="white"/>
<path d="M440.101 71.1556V71.4462L437.993 71.5719L437.945 70.6036C437.505 71.1657 436.872 71.601 436.173 71.601C435.215 71.601 434.611 71.0782 434.63 69.6063L434.669 66.7297L433.998 66.594V66.3326L436.125 66.042L436.249 66.1385L436.191 67.717V69.752C436.191 70.5272 436.489 70.7685 436.948 70.7685C437.313 70.7685 437.658 70.5845 437.935 70.304L437.974 66.7207L437.332 66.595V66.3818L439.411 66.043L439.536 66.1395L439.497 67.718V71.1074L440.101 71.1556Z" fill="white"/>
<path d="M446.798 71.1372V71.4378H444.02V71.1372L444.623 71.0789C444.633 70.5168 444.642 69.6944 444.642 69.1324V67.7378C444.642 66.9827 444.431 66.7113 443.981 66.7113C443.693 66.7113 443.3 66.8953 442.889 67.2633V69.1324C442.889 69.6743 442.898 70.5168 442.907 71.0889L443.454 71.1372V71.4378H440.685V71.1372L441.327 71.0789C441.337 70.5078 441.346 69.6743 441.346 69.1324V68.329C441.346 67.6996 441.336 67.3799 441.317 66.9154L440.599 66.838V66.6057L442.678 65.9954L442.812 66.0919L442.87 66.9445C443.502 66.2086 444.029 65.9854 444.661 65.9854C445.571 65.9854 446.194 66.5856 446.194 67.8545V69.1324C446.194 69.7034 446.204 70.5269 446.223 71.0889L446.798 71.1372Z" fill="white"/>
<path d="M427.079 76.8779C427.06 77.8652 427.06 78.8727 427.06 79.8801V80.3064C427.06 81.2937 427.06 82.2921 427.079 83.2895L427.923 83.377V83.7058H424.608V83.377L425.413 83.2895C425.442 82.3303 425.442 81.3239 425.442 80.2099H422.865C422.865 81.3038 422.865 82.3112 422.893 83.2986L423.688 83.376V83.7048H420.374V83.376L421.226 83.2885C421.236 82.3102 421.236 81.3128 421.236 80.3054V79.8791C421.236 78.8716 421.236 77.8743 421.226 76.8869L420.374 76.7995V76.4717H423.688V76.8005L422.893 76.8779C422.865 77.8461 422.865 78.8435 422.865 79.8409H425.442C425.442 78.8535 425.442 77.8562 425.413 76.8779L424.608 76.8005V76.4717H427.923V76.8005L427.079 76.8779Z" fill="white"/>
<path d="M428.345 81.0319C428.345 79.3177 429.552 78.2529 431.056 78.2529C432.57 78.2529 433.777 79.2986 433.777 81.0319C433.777 82.7653 432.685 83.8693 431.056 83.8693C429.418 83.8693 428.345 82.7362 428.345 81.0319ZM432.12 81.0521C432.12 79.3579 431.746 78.5928 431.056 78.5928C430.367 78.5928 429.983 79.3579 429.983 81.0521C429.983 82.7372 430.366 83.5315 431.056 83.5315C431.747 83.5315 432.12 82.7362 432.12 81.0521Z" fill="white"/>
<path d="M426.496 94.8578V95.1584H424.407L423.047 92.311L422.616 92.7082V92.7755C422.616 93.3466 422.626 94.2374 422.635 94.7995L423.239 94.8578V95.1584H420.413V94.8578L421.054 94.7995C421.064 94.2374 421.073 93.3567 421.073 92.8529V87.8952L420.374 87.8278V87.5764L422.52 87.1592L422.655 87.2467L422.616 88.8061V92.302L424.685 90.278L423.717 90.1614V89.8708H426.218V90.1614L425.279 90.2579L424.129 91.3227L425.873 94.7794L426.496 94.8578Z" fill="white"/>
<path d="M432.303 90.1607L431.661 90.2481L429.592 95.8162C429.027 97.3274 428.183 97.7818 427.6 97.7818C427.063 97.7818 426.555 97.4621 426.536 97.0268C426.613 96.5914 426.987 96.4074 427.36 96.4074C427.743 96.4074 428.021 96.6306 428.26 96.9403L428.413 97.1434C428.777 96.8337 429.046 96.3783 429.323 95.6815L427.052 90.22L426.496 90.1617V89.8711H429.419V90.1617L428.72 90.2391L430.023 93.8999L431.201 90.2592L430.33 90.1627V89.8721H432.304V90.1607H432.303Z" fill="white"/>
<path d="M438.645 94.8773V95.1679L436.537 95.2936L436.489 94.3253C436.049 94.8874 435.416 95.3227 434.717 95.3227C433.759 95.3227 433.155 94.7999 433.174 93.3279L433.213 90.4514L432.542 90.3157V90.0542L434.669 89.7637L434.793 89.8602L434.736 91.4387V93.4737C434.736 94.2489 435.033 94.4902 435.493 94.4902C435.857 94.4902 436.202 94.3062 436.479 94.0257L436.518 90.4423L435.877 90.3167V90.1035L437.956 89.7647L438.08 89.8612L438.041 91.4397V94.829L438.645 94.8773Z" fill="white"/>
<path d="M445.342 94.8569V95.1575H442.564V94.8569L443.167 94.7986C443.177 94.2366 443.186 93.4141 443.186 92.8521V91.4575C443.186 90.7025 442.975 90.431 442.525 90.431C442.237 90.431 441.844 90.615 441.432 90.983V92.8521C441.432 93.394 441.442 94.2366 441.451 94.8087L441.997 94.8569V95.1575H439.229V94.8569L439.871 94.7986C439.881 94.2275 439.89 93.394 439.89 92.8521V92.0487C439.89 91.4193 439.88 91.0996 439.861 90.6351L439.143 90.5577V90.3254L441.222 89.7151L441.356 89.8117L441.414 90.6643C442.046 89.9283 442.572 89.7051 443.205 89.7051C444.115 89.7051 444.738 90.3053 444.738 91.5742V92.8521C444.738 93.4232 444.748 94.2466 444.767 94.8087L445.342 94.8569Z" fill="white"/>
<path d="M451.301 90.5667L450.142 90.4411C450.362 90.7316 450.468 91.0896 450.468 91.4968C450.468 92.5133 449.749 93.3176 448.254 93.3176C447.795 93.3176 447.402 93.2402 447.086 93.1044C446.98 93.2784 446.922 93.4433 446.922 93.6564C446.922 94.0144 447.142 94.1984 447.679 94.1984H449.088C450.631 94.1984 451.196 94.7986 451.196 95.6703C451.196 96.7552 450.132 97.6651 448.12 97.6651C446.376 97.6651 445.811 97.0548 445.811 96.348C445.811 95.9217 446.128 95.5446 446.769 95.2923C446.347 95.0982 446.07 94.8469 446.07 94.3622C446.07 93.8776 446.319 93.5197 446.894 93.0069C446.309 92.6872 446.031 92.1352 446.031 91.4968C446.031 90.4602 446.749 89.7051 448.263 89.7051C449.001 89.7051 449.538 89.8891 449.902 90.1987L451.128 89.7051L451.3 89.8117V90.5667H451.301ZM448.091 95.4964C447.526 95.4964 447.258 95.4773 446.951 95.3898C446.788 95.6029 446.712 95.8161 446.712 96.1358C446.712 96.8426 447.239 97.2398 448.11 97.2398C449.374 97.2398 449.988 96.8426 449.988 96.2806C449.988 95.8644 449.767 95.4964 449.155 95.4964H448.091ZM449.107 91.4968C449.107 90.5476 448.791 89.9956 448.263 89.9956C447.727 89.9956 447.42 90.5577 447.42 91.4968C447.42 92.4358 447.697 93.017 448.253 93.017C448.8 93.017 449.107 92.4358 449.107 91.4968Z" fill="white"/>
</svg>
